<?xml version="1.0" encoding="utf-8"?>
<!-- Generator: Adobe Illustrator 15.1.0, SVG Export Plug-In . SVG Version: 6.00 Build 0)  -->
<!DOCTYPE svg PUBLIC "-//W3C//DTD SVG 1.1//EN" "http://www.w3.org/Graphics/SVG/1.1/DTD/svg11.dtd">
<svg version="1.1"
	 id="svg2185" xmlns:rdf="http://www.w3.org/1999/02/22-rdf-syntax-ns#" xmlns:svg="http://www.w3.org/2000/svg" xmlns:dc="http://purl.org/dc/elements/1.1/" xmlns:sodipodi="http://sodipodi.sourceforge.net/DTD/sodipodi-0.dtd" xmlns:cc="http://web.resource.org/cc/" xmlns:inkscape="http://www.inkscape.org/namespaces/inkscape" inkscape:output_extension="org.inkscape.output.svg.inkscape" sodipodi:version="0.32" inkscape:version="0.45.1" sodipodi:docbase="/home/paulini/logos" sodipodi:docname="ECE_Red_Black.svg"
	 xmlns="http://www.w3.org/2000/svg" xmlns:xlink="http://www.w3.org/1999/xlink" x="0px" y="0px" width="260.25px"
	 height="58.679px" viewBox="20.998 0 260.25 58.679" enable-background="new 20.998 0 260.25 58.679" xml:space="preserve">
<sodipodi:namedview  id="base" inkscape:current-layer="svg2185" inkscape:window-y="219" inkscape:window-x="221" inkscape:window-width="872" inkscape:pageopacity="0.0" inkscape:pageshadow="2" inkscape:window-height="638" bordercolor="#666666" borderopacity="1.0" inkscape:cx="150.2475" inkscape:zoom="2.5890614" objecttolerance="10.0" gridtolerance="10.0" guidetolerance="10.0" pagecolor="#ffffff" inkscape:cy="29.339251">
	</sodipodi:namedview>
<g id="g2195">
	<path id="path2197" d="M49.027,49.596c-4.825-2.57-8.951-8.198-10.84-15.346c1.813,0.106,3.779,0.122,5.868,0.023
		c-0.247-1.088-0.481-2.201-0.693-3.334c-0.058-0.311-0.109-0.622-0.164-0.937c-2.152,0.009-4.132-0.125-5.877-0.391
		c-0.834-7.362,0.976-14.122,4.556-18.271c-5.791,3.52-9.57,9.73-9.958,16.589c-1.043-0.619-1.717-1.376-1.935-2.249
		c-0.051-0.212-0.064-0.42-0.051-0.619c-2.252,1.518-3.391,3.118-3.009,4.696c0.398,1.656,2.377,2.897,5.428,3.671
		c1.796,8.495,8.569,14.722,16.686,16.169"/>
	<path id="path2199" d="M77.227,20.607c-0.378-1.579-2.172-2.641-4.953-3.244c0.147,0.234,0.263,0.494,0.333,0.783
		c0.225,0.905-0.077,1.861-0.792,2.82c-2.759-6.503-8.643-11.113-15.482-12.335c4.94,2.627,9.15,8.463,10.975,15.852
		c-2.262,1.223-5.127,2.352-8.406,3.269c0.029,0.154,0.058,0.314,0.087,0.472c0.228,1.232,0.453,2.444,0.667,3.638
		c3.128-0.813,5.977-1.773,8.431-2.823c0.715,7.195-1.094,13.776-4.607,17.843c6.894-4.193,10.933-12.19,9.791-20.567
		c2.878-1.912,4.382-3.917,3.946-5.717"/>
	<path id="path2201" fill="#990000" d="M59.566,48.979c-3.959,0.912-8.807-7.445-10.818-18.668
		c-2.012-11.225-0.43-21.064,3.529-21.975c0.212-0.051,0.42-0.061,0.619-0.048c-1.504-2.152-3.096-3.247-4.677-2.891
		c-4.389,0.979-5.964,12.512-3.516,25.762c2.444,13.246,7.988,23.188,12.377,22.21c1.578-0.353,2.65-2.053,3.266-4.697
		c-0.234,0.139-0.494,0.248-0.783,0.314"/>
	<path id="path2203" d="M94.436,16.571h-5.399v5.027h6.041v1.508h-7.863V9.157h7.552v1.511h-5.733v4.408h5.399v1.489"/>
	<path id="path2205" d="M97.394,23.109h1.819V8.416h-1.819V23.109z"/>
	<path id="path2207" d="M103.293,17.11c0.145-1.261,0.931-2.958,2.792-2.958c2.027,0,2.525,1.819,2.502,2.958h-5.297H103.293z
		 M110.288,18.432c0.042-0.205,0.062-0.494,0.062-0.866c0-1.841-0.848-4.716-4.117-4.716c-2.917,0-4.716,2.377-4.716,5.422
		c0,3,1.861,5.05,4.925,5.05c1.591,0,2.708-0.35,3.349-0.642l-0.327-1.283c-0.661,0.266-1.47,0.494-2.772,0.494
		c-1.819,0-3.372-1.014-3.413-3.475l7.013,0.02"/>
	<path id="path2209" d="M119.749,22.76c-0.475,0.224-1.53,0.578-2.875,0.578c-3.021,0-4.985-2.047-4.985-5.133
		c0-3.083,2.107-5.338,5.38-5.338c1.074,0,2.027,0.266,2.521,0.536l-0.414,1.386c-0.433-0.225-1.116-0.475-2.107-0.475
		c-2.297,0-3.539,1.716-3.539,3.808c0,2.316,1.488,3.744,3.475,3.744c1.033,0,1.716-0.247,2.232-0.475l0.308,1.363"/>
	<path id="path2211" d="M124.34,10.694v2.4h2.608v1.386h-2.608v5.399c0,1.241,0.35,1.944,1.363,1.944
		c0.495,0,0.783-0.038,1.053-0.122l0.08,1.386c-0.35,0.122-0.909,0.247-1.614,0.247c-0.847,0-1.53-0.289-1.964-0.764
		c-0.493-0.558-0.702-1.447-0.702-2.627v-5.463h-1.55v-1.386h1.55v-1.842l1.777-0.558"/>
	<path id="path2213" d="M129.017,16.218c0-1.178-0.019-2.191-0.08-3.125h1.591l0.081,1.963h0.061
		c0.452-1.344,1.572-2.191,2.791-2.191c0.183,0,0.331,0.02,0.495,0.061v1.694c-0.205-0.019-0.392-0.039-0.639-0.039
		c-1.28,0-2.191,0.972-2.441,2.316c-0.042,0.267-0.061,0.558-0.061,0.87v5.338h-1.819l0.019-6.891"/>
	<path id="path2215" d="M135.847,23.109V13.094h1.818v10.016H135.847z M136.716,11.252c-0.68,0-1.139-0.536-1.139-1.177
		c0-0.638,0.475-1.158,1.178-1.158c0.703,0,1.158,0.517,1.158,1.158c0,0.638-0.455,1.177-1.177,1.177H136.716"/>
	<path id="path2217" d="M147.829,22.76c-0.475,0.224-1.53,0.578-2.875,0.578c-3.018,0-4.985-2.047-4.985-5.133
		c0-3.083,2.108-5.338,5.381-5.338c1.074,0,2.027,0.266,2.521,0.536l-0.414,1.386c-0.433-0.225-1.116-0.475-2.107-0.475
		c-2.298,0-3.539,1.716-3.539,3.808c0,2.316,1.489,3.744,3.475,3.744c1.033,0,1.716-0.247,2.233-0.475l0.308,1.363"/>
	<path id="path2219" d="M155.259,19.738c0,0.186-0.018,0.391-0.079,0.577c-0.29,0.847-1.136,1.675-2.461,1.675
		c-0.909,0-1.695-0.536-1.695-1.736c0-1.944,2.256-2.297,4.242-2.255v1.735L155.259,19.738z M157.037,16.966
		c0-2.005-0.744-4.097-3.827-4.097c-1.261,0-2.482,0.35-3.311,0.869l0.414,1.219c0.702-0.475,1.675-0.745,2.627-0.745
		c2.047-0.019,2.275,1.489,2.275,2.316v0.206c-3.869-0.02-6.022,1.303-6.022,3.725c0,1.447,1.033,2.875,3.061,2.875
		c1.427,0,2.522-0.703,3.062-1.489h0.062l0.162,1.261h1.632c-0.103-0.68-0.143-1.53-0.143-2.4v-3.744"/>
	<path id="path2221" d="M159.956,23.109h1.82V8.416h-1.82V23.109z"/>
	<path id="path2223" d="M197.835,22.676c-0.642,0.33-1.986,0.661-3.683,0.661c-3.93,0-6.869-2.483-6.869-7.077
		c0-4.386,2.958-7.325,7.283-7.325c1.717,0,2.832,0.373,3.311,0.62l-0.452,1.466c-0.663-0.331-1.633-0.578-2.791-0.578
		c-3.27,0-5.44,2.088-5.44,5.752c0,3.436,1.962,5.608,5.338,5.608c1.116,0,2.23-0.225,2.957-0.578l0.35,1.447"/>
	<path id="path2225" d="M203.899,21.974c-1.759,0-2.999-1.655-2.999-3.846c0-1.903,0.929-3.889,3.06-3.889
		c2.149,0,3.001,2.13,3.001,3.828c0,2.274-1.304,3.911-3.043,3.911h-0.019V21.974z M203.88,23.337c2.376,0,4.965-1.614,4.965-5.338
		c0-3.042-1.944-5.13-4.821-5.13c-2.752,0-4.968,1.963-4.968,5.319c0,3.164,2.11,5.152,4.801,5.152h0.021"/>
	<path id="path2227" d="M211.142,15.804c0-1.052-0.04-1.883-0.079-2.71h1.591l0.08,1.614h0.061c0.56-0.95,1.49-1.842,3.167-1.842
		c1.345,0,2.377,0.828,2.813,2.005h0.039c0.309-0.577,0.722-0.991,1.137-1.302c0.6-0.453,1.241-0.703,2.191-0.703
		c1.344,0,3.311,0.87,3.311,4.344v5.896h-1.777v-5.669c0-1.944-0.726-3.083-2.172-3.083c-1.054,0-1.84,0.764-2.173,1.633
		c-0.08,0.267-0.144,0.6-0.144,0.908v6.208h-1.777v-5.999c0-1.614-0.702-2.753-2.089-2.753c-1.116,0-1.966,0.908-2.256,1.819
		c-0.103,0.266-0.145,0.577-0.145,0.889V23.1h-1.777v-7.305"/>
	<path id="path2229" d="M230.225,17.296c0-0.225,0.062-0.495,0.103-0.745c0.349-1.364,1.531-2.233,2.772-2.233
		c1.924,0,2.957,1.717,2.957,3.725c0,2.296-1.115,3.869-3.041,3.869c-1.279,0-2.399-0.869-2.711-2.13
		c-0.062-0.225-0.08-0.494-0.08-0.745v-1.735V17.296z M228.407,27.209h1.818v-5.441h0.04c0.598,0.991,1.737,1.572,3.084,1.572
		c2.336,0,4.553-1.78,4.553-5.38c0-3.042-1.818-5.088-4.263-5.088c-1.614,0-2.814,0.703-3.539,1.944h-0.04l-0.103-1.716h-1.633
		c0.062,0.949,0.082,1.985,0.082,3.269v10.843"/>
	<path id="path2231" d="M248.564,20.379c0,1.033,0.018,1.944,0.079,2.73h-1.613l-0.103-1.633h-0.042
		c-0.453,0.805-1.53,1.861-3.31,1.861c-1.571,0-3.453-0.889-3.453-4.386v-5.855h1.818v5.524c0,1.903,0.598,3.205,2.232,3.205
		c1.22,0,2.07-0.847,2.401-1.675c0.103-0.247,0.163-0.577,0.163-0.93v-6.125h1.819v7.283"/>
	<path id="path2233" d="M253.779,10.694v2.4h2.608v1.386h-2.608v5.399c0,1.241,0.351,1.944,1.364,1.944
		c0.494,0,0.786-0.038,1.053-0.122l0.082,1.386c-0.349,0.122-0.91,0.247-1.614,0.247c-0.846,0-1.529-0.289-1.962-0.764
		c-0.495-0.558-0.703-1.447-0.703-2.627v-5.463h-1.549v-1.386h1.549v-1.842l1.777-0.558"/>
	<path id="path2235" d="M259.368,17.11c0.146-1.261,0.932-2.958,2.794-2.958c2.028,0,2.523,1.819,2.503,2.958H259.368z
		 M266.366,18.432c0.04-0.205,0.061-0.494,0.061-0.866c0-1.841-0.847-4.716-4.116-4.716c-2.917,0-4.715,2.377-4.715,5.422
		c0,3,1.86,5.05,4.924,5.05c1.59,0,2.711-0.35,3.352-0.642l-0.329-1.283c-0.662,0.266-1.467,0.494-2.772,0.494
		c-1.818,0-3.372-1.014-3.414-3.475l7.017,0.02"/>
	<path id="path2237" d="M268.704,16.218c0-1.178-0.019-2.191-0.08-3.125h1.591l0.081,1.963h0.062
		c0.455-1.344,1.57-2.191,2.793-2.191c0.184,0,0.331,0.02,0.494,0.061v1.694c-0.205-0.019-0.392-0.039-0.638-0.039
		c-1.284,0-2.191,0.972-2.441,2.316c-0.038,0.267-0.061,0.558-0.061,0.87v5.338h-1.819l0.019-6.891"/>
	<path id="path2239" d="M98.529,39.345h-8.55v7.963h9.567v2.391H87.096V27.614h11.96v2.39h-9.076v6.978h8.55v2.358"/>
	<path id="path2241" d="M103.246,49.699V27.614h3.144l7.045,11.174c1.604,2.585,2.916,4.879,3.93,7.173l0.096-0.032
		c-0.26-2.947-0.328-5.633-0.328-9.044v-9.271h2.686v22.085h-2.881l-7.01-11.206c-1.54-2.458-3.012-4.979-4.094-7.373l-0.096,0.029
		c0.161,2.785,0.196,5.438,0.196,9.108v9.435h-2.686"/>
	<path id="path2243" d="M141.654,48.716c-1.278,0.491-3.834,1.21-6.815,1.21c-3.339,0-6.092-0.851-8.258-2.917
		c-1.899-1.831-3.08-4.782-3.08-8.222c0-6.586,4.556-11.401,11.96-11.401c2.553,0,4.588,0.555,5.537,1.014l-0.719,2.325
		c-1.178-0.555-2.652-0.95-4.879-0.95c-5.374,0-8.88,3.34-8.88,8.88c0,5.602,3.34,8.912,8.518,8.912c1.868,0,3.145-0.26,3.802-0.587
		v-6.587h-4.457v-2.293h7.273v10.615"/>
	<path id="path2245" d="M145.947,49.699h2.88V27.614h-2.88V49.699z"/>
	<path id="path2247" d="M153.81,49.699V27.614h3.145l7.04,11.174c1.604,2.585,2.917,4.879,3.931,7.173l0.096-0.032
		c-0.259-2.947-0.325-5.633-0.325-9.044v-9.271h2.685v22.085h-2.884l-7.011-11.206c-1.54-2.458-3.012-4.979-4.094-7.373
		l-0.097,0.029c0.163,2.785,0.196,5.438,0.196,9.108v9.435h-2.685"/>
	<path id="path2249" d="M186.777,39.345h-8.551v7.963h9.568v2.391h-12.453V27.614h11.962v2.39h-9.077v6.978h8.551v2.358"/>
	<path id="path2251" d="M202.898,39.345h-8.551v7.963h9.568v2.391h-12.452V27.614h11.961v2.39h-9.077v6.978h8.551v2.358"/>
	<path id="path2253" d="M210.469,29.939c0.491-0.128,1.44-0.259,2.817-0.259c3.013,0,5.077,1.245,5.077,4.093
		c0,2.521-1.93,4.192-4.979,4.192h-2.916V29.939z M207.617,49.699h2.85v-9.567h2.686c2.585,0.097,3.799,1.245,4.455,4.293
		c0.591,2.752,1.079,4.651,1.44,5.274h2.948c-0.423-0.851-0.948-2.98-1.667-6.061c-0.557-2.294-1.572-3.866-3.243-4.456v-0.096
		c2.294-0.786,4.16-2.718,4.16-5.603c0-1.735-0.655-3.243-1.735-4.192c-1.377-1.245-3.372-1.832-6.421-1.832
		c-1.93,0-4.028,0.195-5.47,0.491v21.757"/>
	<path id="path2255" d="M225.214,49.699h2.881V27.614h-2.881V49.699z"/>
	<path id="path2257" d="M233.077,49.699V27.614h3.144l7.043,11.174c1.604,2.585,2.916,4.879,3.931,7.173l0.096-0.032
		c-0.26-2.947-0.327-5.633-0.327-9.044v-9.271h2.685v22.085h-2.884l-7.01-11.206c-1.54-2.458-3.013-4.979-4.094-7.373l-0.096,0.029
		c0.16,2.785,0.195,5.438,0.195,9.108v9.435h-2.686"/>
	<path id="path2259" d="M271.481,48.716c-1.276,0.491-3.829,1.21-6.813,1.21c-3.339,0-6.096-0.851-8.258-2.917
		c-1.898-1.831-3.078-4.782-3.078-8.222c0-6.586,4.551-11.401,11.96-11.401c2.552,0,4.587,0.555,5.536,1.014l-0.719,2.325
		c-1.177-0.555-2.653-0.95-4.879-0.95c-5.374,0-8.881,3.34-8.881,8.88c0,5.602,3.34,8.912,8.518,8.912
		c1.867,0,3.143-0.26,3.802-0.587v-6.587h-4.456v-2.293h7.273v10.615"/>
	<path id="path2261" fill="#990000" d="M172.158,21.56c-1.989,0-3.103-1.315-3.103-3c0-2.117,1.783-3.362,2.923-4.061
		c1.292,2.171,2.79,4.292,3.622,5.511c-0.879,0.931-2.043,1.55-3.414,1.55h-0.022H172.158z M180.23,22.955
		c-0.851-1.033-1.55-1.992-2.198-2.894c1.604-1.655,2.716-3.827,3.673-6.622h-2.016c-0.747,2.198-1.577,3.904-2.639,5.223
		c-0.901-1.292-2.169-3.205-3.128-4.837v-0.074c2.998-1.396,4.475-2.997,4.475-5.069c0-1.864-1.189-3.439-3.516-3.439
		c-2.691,0-4.63,2.172-4.63,4.784c0,1.033,0.334,2.04,0.955,3.156v0.077c-2.146,1.059-4.316,2.894-4.316,5.637
		c0,2.406,1.707,4.347,4.709,4.347c1.913,0,3.462-0.568,4.911-1.889c0.414,0.619,0.751,1.084,1.188,1.6h2.534H180.23z
		 M174.692,6.764c1.266,0,1.729,0.953,1.729,1.966c0,1.652-1.239,2.791-3.334,3.801c-0.566-0.901-0.827-1.78-0.827-2.765
		c0-1.707,1.085-2.996,2.405-2.996h0.026"/>
</g>
</svg>
