<?xml version="1.0" encoding="utf-8"?>
<!-- Generator: Adobe Illustrator 15.1.0, SVG Export Plug-In . SVG Version: 6.00 Build 0)  -->
<!DOCTYPE svg PUBLIC "-//W3C//DTD SVG 1.1//EN" "http://www.w3.org/Graphics/SVG/1.1/DTD/svg11.dtd">
<svg version="1.1"
	 id="svg2185" xmlns:rdf="http://www.w3.org/1999/02/22-rdf-syntax-ns#" xmlns:svg="http://www.w3.org/2000/svg" xmlns:dc="http://purl.org/dc/elements/1.1/" xmlns:sodipodi="http://sodipodi.sourceforge.net/DTD/sodipodi-0.dtd" xmlns:cc="http://web.resource.org/cc/" xmlns:inkscape="http://www.inkscape.org/namespaces/inkscape" inkscape:output_extension="org.inkscape.output.svg.inkscape" sodipodi:version="0.32" inkscape:version="0.45.1" sodipodi:docbase="/home/paulini/logos" sodipodi:docname="ECE_Red_Black.svg"
	 xmlns="http://www.w3.org/2000/svg" xmlns:xlink="http://www.w3.org/1999/xlink" x="0px" y="0px" width="300.496px"
	 height="58.679px" viewBox="0 0 300.496 58.679" enable-background="new 0 0 300.496 58.679" xml:space="preserve">
<sodipodi:namedview  id="base" inkscape:current-layer="svg2185" inkscape:window-y="219" inkscape:window-x="221" inkscape:window-width="872" inkscape:pageopacity="0.0" inkscape:pageshadow="2" inkscape:window-height="638" bordercolor="#666666" borderopacity="1.0" inkscape:cx="150.2475" inkscape:zoom="2.5890614" objecttolerance="10.0" gridtolerance="10.0" guidetolerance="10.0" pagecolor="#ffffff" inkscape:cy="29.339251">
	</sodipodi:namedview>
<g id="g2195">
	<path id="path2197" d="M27.002,54.003c-5.875-3.129-10.898-9.98-13.199-18.684c2.207,0.129,4.602,0.148,7.145,0.027
		c-0.301-1.324-0.586-2.68-0.844-4.059c-0.07-0.379-0.133-0.758-0.199-1.141c-2.621,0.012-5.031-0.152-7.156-0.476
		c-1.016-8.965,1.188-17.195,5.547-22.246C11.245,11.711,6.643,19.273,6.17,27.625c-1.27-0.754-2.09-1.676-2.355-2.738
		c-0.063-0.258-0.078-0.512-0.063-0.754C1.01,25.98-0.376,27.93,0.088,29.851c0.484,2.016,2.895,3.527,6.609,4.469
		c2.188,10.344,10.434,17.926,20.316,19.688"/>
	<path id="path2199" d="M61.338,18.707c-0.461-1.922-2.645-3.215-6.031-3.949c0.18,0.285,0.32,0.602,0.406,0.953
		c0.273,1.102-0.094,2.266-0.965,3.434c-3.359-7.918-10.523-13.531-18.852-15.02C41.913,7.324,47.038,14.43,49.26,23.426
		c-2.754,1.488-6.242,2.863-10.234,3.98c0.035,0.188,0.07,0.383,0.105,0.574c0.277,1.5,0.551,2.976,0.813,4.429
		c3.809-0.988,7.277-2.16,10.266-3.437c0.871,8.761-1.332,16.773-5.609,21.726c8.395-5.105,13.313-14.844,11.922-25.042
		c3.504-2.328,5.336-4.77,4.805-6.961"/>
	<path id="path2201" fill="#990000" d="M39.834,53.253c-4.82,1.109-10.723-9.066-13.172-22.73
		c-2.449-13.667-0.523-25.648,4.297-26.757c0.258-0.063,0.512-0.074,0.754-0.059c-1.832-2.621-3.77-3.953-5.695-3.52
		c-5.344,1.191-7.262,15.234-4.281,31.367c2.977,16.129,9.727,28.234,15.07,27.043c1.922-0.43,3.227-2.5,3.977-5.719
		c-0.285,0.168-0.602,0.301-0.953,0.383"/>
	<path id="path2203" d="M82.292,13.793h-6.574v6.121h7.355v1.836h-9.574V4.766h9.195v1.84h-6.98v5.367h6.574v1.813"/>
	<path id="path2205" d="M85.893,21.754h2.215V3.863h-2.215V21.754z"/>
	<path id="path2207" d="M93.077,14.449c0.176-1.535,1.133-3.602,3.398-3.602c2.469,0,3.074,2.215,3.047,3.602h-6.449H93.077z
		 M101.593,16.059c0.05-0.25,0.074-0.602,0.074-1.055c0-2.242-1.032-5.742-5.012-5.742c-3.551,0-5.742,2.895-5.742,6.602
		c0,3.652,2.266,6.148,5.996,6.148c1.938,0,3.297-0.426,4.078-0.781l-0.398-1.563c-0.805,0.324-1.79,0.602-3.375,0.602
		c-2.215,0-4.105-1.234-4.156-4.23l8.539,0.023"/>
	<path id="path2209" d="M113.112,21.328c-0.578,0.273-1.863,0.703-3.5,0.703c-3.68,0-6.07-2.492-6.07-6.25
		c0-3.754,2.566-6.5,6.551-6.5c1.308,0,2.468,0.324,3.07,0.652l-0.504,1.688c-0.527-0.273-1.359-0.578-2.566-0.578
		c-2.797,0-4.309,2.09-4.309,4.637c0,2.82,1.812,4.559,4.23,4.559c1.258,0,2.09-0.301,2.719-0.578l0.375,1.66"/>
	<path id="path2211" d="M118.702,6.637v2.922h3.176v1.688h-3.176v6.574c0,1.512,0.426,2.367,1.66,2.367
		c0.602,0,0.953-0.047,1.281-0.148l0.098,1.688c-0.426,0.148-1.106,0.301-1.965,0.301c-1.031,0-1.863-0.352-2.391-0.93
		c-0.601-0.68-0.855-1.762-0.855-3.199v-6.652h-1.887V9.559h1.887V7.316l2.164-0.68"/>
	<path id="path2213" d="M124.397,13.363c0-1.434-0.023-2.668-0.097-3.805h1.937l0.098,2.391h0.074
		c0.551-1.637,1.914-2.668,3.398-2.668c0.223,0,0.403,0.023,0.602,0.074v2.063c-0.25-0.023-0.477-0.047-0.777-0.047
		c-1.559,0-2.668,1.184-2.973,2.82c-0.051,0.324-0.074,0.68-0.074,1.059v6.5h-2.215l0.023-8.391"/>
	<path id="path2215" d="M132.714,21.754V9.559h2.214v12.195H132.714z M133.772,7.316c-0.828,0-1.387-0.652-1.387-1.434
		c0-0.777,0.579-1.41,1.434-1.41c0.856,0,1.41,0.629,1.41,1.41c0,0.777-0.554,1.434-1.433,1.434H133.772"/>
	<path id="path2217" d="M147.303,21.328c-0.578,0.273-1.863,0.703-3.5,0.703c-3.675,0-6.07-2.492-6.07-6.25
		c0-3.754,2.567-6.5,6.551-6.5c1.309,0,2.469,0.324,3.07,0.652l-0.504,1.688c-0.527-0.273-1.359-0.578-2.566-0.578
		c-2.797,0-4.309,2.09-4.309,4.637c0,2.82,1.813,4.559,4.231,4.559c1.258,0,2.09-0.301,2.719-0.578l0.375,1.66"/>
	<path id="path2219" d="M156.35,17.648c0,0.227-0.022,0.477-0.097,0.703c-0.353,1.031-1.383,2.039-2.996,2.039
		c-1.106,0-2.063-0.652-2.063-2.113c0-2.367,2.746-2.797,5.164-2.746v2.113L156.35,17.648z M158.514,14.273
		c0-2.441-0.906-4.988-4.66-4.988c-1.535,0-3.022,0.426-4.031,1.059l0.504,1.484c0.855-0.578,2.04-0.906,3.199-0.906
		c2.492-0.023,2.771,1.813,2.771,2.82v0.25c-4.711-0.023-7.333,1.586-7.333,4.535c0,1.762,1.257,3.5,3.726,3.5
		c1.737,0,3.071-0.855,3.728-1.813h0.074l0.198,1.535h1.987c-0.125-0.828-0.174-1.863-0.174-2.922V14.27"/>
	<path id="path2221" d="M162.069,21.754h2.216V3.863h-2.216V21.754z"/>
	<path id="path2223" d="M208.19,21.227c-0.78,0.402-2.418,0.805-4.483,0.805c-4.785,0-8.363-3.023-8.363-8.617
		c0-5.34,3.601-8.918,8.867-8.918c2.09,0,3.449,0.453,4.031,0.754l-0.552,1.785c-0.806-0.402-1.987-0.703-3.397-0.703
		c-3.981,0-6.625,2.543-6.625,7.004c0,4.184,2.39,6.828,6.5,6.828c1.358,0,2.717-0.273,3.601-0.703l0.426,1.762"/>
	<path id="path2225" d="M215.574,20.371c-2.142,0-3.652-2.016-3.652-4.684c0-2.316,1.131-4.734,3.726-4.734
		c2.617,0,3.653,2.594,3.653,4.66c0,2.77-1.586,4.762-3.704,4.762h-0.022V20.371z M215.55,22.031c2.894,0,6.046-1.965,6.046-6.5
		c0-3.703-2.367-6.246-5.871-6.246c-3.351,0-6.048,2.391-6.048,6.477c0,3.852,2.568,6.273,5.845,6.273h0.024"/>
	<path id="path2227" d="M224.393,12.859c0-1.281-0.05-2.293-0.097-3.301h1.937l0.099,1.965h0.073
		c0.681-1.156,1.813-2.242,3.856-2.242c1.636,0,2.894,1.008,3.425,2.441h0.047c0.375-0.703,0.879-1.207,1.384-1.586
		c0.729-0.551,1.512-0.855,2.668-0.855c1.637,0,4.03,1.059,4.03,5.289v7.18h-2.164v-6.902c0-2.367-0.883-3.754-2.644-3.754
		c-1.282,0-2.239,0.93-2.646,1.988c-0.098,0.324-0.176,0.73-0.176,1.105v7.559h-2.164v-7.305c0-1.965-0.854-3.352-2.543-3.352
		c-1.358,0-2.394,1.105-2.746,2.215c-0.125,0.324-0.176,0.703-0.176,1.082v7.355h-2.164v-8.895"/>
	<path id="path2229" d="M247.628,14.676c0-0.273,0.074-0.602,0.125-0.906c0.424-1.66,1.863-2.719,3.375-2.719
		c2.343,0,3.601,2.09,3.601,4.535c0,2.797-1.358,4.711-3.703,4.711c-1.558,0-2.922-1.059-3.301-2.594
		c-0.074-0.273-0.097-0.602-0.097-0.906v-2.113V14.676z M245.414,26.746h2.215v-6.625h0.049c0.728,1.207,2.115,1.914,3.755,1.914
		c2.844,0,5.543-2.168,5.543-6.551c0-3.703-2.214-6.195-5.19-6.195c-1.966,0-3.427,0.855-4.31,2.367h-0.048l-0.125-2.09h-1.987
		c0.074,1.156,0.099,2.418,0.099,3.98V26.75"/>
	<path id="path2231" d="M269.957,18.43c0,1.258,0.022,2.367,0.097,3.324h-1.964l-0.125-1.988h-0.051
		c-0.552,0.98-1.863,2.266-4.029,2.266c-1.913,0-4.206-1.082-4.206-5.34V9.563h2.215v6.727c0,2.316,0.728,3.902,2.719,3.902
		c1.484,0,2.521-1.031,2.923-2.039c0.125-0.301,0.198-0.703,0.198-1.133V9.563h2.216v8.867"/>
	<path id="path2233" d="M276.307,6.637v2.922h3.176v1.688h-3.176v6.574c0,1.512,0.426,2.367,1.661,2.367
		c0.601,0,0.957-0.047,1.281-0.148l0.101,1.688c-0.425,0.148-1.108,0.301-1.966,0.301c-1.03,0-1.862-0.352-2.389-0.93
		c-0.603-0.68-0.856-1.762-0.856-3.199v-6.652h-1.886V9.559h1.886V7.316l2.164-0.68"/>
	<path id="path2235" d="M283.112,14.449c0.177-1.535,1.134-3.602,3.402-3.602c2.469,0,3.071,2.215,3.047,3.602H283.112z
		 M291.632,16.059c0.05-0.25,0.074-0.602,0.074-1.055c0-2.242-1.031-5.742-5.013-5.742c-3.551,0-5.741,2.895-5.741,6.602
		c0,3.652,2.266,6.148,5.996,6.148c1.936,0,3.301-0.426,4.081-0.781l-0.401-1.563c-0.805,0.324-1.785,0.602-3.375,0.602
		c-2.215,0-4.106-1.234-4.157-4.23l8.543,0.023"/>
	<path id="path2237" d="M294.479,13.363c0-1.434-0.022-2.668-0.097-3.805h1.937l0.099,2.391h0.074
		c0.555-1.637,1.913-2.668,3.401-2.668c0.224,0,0.403,0.023,0.603,0.074v2.063c-0.25-0.023-0.478-0.047-0.777-0.047
		c-1.563,0-2.668,1.184-2.973,2.82c-0.047,0.324-0.074,0.68-0.074,1.059v6.5h-2.215l0.022-8.391"/>
	<path id="path2239" d="M87.276,41.523h-10.41v9.695h11.648v2.91h-15.16v-26.89h14.563v2.91H76.866v8.496h10.41v2.871"/>
	<path id="path2241" d="M93.018,54.128v-26.89h3.828l8.579,13.605c1.953,3.148,3.55,5.941,4.785,8.734l0.117-0.039
		c-0.316-3.59-0.399-6.859-0.399-11.012V27.238h3.27v26.89h-3.508l-8.535-13.645c-1.875-2.992-3.668-6.063-4.984-8.977l-0.117,0.035
		c0.195,3.391,0.238,6.621,0.238,11.09v11.488h-3.27"/>
	<path id="path2243" d="M139.784,52.933c-1.555,0.598-4.668,1.473-8.297,1.473c-4.066,0-7.418-1.035-10.055-3.551
		c-2.312-2.23-3.75-5.824-3.75-10.012c0-8.02,5.547-13.882,14.563-13.882c3.109,0,5.586,0.676,6.742,1.234l-0.875,2.832
		c-1.434-0.676-3.23-1.156-5.941-1.156c-6.543,0-10.813,4.066-10.813,10.813c0,6.82,4.067,10.852,10.371,10.852
		c2.274,0,3.828-0.316,4.629-0.715V42.8h-5.426v-2.793h8.856v12.926"/>
	<path id="path2245" d="M145.011,54.128h3.507v-26.89h-3.507V54.128z"/>
	<path id="path2247" d="M154.585,54.128v-26.89h3.828l8.573,13.605c1.953,3.148,3.552,5.941,4.785,8.734l0.117-0.039
		c-0.315-3.59-0.397-6.859-0.397-11.012V27.238h3.27v26.89h-3.512l-8.535-13.645c-1.875-2.992-3.668-6.063-4.985-8.977l-0.117,0.035
		c0.199,3.391,0.238,6.621,0.238,11.09v11.488h-3.269"/>
	<path id="path2249" d="M194.725,41.523h-10.41v9.695h11.649v2.91h-15.162v-26.89h14.564v2.91h-11.052v8.496h10.41v2.871"/>
	<path id="path2251" d="M214.354,41.523h-10.41v9.695h11.649v2.91h-15.161v-26.89h14.563v2.91h-11.052v8.496h10.41v2.871"/>
	<path id="path2253" d="M223.574,30.07c0.598-0.156,1.754-0.316,3.43-0.316c3.668,0,6.183,1.515,6.183,4.984
		c0,3.07-2.351,5.105-6.062,5.105h-3.551V30.07z M220.1,54.128h3.469V42.48h3.271c3.147,0.117,4.625,1.516,5.425,5.227
		c0.719,3.352,1.313,5.664,1.754,6.422h3.59c-0.515-1.035-1.155-3.629-2.03-7.379c-0.677-2.793-1.914-4.707-3.949-5.426v-0.117
		c2.793-0.957,5.065-3.309,5.065-6.82c0-2.113-0.797-3.949-2.112-5.105c-1.677-1.516-4.106-2.23-7.817-2.23
		c-2.351,0-4.906,0.238-6.66,0.598V54.14"/>
	<path id="path2255" d="M241.526,54.128h3.509v-26.89h-3.509V54.128z"/>
	<path id="path2257" d="M251.1,54.128v-26.89h3.827l8.576,13.605c1.953,3.148,3.55,5.941,4.785,8.734l0.116-0.039
		c-0.315-3.59-0.397-6.859-0.397-11.012V27.238h3.269v26.89h-3.512l-8.535-13.645c-1.875-2.992-3.668-6.063-4.983-8.977
		l-0.117,0.035c0.195,3.391,0.238,6.621,0.238,11.09v11.488h-3.271"/>
	<path id="path2259" d="M297.862,52.933c-1.555,0.598-4.663,1.473-8.297,1.473c-4.065,0-7.422-1.035-10.054-3.551
		c-2.313-2.23-3.75-5.824-3.75-10.012c0-8.02,5.542-13.882,14.563-13.882c3.108,0,5.586,0.676,6.741,1.234l-0.875,2.832
		c-1.433-0.676-3.229-1.156-5.94-1.156c-6.543,0-10.813,4.066-10.813,10.813c0,6.82,4.067,10.852,10.371,10.852
		c2.274,0,3.827-0.316,4.629-0.715V42.8h-5.425v-2.793h8.855v12.926"/>
	<path id="path2261" fill="#990000" d="M176.925,19.867c-2.422,0-3.778-1.602-3.778-3.652c0-2.578,2.172-4.094,3.56-4.945
		c1.573,2.645,3.397,5.227,4.41,6.711c-1.07,1.133-2.488,1.887-4.156,1.887h-0.028H176.925z M186.753,21.566
		c-1.035-1.258-1.887-2.426-2.676-3.523c1.952-2.016,3.307-4.66,4.473-8.063h-2.454c-0.91,2.676-1.921,4.754-3.214,6.359
		c-1.098-1.574-2.641-3.902-3.809-5.891v-0.09c3.651-1.699,5.448-3.648,5.448-6.172c0-2.27-1.448-4.188-4.28-4.188
		c-3.277,0-5.638,2.645-5.638,5.824c0,1.258,0.407,2.484,1.164,3.844v0.094c-2.613,1.289-5.257,3.523-5.257,6.863
		c0,2.93,2.078,5.293,5.734,5.293c2.328,0,4.215-0.691,5.979-2.301c0.504,0.754,0.914,1.32,1.446,1.949h3.086H186.753z
		 M180.011,1.852c1.541,0,2.105,1.16,2.105,2.395c0,2.012-1.509,3.398-4.06,4.629c-0.69-1.098-1.007-2.168-1.007-3.367
		c0-2.078,1.32-3.648,2.929-3.648h0.032"/>
</g>
</svg>
