<svg xmlns:svg="http://www.w3.org/2000/svg" xmlns="http://www.w3.org/2000/svg" viewBox="0 0 816 342" height="342" width="816" xml:space="preserve" version="1"><style>.s0{fill:#232221;}</style><defs><clipPath clipPathUnits="userSpaceOnUse"><path d="M0 2564V0h6121v2564z"/></clipPath></defs><g transform="matrix(1.3333333,0,0,-1.3333333,0,341.86667)"><g transform="scale(0.1)"><g clip-path="url(#clipPath20)"><path d="M631 850C631 676 490 534 316 534 141 534 0 676 0 850c0 174 141 316 316 316 174 0 316-141 316-316" fill="#33b440"/><path d="m2481 1763 60 52h366l44-52-35-177-44-38h-431zm524-556 291 245 68 412-223 279h-726l-337-284-168-1014 221-293 811 0 252 293 40 244h-414l-12-79-71-52-364 1-45 51 31 198 644-1M4635 1089l-430-1-16-98-71-52M4635 1089l-430-1-16-98-71-52H3760l-45 51 116 722 71 52h366l33-52-9-95 435-1 41 248-194 279H3793L3474 1864 3305 846 3532 552h811l255 293 43 244-7 0v0M1431 1009l-60-52h-161l-44 52 28 183 98 573h390l61 377h-361l73 423H1031L958 2141H760L699 1764H905L753 847 966 561h604-8l236 284 40 242h-395l-12-79M5909 2143h-455l-92-75-59-44 30 191 57 349H4993L4659 552h405l171 1063 137 95h265l58-112-169-1046h384l210 1311-212 279M238 210V35h10c15 0 29 2 41 5 12 3 24 8 34 14 10 7 18 16 24 27 6 12 9 25 9 41 0 16-3 30-9 41-6 12-14 21-24 27-10 6-21 11-34 14-12 3-26 5-41 5zM210 9V236h47c37 0 67-10 91-29 24-19 36-47 36-83 0-37-12-65-36-85C324 19 293 9 255 9h-46M505 114c-9 10-21 14-34 14-13 0-25-5-34-14-9-10-14-21-14-34 0-13 5-25 14-34 9-10 21-15 34-15 13 0 24 5 34 15 9 10 14 21 14 34 0 13-5 25-14 34zm-87 19c14 14 32 22 53 22 21 0 39-7 53-22 15-14 22-32 22-53 0-21-7-39-22-53C510 12 492 4 471 4c-21 0-39 7-53 22-14 14-22 32-22 53 0 21 7 39 22 53M597 150v-18h1c4 6 9 12 16 16 7 4 14 6 21 6 17 0 31-8 40-25 4 8 11 14 18 18 8 5 16 7 25 7 31 0 47-20 47-61V9h-27V89c0 5 0 10-1 14 0 4-2 8-3 13-2 5-4 8-8 10-4 2-8 4-14 4-6 0-10-1-14-3-4-2-7-5-9-8-2-3-4-7-5-12-1-5-2-10-2-14 0-4 0-9 0-14V9h-27V84c0 5 0 9 0 12 0 3-1 7-2 12-1 5-2 9-4 11-2 3-4 5-8 8-3 2-7 3-12 3-7 0-12-2-17-5-4-3-8-7-10-13C599 106 598 101 597 96 597 91 597 85 597 78V9h-27V150h27M861 29c14 0 25 5 33 15 8 10 12 22 12 36 0 14-4 26-12 36-8 10-19 15-33 15-13 0-24-5-32-15-8-10-12-22-12-36 0-14 4-26 12-36 8-10 19-15 32-15zM932 150V9H905V31h-1c-12-18-28-27-48-27-21 0-37 7-49 22C796 41 790 59 790 80c0 20 6 37 18 52 12 14 28 22 48 22 20 0 36-9 49-28h1v23h27M1000 150V9H973V150Zm-27 78c4 4 8 6 13 6 5 0 10-2 13-6 4-4 5-8 5-13 0-5-2-9-5-13-4-4-8-5-13-5-5 0-10 2-13 5-4 4-5 8-5 13 0 5 2 10 5 13M1071 150v-19h1c4 7 10 13 18 17 8 4 16 6 25 6 18 0 31-5 39-16 7-11 11-26 11-45V9h-27V90c0 14-2 24-6 30-4 6-12 10-25 10-6 0-10-1-15-2-4-1-7-4-10-7-2-3-4-6-6-9-1-3-3-7-3-12-1-5-1-9-1-12 0-3 0-7 0-13V9h-27V150h27M1287 9V246L1457 68V236h28V0l-170 178V9h-28M1583 29c14 0 25 5 33 15 8 10 12 22 12 36 0 14-4 26-12 36-8 10-19 15-33 15-13 0-24-5-32-15-8-10-12-22-12-36 0-14 4-26 12-36 8-10 19-15 32-15zm71 121V9h-27V31h-1c-12-18-28-27-48-27-21 0-37 7-49 22-12 15-18 33-18 54 0 20 6 37 18 52 12 14 28 22 48 22 20 0 36-9 49-28h1v23h27M1716 150v-18h1c4 6 9 12 16 16 7 4 14 6 21 6 17 0 31-8 41-25 4 8 11 14 18 18 8 5 16 7 25 7 31 0 47-20 47-61V9h-27V89c0 5 0 10-1 14 0 4-2 8-3 13-2 5-4 8-8 10-4 2-8 4-14 4-6 0-10-1-14-3-4-2-7-5-9-8-2-3-4-7-5-12-1-5-2-10-2-14 0-4 0-9 0-14V9h-27V84c0 5 0 9 0 12 0 3-1 7-2 12-1 5-2 9-4 11-2 3-4 5-8 8-3 2-7 3-12 3-7 0-12-2-17-5-4-3-8-7-10-13-2-6-3-11-4-16-1-5-1-11-1-18V9h-27V150h27M1937 95h79c-2 11-6 19-13 26-7 6-15 9-26 9-10 0-19-3-27-10-7-7-12-15-13-25zM2043 75h-107c0-13 4-23 12-33 8-9 18-14 30-14 10 0 18 2 24 7 6 5 12 11 18 21l23-13c-7-12-16-21-27-28-11-7-24-10-38-10-21 0-38 7-50 21-12 14-19 32-19 53 0 22 6 41 18 55 12 14 29 21 51 21 21 0 38-7 49-21 11-14 17-32 17-54V75M2144 129l-22-12c-4 8-10 12-18 12-4 0-7-1-10-4-3-3-4-6-4-10 0-2 0-3 1-5 0-1 2-3 3-4 2-1 3-2 4-3 1-1 3-2 5-3 3-1 4-2 6-3 1-1 4-2 7-3 3-1 6-2 7-3 10-5 18-10 24-16 6-6 9-14 9-24 0-13-5-24-14-33-9-9-21-13-34-13-11 0-20 3-30 9-9 6-15 13-19 23l23 11c7-12 15-18 26-18 6 0 11 2 15 6 4 4 6 8 6 14 0 6-3 11-10 15l-26 14c-9 5-16 10-20 15-4 5-7 12-7 21 0 11 4 21 12 29 8 8 18 12 29 12 18 0 30-8 38-25M2380 210h-81v-64h79v-26h-79V9h-28V236h110v-26M2506 114c-9 10-21 14-34 14-13 0-24-5-34-14-9-10-14-21-14-34 0-13 5-25 14-34 9-10 21-15 34-15 13 0 25 5 34 15 9 10 14 21 14 34 0 13-5 25-14 34zm-87 19c15 14 32 22 53 22 21 0 39-7 53-22 15-14 22-32 22-53 0-21-7-39-22-53-14-14-32-22-53-22-21 0-39 7-53 22-14 14-22 32-22 53 0 21 7 39 22 53M2601 150v-23h1c3 8 8 15 15 20 7 5 14 7 23 7 8 0 15-2 22-7l-12-25c-4 4-10 6-16 6-7 0-13-1-17-4-5-3-8-7-10-12-2-5-3-10-4-16-1-5-1-11-1-18V9h-27V150h27M2828 210V9h-28V210h-54V236h136v-26h-54M2901 270h27V131h1c4 7 10 13 18 17 8 4 16 6 25 6 18 0 31-5 39-16 7-11 11-26 11-45V9h-27V90c0 14-2 24-6 30-4 6-12 10-25 10-6 0-10-1-15-2-4-1-7-4-10-7-2-3-4-6-6-9-1-3-3-7-3-12-1-5-1-9-1-12 0-3 0-7 0-13V9h-27V270M3075 95h79c-2 11-6 19-13 26-7 6-16 9-26 9-10 0-19-3-27-10-7-7-12-15-13-25zM3181 75h-107c0-13 4-23 12-33 8-9 18-14 30-14 10 0 18 2 24 7 6 5 12 11 18 21l23-13c-7-12-16-21-27-28-12-7-24-10-38-10-21 0-38 7-50 21-12 14-19 32-19 53 0 22 6 41 18 55 12 14 29 21 51 21 21 0 38-7 49-21 11-14 17-32 17-54V75M3291 9V246L3461 68V236h28V0l-170 178V9h-28M3544 95h79c-2 11-6 19-13 26-7 6-16 9-26 9-10 0-19-3-27-10-7-7-12-15-13-25zM3650 75h-107c0-13 4-23 12-33 8-9 18-14 30-14 10 0 18 2 24 7 6 5 12 11 18 21l23-13c-7-12-16-21-27-28-11-7-24-10-38-10-21 0-38 7-50 21-12 14-19 32-19 53 0 22 6 41 18 55 12 14 29 21 51 21 21 0 38-7 49-21 11-14 17-32 17-54V75M3680 150l41-89 41 97 41-97 41 89h31l-71-145-41 94-41-94-71 145h31M4039 210V9h-28V210h-54V236h136v-26h-54M4099 95h79c-2 11-6 19-13 26-7 6-16 9-26 9-10 0-19-3-27-10-7-7-12-15-13-25zM4205 75h-107c0-13 4-23 12-33 8-9 18-14 30-14 10 0 18 2 24 7 6 5 12 11 18 21l23-13c-7-12-16-21-27-28-11-7-24-10-38-10-21 0-38 7-50 21-12 14-19 32-19 53 0 22 6 41 18 55 12 14 29 21 51 21 21 0 38-7 49-21 11-14 17-32 17-54V75M4331 145v-35c-11 13-24 19-40 19-13 0-24-5-33-15-9-10-14-21-14-35 0-14 5-26 14-36 9-9 21-14 35-14 15 0 27 6 38 19v-34c-12-6-24-9-39-9-21 0-39 7-53 21-15 14-22 32-22 53 0 22 7 40 22 54 15 14 33 22 55 22 14 0 27-3 37-9M4360 270h27V131h1c4 7 10 13 18 17 8 4 16 6 25 6 18 0 31-5 39-16 7-11 11-26 11-45V9h-27V90c0 14-2 24-6 30-4 6-12 10-25 10-6 0-10-1-15-2-4-1-7-4-10-7-2-3-4-6-6-9-1-3-3-7-3-12-1-5-1-9-1-12 0-3 0-7 0-13V9h-27V270M4635 210v-82h9c8 0 15 1 22 1 6 1 13 3 19 6 6 3 11 7 14 13 3 6 5 13 5 22 0 27-20 40-61 40zm41-103 71-98h-34L4647 105h-12V9h-28V236h34c9 0 16 0 21 0 5 0 12-1 19-3 8-2 14-4 20-7 9-5 16-13 22-23 5-10 8-20 8-31 0-16-5-31-15-42-10-12-23-19-39-21M4785 95h79c-2 11-6 19-13 26-7 6-16 9-26 9-10 0-19-3-27-10-7-7-12-15-13-25zM4890 75h-107c0-13 4-23 12-33 8-9 18-14 30-14 10 0 18 2 24 7 6 5 12 11 18 21l23-13c-7-12-16-21-27-28-11-7-24-10-38-10-21 0-38 7-50 21-12 14-19 32-19 53 0 22 6 41 18 55 12 14 29 21 51 21 21 0 38-7 49-21 11-14 17-32 17-54V75M4921 150l40-88 41 88h30L4961 4 4891 150h30M5143 114c-9 10-21 14-34 14-13 0-24-5-34-14-9-10-14-21-14-34 0-13 5-25 14-34 9-10 21-15 34-15 13 0 25 5 34 15 9 10 14 21 14 34 0 13-5 25-14 34zm-87 19c14 14 32 22 53 22 21 0 39-7 53-22 15-14 22-32 22-53 0-21-7-39-22-53-14-14-32-22-53-22-21 0-39 7-53 22-15 14-22 32-22 53 0 21 7 39 22 53M5210 9h27v260H5210ZM5274 150h27V72c0-13 2-23 7-31 5-8 13-11 25-11 12 0 21 4 25 11 5 8 7 18 7 31v78h27V69c0-20-5-36-15-47-10-11-25-17-45-17-20 0-35 6-45 17-10 11-15 27-15 47v81M5460 124V9h-27V124h-15v25h15v54h27v-54h26v-25h-26M5534 150V9h-27V150Zm-27 78c4 4 8 6 13 6 5 0 10-2 13-6 4-4 5-8 5-13 0-5-2-9-5-13-4-4-8-5-13-5-5 0-10 2-13 5-4 4-5 8-5 13 0 5 2 10 5 13M5673 114c-9 10-21 14-34 14-13 0-24-5-34-14-9-10-14-21-14-34 0-13 5-25 14-34 9-10 21-15 34-15 13 0 25 5 34 15 9 10 14 21 14 34 0 13-5 25-14 34zm-87 19c14 14 32 22 53 22 21 0 39-7 53-22 15-14 22-32 22-53 0-21-7-39-22-53-14-14-32-22-53-22-21 0-39 7-53 22-15 14-22 32-22 53 0 21 7 39 22 53M5766 150v-19h1c4 7 10 13 18 17 8 4 16 6 25 6 18 0 31-5 39-16 7-11 11-26 11-45V9h-27V90c0 14-2 24-6 30-4 6-12 10-25 10-6 0-10-1-15-2-4-1-7-4-10-7-2-3-4-6-6-9-1-3-3-7-3-12-1-5-1-9-1-12 0-3 0-7 0-13V9h-27V150h27" fill="#232221"/></g></g></g></svg>
