<svg xmlns:svg="http://www.w3.org/2000/svg" xmlns="http://www.w3.org/2000/svg" viewBox="0 0 701 238" height="238" width="701" xml:space="preserve" id="svg2" version="1"><metadata id="metadata8"/><defs id="defs6"/><g transform="matrix(1.3333333,0,0,-1.3333333,0,237.73333)" id="g10"><g transform="scale(0.1)" id="g12"><path id="path14" d="m3370 795c-21-22-47-33-78-33-31 0-57 11-77 32-20 21-31 49-31 84 0 0 0 0 0 0 0 33 10 61 31 82 21 22 46 32 77 32 32 0 58-11 78-32 20-21 30-49 31-83 0 0 0 0 0 0 0-34-10-62-31-84zm104 188c-18 32-44 58-77 76-33 19-68 28-106 28-52 0-98-18-138-54-45-41-68-93-68-155 0 0 0 0 0-1 0-58 20-107 60-148 40-41 89-61 146-61 39 0 74 9 106 28 32 18 58 44 76 76 19 33 28 68 28 105 0 37-9 72-28 104zM2522 795c-21-22-47-33-78-33-31 0-57 11-77 32-20 21-31 49-31 84 0 0 0 0 0 0h0c0 33 10 61 31 82 21 22 46 32 77 32 32 0 58-11 78-32 20-21 30-49 31-83 0 0 0 0 0 0 0-34-10-62-31-84zm131 417h-100v-156c-2 1-3 2-5 3-33 19-68 28-106 28-52 0-98-18-138-54-45-41-68-93-68-155h0c0 0 0 0 0-1 0-58 20-107 60-148 40-41 89-61 146-61 39 0 74 9 106 28 32 18 58 44 76 76 16 29 25 59 28 91v0c0 5 0 9 0 14 0 4 0 9 0 13zm296-329c0-1 0-2 0-4 0-35-2-59-6-70-6-15-14-27-26-35-12-8-26-12-42-12-17 0-31 4-42 12-11 8-20 19-25 34-5 14-7 37-8 71 0 2 0 5 0 7v191h-101V911c0-12 0-22 0-33 1-46 5-79 11-99 11-35 30-62 57-81 27-19 62-29 106-29 40 0 73 8 99 25 26 17 46 41 59 72 9 22 15 59 16 113 0 10 0 19 0 30v168h-100V882" fill="#3a393a"/><path id="path16" d="m4710 877h0c0-34-10-61-30-82-20-21-46-32-77-32-31 0-56 11-77 32-20 21-31 48-31 82h0c0 0 0 0 0 0 0 34 10 62 30 83 20 21 46 32 77 32 31 0 57-11 77-32 21-21 31-49 31-83 0 0 0 0 0 0zm99 14c-2 32-11 62-27 90-18 32-44 58-75 76-32 18-67 27-105 27-56 0-105-20-145-60-40-40-60-89-60-146 0 0 0 0 0-1h0c0-61 23-112 68-153 40-36 85-54 136-54 37 0 72 9 105 28 2 1 3 2 5 3v-45c0-34-11-61-31-82-20-21-46-32-77-32-30 0-55 10-76 31l-64-69c1-1 1-1 2-2 40-36 85-54 136-54 37 0 72 9 105 28 33 19 58 44 77 76 18 32 28 66 28 103v208c0 4 0 8 0 13h0c0 5 0 9 0 14zm351-17c0-34-10-62-30-83-20-21-46-32-78-32-31 0-57 11-77 32-20 21-31 49-31 82 0 0 0 0 0 0 0 35 10 63 31 84 20 21 46 32 77 32 31 0 57-11 78-33 21-22 31-50 31-84 0 0 0 0 0 0zm73 105c-19 33-44 58-76 77-32 18-68 28-106 28-57 0-106-20-146-61-40-41-60-90-60-148v-1c0-62 23-113 68-155 40-36 86-54 138-54 38 0 73 9 106 28 33 19 59 44 77 76 19 32 28 67 28 104 0 37-9 73-28 105zM3897 1205c-29 0-53-24-53-53 0-29 24-53 53-53 29 0 53 24 53 53 0 29-24 53-53 53zm447-218c-13 31-33 55-59 72-26 17-59 25-99 25-44 0-79-10-106-29-27-19-46-47-57-81-6-20-10-53-11-99 0-10 0-21 0-33V676h101v191c0 2 0 5 0 7 0 33 3 57 8 71 5 14 13 26 25 34 11 8 25 12 42 12 17 0 31-4 42-12 12-8 20-20 26-35 4-11 6-34 6-70 0-1 0-2 0-4V676h100v168c0 11 0 20 0 30-1 53-7 91-16 112zM3677 780c-12 8-20 20-26 35-4 11-6 34-6 70v327h-100V915c0-11 0-20 0-30 1-53 7-91 16-113 13-31 33-55 59-72 26-17 59-25 99-25h77V769h-78c-17 0-31 4-42 12zM3849 676h101v384H3849V676" fill="#3a393a"/><path id="path18" d="m598 1783c163 0 202-217 524-217 203 0 215 84 308 84 38 0 60-73 60-122 0-193-50-409-17-409 42 0 214 111 258 111 42 0 41-33 41-51 0-18 13-338-420-590C1333 577 1242 177 918 177 702 177 537 294 475 574 462 632 0 814 0 1215c0 88 22 136 56 136 85 0 267-143 346-143 68 0 57 148 57 192 0 44-4 382 139 382" fill="#6fc72d"/><path id="path20" d="m1349 1498c-29 0-37-15-47-6-5 5 20 16 20 20 0 2-4 2-9 2-31 0-92-45-100-45-4 0-10-1-10 5 0 13 43 24 13 24-30 0-74-38-120-38-95 0-171 75-171 56 0-7 11-17 18-30 0 0 4-20-4-12-87 87-174 108-174 108 0 0-7 0-7-3 0-10 19-23 19-27 0-4-2-6-6-6-19 0-32 36-106 36-112 0-143-177-143-322 0-206 133-271 242-271 87 0 180 51 219 127l116-9c0 0 57-108 159-108 96 0 179 61 179 271 0 221-58 230-87 230" fill="#86ce26"/><path id="path22" d="m900 1250c0-99-66-180-148-180-82 0-148 81-148 180 0 99 66 180 148 180 82 0 148-81 148-180" fill="#fff"/><path id="path24" d="m1383 1216c-5-87-64-156-132-154-68 2-120 75-115 163 5 87 64 157 132 154 68-2 120-75 115-163" fill="#fff"/><path id="path26" d="m831 1250c0-55-36-99-81-99-45 0-81 44-81 99 0 55 36 99 81 99 45 0 81-44 81-99" fill="#3a393a"/><path id="path28" d="m735 1313c0-23-17-41-38-41-21 0-38 18-38 41 0 23 17 41 38 41 21 0 38-18 38-41" fill="#fff"/><path id="path30" d="m1327 1216c-4-51-38-92-77-90-39 2-67 45-63 96 4 51 38 92 77 90 39-2 67-45 63-96" fill="#3a393a"/><path id="path32" d="m942 1042c0 0-24-199 41-198 65 1 62 97 62 98 0 1-103 100-103 100" fill="#63b831"/><path id="path34" d="m1246 1276c1-21-14-38-33-39-19-1-34 16-35 37-1 21 14 38 33 39 19 1 34-16 35-37" fill="#fff"/><path id="path36" d="m1698 920c-86-125-265-223-294-223-33 0-10 36-34 36-21 0-26-374-409-374-430 0-420 445-462 445-30 0-10-65-43-65-109 0-399 220-447 376C78 783 463 627 475 574 537 294 702 177 918 177c324 0 415 400 434 411 179 104 284 225 346 332" fill="#63b831"/><path id="path38" d="m942 1063c0 0-14-146 57-146 71 0 106 58 106 110 0 52-163 35-163 35" fill="#f28513"/><path id="path40" d="m1048 1149c52 0 90-60 90-119 0-59-48-120-64-120-16 0-133 109-133 155 0 46 45 83 107 83" fill="#fabd09"/><path id="path42" d="m1080 1112c-1-10-16-18-35-17-19 1-34 10-33 21 1 10 16 18 35 17 19-1 34-10 33-21" fill="#fdf6a8"/><path id="path44" d="m854 123c55 3 95-9 98-59C954 15 887 2 851 0 815-2 775 14 773 50c-2 36 31 70 81 73" fill="#d67c19"/><path id="path46" d="m1194 225c53 3 54-55 54-59 0-4 6-60-87-64-58-3-57 23-57 36-1 13 23 84 90 87" fill="#d67c19"/></g></g></svg>
