<?xml version="1.0" encoding="UTF-8" standalone="no"?>
<svg
   xmlns:dc="http://purl.org/dc/elements/1.1/"
   xmlns:cc="http://creativecommons.org/ns#"
   xmlns:rdf="http://www.w3.org/1999/02/22-rdf-syntax-ns#"
   xmlns:svg="http://www.w3.org/2000/svg"
   xmlns="http://www.w3.org/2000/svg"
   viewBox="0 0 701.46667 237.73334"
   height="237.73334"
   width="701.46667"
   xml:space="preserve"
   id="svg2"
   version="1.1"><metadata
     id="metadata8"><rdf:RDF><cc:Work
         rdf:about=""><dc:format>image/svg+xml</dc:format><dc:type
           rdf:resource="http://purl.org/dc/dcmitype/StillImage" /></cc:Work></rdf:RDF></metadata><defs
     id="defs6" /><g
     transform="matrix(1.3333333,0,0,-1.3333333,0,237.73333)"
     id="g10"><g
       transform="scale(0.1)"
       id="g12"><path
         id="path14"
         style="fill:#3a393a;fill-opacity:1;fill-rule:nonzero;stroke:none"
         d="m 3370.09,794.523 c -20.76,-21.671 -46.71,-32.535 -77.95,-32.535 -31.23,0 -57.03,10.774 -77.41,32.153 -20.34,21.457 -30.55,49.453 -30.55,84.043 0,0.125 0.03,0.23 0.03,0.351 0.09,33.445 10.4,60.91 30.93,82.363 20.59,21.563 46.37,32.336 77.35,32.336 31.72,0 57.76,-10.664 78.12,-31.957 20.29,-21.234 30.45,-48.804 30.56,-82.742 0,-0.121 0.02,-0.226 0.02,-0.351 0,-34.122 -10.35,-61.961 -31.1,-83.661 z m 103.76,188.145 c -18.48,32.112 -44.24,57.562 -77.24,76.312 -33.01,18.73 -68.26,28.14 -105.75,28.14 -51.86,0 -97.75,-18.03 -137.7,-54.08 -45.35,-41.216 -68.08,-92.716 -68.28,-154.505 0,-0.226 -0.02,-0.476 -0.02,-0.715 0,-57.957 20.19,-107.218 60.46,-147.73 40.28,-40.57 88.93,-60.828 145.9,-60.828 38.74,0 74.14,9.179 106.3,27.57 32.15,18.348 57.56,43.906 76.13,76.488 18.66,32.649 27.98,67.676 27.98,105.215 0,37.266 -9.26,71.981 -27.78,104.133 z M 2522.31,794.523 c -20.76,-21.671 -46.73,-32.535 -77.95,-32.535 -31.24,0 -57.03,10.774 -77.4,32.153 -20.35,21.457 -30.54,49.453 -30.54,84.043 0,0.125 0.01,0.23 0.01,0.351 h -0.03 c 0.09,33.445 10.33,60.91 30.91,82.363 20.58,21.563 46.41,32.336 77.37,32.336 31.71,0 57.75,-10.664 78.12,-31.957 20.27,-21.234 30.45,-48.804 30.53,-82.742 0,-0.121 0.06,-0.226 0.06,-0.351 0,-34.122 -10.37,-61.961 -31.08,-83.661 z m 131.1,417.027 h -99.72 v -155.78 c -1.69,1 -3.16,2.23 -4.89,3.21 -33.01,18.73 -68.25,28.14 -105.76,28.14 -51.86,0 -97.78,-18.03 -137.71,-54.08 -45.38,-41.216 -68.09,-92.716 -68.29,-154.505 h 0.06 c 0,-0.226 -0.02,-0.476 -0.02,-0.715 0,-57.957 20.13,-107.218 60.42,-147.73 40.32,-40.57 88.97,-60.828 145.91,-60.828 38.74,0 74.16,9.179 106.3,27.57 32.14,18.348 57.56,43.906 76.18,76.488 16.29,28.586 25.47,58.977 27.52,91.246 v 0.051 c 0.27,4.613 0.41,9.258 0.41,13.918 0,4.352 -0.14,8.637 -0.41,12.899 z m 296.4,-329.351 c 0,-1.269 -0.02,-2.414 -0.02,-3.664 -0.17,-35.367 -2.24,-58.719 -6.22,-69.742 -5.6,-15.332 -14.23,-26.961 -25.83,-34.914 -11.57,-7.899 -25.7,-11.891 -42.27,-11.891 -16.61,0 -30.57,4.032 -41.9,12.082 -11.39,8.059 -19.61,19.289 -24.73,33.801 -4.83,13.535 -7.34,37.219 -7.63,70.664 -0.02,2.317 -0.07,4.527 -0.07,6.934 v 191.411 h -100.8 V 911.406 c 0,-11.691 0.16,-22.492 0.44,-32.871 1.16,-45.906 4.89,-78.933 11.26,-98.613 10.91,-34.84 29.87,-61.953 56.76,-81.461 26.91,-19.481 62.15,-29.199 105.75,-29.199 40.18,0 73.33,8.32 99.36,25 26.03,16.66 45.76,40.609 59.16,71.758 9.27,21.695 14.62,59.324 16.02,112.515 0.24,9.539 0.44,19.395 0.44,29.961 v 168.384 h -99.72 V 882.199" /><path
         id="path16"
         style="fill:#3a393a;fill-opacity:1;fill-rule:nonzero;stroke:none"
         d="m 4710.33,876.832 h -0.04 c -0.05,-33.637 -10.13,-60.953 -30.23,-81.988 -20.22,-21.114 -45.98,-31.664 -77.43,-31.664 -30.73,0 -56.25,10.672 -76.7,32.027 -20.35,21.238 -30.53,48.477 -30.61,81.625 h 0.01 c 0,0.129 -0.01,0.219 -0.01,0.363 0,34.258 10.1,62 30.31,83.266 20.15,21.23 45.75,31.863 76.69,31.863 30.9,0 56.66,-10.738 77.21,-32.234 20.55,-21.488 30.84,-49.106 30.84,-82.895 0,-0.144 -0.04,-0.234 -0.04,-0.363 z m 99.16,13.84 c -2.04,31.98 -11.13,62.101 -27.29,90.43 -18.43,32.308 -43.59,57.598 -75.47,75.788 -31.84,18.23 -66.96,27.36 -105.33,27.36 -56.48,0 -104.67,-20.07 -144.6,-60.28 -39.96,-40.165 -59.93,-88.978 -59.93,-146.423 0,-0.227 0.01,-0.477 0.01,-0.715 h -0.01 c 0.18,-61.234 22.71,-112.262 67.66,-153.121 39.58,-35.723 85.09,-53.563 136.45,-53.563 37.2,0 72.11,9.274 104.8,27.864 1.72,0.976 3.18,2.168 4.87,3.179 v -45.14 c -0.08,-33.641 -10.9,-61.129 -31,-82.192 -20.2,-21.097 -46.03,-31.64 -77.41,-31.64 -30.15,0 -55.36,10.34 -75.57,30.953 l -64.2,-68.774 c 0.6,-0.527 1.07,-1.136 1.64,-1.668 39.58,-35.73 85.1,-53.57 136.46,-53.57 37.21,0 72.17,9.281 104.84,27.879 32.68,18.563 58.18,43.813 76.57,75.652 18.33,31.86 27.51,66.239 27.51,103.18 v 208.184 c 0.23,4.218 0.38,8.465 0.38,12.777 h 0.04 c 0,4.629 -0.13,9.234 -0.42,13.785 z m 351.04,-16.582 c -0.07,-33.973 -10.22,-61.531 -30.49,-82.77 -20.38,-21.289 -46.44,-31.91 -78.13,-31.91 -30.94,0 -56.77,10.738 -77.4,32.301 -20.48,21.434 -30.81,48.918 -30.88,82.379 0,0.098 -0.02,0.203 -0.02,0.34 0,34.562 10.2,62.574 30.57,84.023 20.39,21.426 46.15,32.113 77.38,32.113 31.24,0 57.2,-10.824 77.93,-32.504 20.72,-21.656 31.14,-49.539 31.14,-83.632 0,-0.137 -0.1,-0.242 -0.1,-0.34 z m 72.54,105.176 c -18.66,32.614 -44.02,58.124 -76.14,76.504 -32.14,18.39 -67.58,27.57 -106.29,27.57 -56.98,0 -105.62,-20.23 -145.91,-60.81 -40.34,-40.518 -60.48,-89.796 -60.48,-147.749 v -0.691 c 0.2,-61.813 22.96,-113.301 68.32,-154.551 39.9,-36.039 85.84,-54.059 137.66,-54.059 37.52,0 72.81,9.391 105.84,28.122 32.95,18.789 58.66,44.238 77.2,76.367 18.52,32.133 27.77,66.828 27.77,104.121 0,37.48 -9.31,72.531 -27.97,105.176 z M 3896.79,1204.74 c -29.47,0 -53.36,-23.92 -53.36,-53.38 0,-29.44 23.89,-53.34 53.36,-53.34 29.47,0 53.38,23.9 53.38,53.34 0,29.46 -23.91,53.38 -53.38,53.38 z m 447.35,-218.185 c -13.43,31.205 -33.12,55.105 -59.16,71.785 -26.08,16.68 -59.18,25 -99.37,25 -43.6,0 -78.83,-9.72 -105.71,-29.2 -26.93,-19.48 -45.88,-46.64 -56.83,-81.484 -6.35,-19.656 -10.1,-52.668 -11.25,-98.566 -0.28,-10.406 -0.43,-21.207 -0.43,-32.899 V 675.719 h 100.77 v 191.437 c 0,2.371 0.07,4.594 0.07,6.934 0.35,33.445 2.85,57.109 7.63,70.656 5.14,14.461 13.41,25.75 24.74,33.781 11.35,8.028 25.29,12.039 41.92,12.039 16.63,0 30.71,-3.914 42.28,-11.855 11.61,-7.934 20.19,-19.563 25.83,-34.875 4,-11.066 6.04,-34.402 6.2,-69.746 0,-1.254 0.05,-2.383 0.05,-3.703 V 675.719 h 99.7 v 168.422 c 0,10.539 -0.15,20.386 -0.43,29.949 -1.41,53.152 -6.73,90.801 -16.01,112.465 z M 3676.69,780.371 c -11.61,7.91 -20.22,19.524 -25.8,34.863 -4.04,11.067 -6.06,34.422 -6.24,69.762 v 326.644 h -99.72 V 914.957 c 0,-10.539 0.15,-20.387 0.45,-29.961 1.39,-53.187 6.68,-90.805 16.01,-112.508 13.4,-31.156 33.13,-55.078 59.13,-71.769 26.05,-16.68 59.2,-25 99.34,-25 h 77 V 768.5 h -77.88 c -16.61,0 -30.72,3.941 -42.29,11.871 z M 3849.32,676.32 h 100.85 v 384.31 H 3849.32 V 676.32" /><path
         id="path18"
         style="fill:#6fc72d;fill-opacity:1;fill-rule:nonzero;stroke:none"
         d="m 598.172,1783.01 c 163.238,0 202.07,-216.9 524.108,-216.9 203.21,0 214.6,84.01 308.26,84.01 38.28,0 60.05,-73.28 60.05,-122.14 0,-193.1 -49.57,-408.99 -17.37,-408.99 42.2,0 213.57,110.65 257.99,110.65 42.19,0 41.08,-32.76 41.08,-51.08 0,-18.32 12.97,-338.298 -420.11,-590.369 C 1333.3,577.078 1241.5,177.352 917.984,177.352 701.816,177.352 537.465,294.281 474.539,574.121 461.953,631.859 0,813.98 0,1215.23 c 0,88.1 22.2109,136.22 56.2656,136.22 85.1324,0 267.2504,-142.88 345.7224,-142.88 67.926,0 57.004,148.06 57.004,192.48 0,44.42 -3.703,381.96 139.18,381.96" /><path
         id="path20"
         style="fill:#86ce26;fill-opacity:1;fill-rule:nonzero;stroke:none"
         d="m 1349.37,1498.23 c -29.42,0 -36.54,-15.18 -46.98,-5.69 -4.75,4.75 20.4,15.66 20.4,20.41 0,2.37 -3.79,1.9 -9.01,1.9 -30.85,0 -91.61,-45.09 -100.15,-45.09 -3.8,0 -9.97,-0.95 -9.97,4.75 0,12.81 43.19,23.72 13.29,23.72 -29.9,0 -74.04,-38.44 -120.08,-38.44 -94.92,0 -171.335,74.52 -171.335,56.01 0,-6.65 10.918,-17.09 18.035,-30.38 0,0 4.274,-19.93 -3.797,-12.34 -87.093,87.1 -174.183,108.22 -174.183,108.22 0,0 -6.649,0 -6.649,-2.85 0,-9.97 18.989,-23.26 18.989,-27.06 0,-3.79 -2.375,-6.17 -6.172,-6.17 -18.512,0 -31.801,35.6 -106.317,35.6 -112.484,0 -143.468,-177.03 -143.468,-322.27 0,-205.98 132.554,-271.433 242.191,-271.433 86.957,0 180.047,51.263 219.008,126.523 l 115.718,-8.82 c 0,0 56.72,-107.508 158.77,-107.508 95.75,0 179.04,60.598 179.04,270.738 0,220.69 -57.9,230.18 -87.33,230.18" /><path
         id="path22"
         style="fill:#ffffff;fill-opacity:1;fill-rule:nonzero;stroke:none"
         d="m 900.383,1249.92 c 0,-99.42 -66.289,-180.03 -148.063,-180.03 -81.773,0 -148.062,80.61 -148.062,180.03 0,99.42 66.289,180.02 148.062,180.02 81.774,0 148.063,-80.6 148.063,-180.02" /><path
         id="path24"
         style="fill:#ffffff;fill-opacity:1;fill-rule:nonzero;stroke:none"
         d="m 1382.54,1215.93 c -4.69,-87.45 -63.82,-156.49 -132.08,-154.19 -68.26,2.3 -119.79,75.06 -115.1,162.51 4.68,87.46 63.81,156.5 132.07,154.2 68.26,-2.3 119.79,-75.06 115.11,-162.52" /><path
         id="path26"
         style="fill:#3a393a;fill-opacity:1;fill-rule:nonzero;stroke:none"
         d="m 830.609,1249.92 c 0,-54.62 -36.418,-98.89 -81.336,-98.89 -44.921,0 -81.335,44.27 -81.335,98.89 0,54.62 36.414,98.89 81.335,98.89 44.918,0 81.336,-44.27 81.336,-98.89" /><path
         id="path28"
         style="fill:#ffffff;fill-opacity:1;fill-rule:nonzero;stroke:none"
         d="m 734.648,1312.65 c 0,-22.73 -17.054,-41.16 -38.093,-41.16 -21.039,0 -38.098,18.43 -38.098,41.16 0,22.74 17.059,41.17 38.098,41.17 21.039,0 38.093,-18.43 38.093,-41.17" /><path
         id="path30"
         style="fill:#3a393a;fill-opacity:1;fill-rule:nonzero;stroke:none"
         d="m 1326.76,1215.96 c -3.72,-51.42 -38.08,-91.6 -76.75,-89.75 -38.67,1.85 -67,45.03 -63.28,96.45 3.71,51.41 38.07,91.59 76.74,89.75 38.67,-1.86 67.01,-45.03 63.29,-96.45" /><path
         id="path32"
         style="fill:#63b831;fill-opacity:1;fill-rule:nonzero;stroke:none"
         d="m 941.559,1042.41 c 0,0 -23.782,-199.047 41.347,-197.672 65.124,1.375 62.354,96.75 61.944,97.895 -0.41,1.14 -103.291,99.777 -103.291,99.777" /><path
         id="path34"
         style="fill:#ffffff;fill-opacity:1;fill-rule:nonzero;stroke:none"
         d="m 1246.02,1275.83 c 0.67,-20.97 -13.95,-38.43 -32.64,-39 -18.7,-0.58 -34.39,15.95 -35.05,36.91 -0.66,20.97 13.95,38.43 32.65,39 18.69,0.58 34.38,-15.95 35.04,-36.91" /><path
         id="path36"
         style="fill:#63b831;fill-opacity:1;fill-rule:nonzero;stroke:none"
         d="m 1698.37,920.297 c -85.55,-124.817 -264.62,-223.285 -294,-223.285 -33.31,0 -10.36,35.539 -34.05,35.539 -21.47,0 -25.91,-373.821 -408.656,-373.821 -430.121,0 -420.496,444.887 -461.953,444.887 -30.356,0 -10.363,-65.148 -42.938,-65.148 -108.796,0 -398.5503,219.886 -446.7027,376.121 C 77.6328,782.98 463.059,626.801 474.539,574.121 537.465,294.281 701.816,177.352 917.984,177.352 c 323.516,0 415.316,399.726 434.196,410.839 178.76,104.039 284.1,224.832 346.19,332.106" /><path
         id="path38"
         style="fill:#f28513;fill-opacity:1;fill-rule:nonzero;stroke:none"
         d="m 941.57,1062.75 c 0,0 -14,-145.547 56.86,-145.547 70.86,0 106.08,58.133 106.08,110.327 0,52.19 -162.94,35.22 -162.94,35.22" /><path
         id="path40"
         style="fill:#fabd09;fill-opacity:1;fill-rule:nonzero;stroke:none"
         d="m 1048.08,1148.88 c 51.55,0 90.38,-59.83 90.38,-119.02 0,-59.192 -48.38,-119.657 -64.29,-119.657 -15.91,0 -133.022,108.837 -133.022,155.297 0,46.47 44.551,83.38 106.932,83.38" /><path
         id="path42"
         style="fill:#fdf6a8;fill-opacity:1;fill-rule:nonzero;stroke:none"
         d="m 1080.47,1112.3 c -0.56,-10.3 -16.33,-17.8 -35.21,-16.75 -18.88,1.04 -33.73,10.24 -33.16,20.53 0.57,10.3 16.34,17.8 35.22,16.75 18.88,-1.04 33.72,-10.24 33.15,-20.53" /><path
         id="path44"
         style="fill:#d67c19;fill-opacity:1;fill-rule:nonzero;stroke:none"
         d="m 854.094,123.289 c 55.347,2.902 95.07,-8.891 97.676,-58.5781 C 954.375,15.0195 886.941,2.03125 851.09,0.148438 815.242,-1.73047 774.66,14.4297 772.777,50.2812 c -1.879,35.8477 31.313,70.3908 81.317,73.0078" /><path
         id="path46"
         style="fill:#d67c19;fill-opacity:1;fill-rule:nonzero;stroke:none"
         d="m 1194.16,224.898 c 52.83,2.774 53.95,-54.57 54.18,-58.968 0.23,-4.399 5.65,-59.621 -86.81,-64.469 -58.5,-3.0704 -56.72,23.199 -57.4,36.09 -0.67,12.898 23.04,83.828 90.03,87.347" /></g></g></svg>