<?xml version="1.0" encoding="utf-8"?>
<!-- Generator: Adobe Illustrator 15.1.0, SVG Export Plug-In . SVG Version: 6.00 Build 0)  -->
<!DOCTYPE svg PUBLIC "-//W3C//DTD SVG 1.1//EN" "http://www.w3.org/Graphics/SVG/1.1/DTD/svg11.dtd">
<svg version="1.1" id="Layer_1" xmlns="http://www.w3.org/2000/svg" xmlns:xlink="http://www.w3.org/1999/xlink" x="0px" y="0px"
	 width="1000px" height="600px" viewBox="0 0 1000 600" enable-background="new 0 0 1000 600" xml:space="preserve">
<path fill-rule="evenodd" clip-rule="evenodd" fill="#190054" d="M225.718,351.705c-16.996,17.411-38.246,26.771-64.176,26.771
	c-49.722,0-58.645-33.141-58.645-83.734l139.401-0.851c0.851-6.796,1.276-17.411,1.276-22.941c0-48.02-22.101-87.127-80.756-87.127
	c-29.748,0-50.147,10.2-63.75,25.504C79.945,230.576,74,264.153,74,298.581c0,40.798,8.072,66.302,25.494,83.298
	c14.454,14.028,34.002,21.25,61.633,21.25c34.417,0,58.22-11.061,80.746-33.576L225.718,351.705L225.718,351.705z M104.173,271.8
	c2.978-37.821,16.145-64.175,58.645-64.175c42.075,0,52.274,25.504,51.849,63.75L104.173,271.8L104.173,271.8z M291.595,188.502
	l65.452,101.145l-71.397,109.228h32.3l57.369-89.67l56.528,89.67h32.726l-70.121-109.228l64.59-101.145h-32.29l-51.008,82.873
	l-51.423-82.873H291.595L291.595,188.502z M526.642,188.502v313.655h27.601V370.403c14.443,24.653,39.512,32.726,63.334,32.726
	c23.782,0,41.629-7.657,54.827-20.399c21.665-20.835,28.887-56.964,28.887-93.083c0-31.45-5.521-63.325-23.782-84.575
	c-11.081-12.752-26.77-21.25-49.307-21.25c-32.746,0-62.048,17.847-74.375,48.456l-0.414-43.776H526.642L526.642,188.502z
	 M623.097,208.476c33.991,0,48.435,26.77,48.435,82.883c0,59.911-16.56,87.532-56.943,87.532c-22.536,0-36.107-7.637-46.732-21.25
	c-10.625-13.593-14.443-31.875-14.443-53.976c0-25.068,5.104-50.988,22.08-71.387C587.403,217.399,603.963,208.476,623.097,208.476
	L623.097,208.476L623.097,208.476z M776.951,188.502v210.373h27.601V188.502H776.951L776.951,188.502z M771.847,117.945
	c0,11.05,8.093,19.133,18.718,19.133c11.041,0,19.549-8.083,19.549-19.133c0-10.625-8.094-19.123-19.133-19.123
	C779.483,98.822,771.847,106.895,771.847,117.945L771.847,117.945L771.847,117.945z M890.838,188.502v210.373h27.643V188.502
	H890.838L890.838,188.502z M885.733,117.945c0,11.05,8.093,19.133,18.718,19.133c11.041,0,19.549-8.083,19.549-19.133
	c0-10.625-8.094-19.123-19.133-19.123C893.412,98.822,885.733,106.895,885.733,117.945L885.733,117.945L885.733,117.945z
	 M885.733,117.945"/>
</svg>
