<?xml version="1.0" encoding="UTF-8" standalone="no"?>
<svg width="990px" height="325px" viewBox="0 0 990 325" version="1.1" xmlns="http://www.w3.org/2000/svg" xmlns:xlink="http://www.w3.org/1999/xlink" xmlns:sketch="http://www.bohemiancoding.com/sketch/ns">
    <!-- Generator: Sketch 3.4.2 (15855) - http://www.bohemiancoding.com/sketch -->
    <title>Artboard 1</title>
    <desc>Created with Sketch.</desc>
    <defs></defs>
    <g id="Page-1" stroke="none" stroke-width="1" fill="none" fill-rule="evenodd" sketch:type="MSPage">
        <g id="Artboard-1" sketch:type="MSArtboardGroup">
            <g id="google-2015" sketch:type="MSLayerGroup">
                <path d="M243.567,115.086 L127.125,115.086 L127.125,149.343 L209.998,149.343 C205.954,197.379 165.988,217.865 128.264,217.865 C79.999,217.865 37.883,179.89 37.883,126.664 C37.883,74.814 78.031,34.882 128.37,34.882 C167.207,34.882 190.093,59.64 190.093,59.64 L214.078,34.802 C214.078,34.802 183.292,0.529 127.144,0.529 C55.645,0.528 0.333,60.872 0.333,126.052 C0.333,189.921 52.364,252.2 128.966,252.2 C196.339,252.2 245.656,206.047 245.656,137.798 C245.656,123.399 243.565,115.077 243.565,115.077 L243.567,115.086" id="Fill-1" fill="#5373AA" sketch:type="MSShapeGroup"></path>
                <path d="M342.134,90.278 C294.764,90.278 260.817,127.311 260.817,170.502 C260.817,214.332 293.744,252.053 342.69,252.053 C386.999,252.053 423.3,218.187 423.3,171.444 C423.3,117.869 381.074,90.278 342.134,90.278 L342.134,90.278 Z M342.605,122.05 C365.899,122.05 387.973,140.883 387.973,171.23 C387.973,200.933 365.993,220.302 342.498,220.302 C316.682,220.302 296.316,199.626 296.316,170.994 C296.316,142.976 316.429,122.05 342.605,122.05 L342.605,122.05 Z" id="Fill-2" fill="#D84037" sketch:type="MSShapeGroup"></path>
                <path d="M517.985,90.278 C470.616,90.278 436.669,127.311 436.669,170.502 C436.669,214.332 469.596,252.053 518.542,252.053 C562.851,252.053 599.152,218.187 599.152,171.444 C599.152,117.869 556.926,90.278 517.985,90.278 L517.985,90.278 Z M518.457,122.05 C541.751,122.05 563.825,140.883 563.825,171.23 C563.825,200.933 541.845,220.302 518.35,220.302 C492.534,220.302 472.168,199.626 472.168,170.994 C472.168,142.976 492.281,122.05 518.457,122.05 L518.457,122.05 Z" id="Fill-3" fill="#F1B628" sketch:type="MSShapeGroup"></path>
                <path d="M691.451,90.363 C647.971,90.363 613.795,128.444 613.795,171.186 C613.795,219.874 653.417,252.16 690.701,252.16 C713.755,252.16 726.013,243.009 735.063,232.505 L735.063,248.455 C735.063,276.363 718.119,293.074 692.543,293.074 C667.835,293.074 655.442,274.703 651.135,264.278 L620.048,277.274 C631.077,300.593 653.278,324.911 692.8,324.911 C736.03,324.911 768.978,297.682 768.978,240.576 L768.978,93.226 L735.065,93.226 L735.065,108.929 C724.636,97.691 710.376,90.365 691.451,90.365 L691.451,90.363 L691.451,90.363 Z M694.598,122.071 C715.915,122.071 737.804,140.273 737.804,171.358 C737.804,202.953 715.961,220.366 694.126,220.366 C670.947,220.366 649.379,201.545 649.379,171.658 C649.379,140.603 671.779,122.071 694.597,122.071 L694.598,122.071 L694.598,122.071 Z" id="Fill-4" fill="#5373AA" sketch:type="MSShapeGroup"></path>
                <path d="M916.769,90.17 C875.756,90.17 841.32,122.801 841.32,170.951 C841.32,221.9 879.703,252.116 920.709,252.116 C954.932,252.116 975.937,233.393 988.473,216.618 L960.511,198.013 C953.255,209.274 941.124,220.28 920.88,220.28 C898.14,220.28 887.685,207.827 881.207,195.765 L989.667,150.761 L984.036,137.572 C973.559,111.744 949.117,90.175 916.773,90.175 L916.769,90.17 L916.769,90.17 Z M918.182,121.279 C932.961,121.279 943.597,129.136 948.114,138.557 L875.683,168.831 C872.56,145.393 894.765,121.279 918.182,121.279 L918.182,121.279 Z" id="Fill-5" fill="#D84037" sketch:type="MSShapeGroup"></path>
                <path d="M791.612,8.894 L824.834,8.894 L824.834,247.314 L791.612,247.314 L791.612,8.894 Z" id="Fill-6" fill="#309F4F" sketch:type="MSShapeGroup"></path>
            </g>
        </g>
    </g>
</svg>