<?xml version="1.0" encoding="UTF-8" standalone="no"?>
<svg
   xmlns:dc="http://purl.org/dc/elements/1.1/"
   xmlns:cc="http://creativecommons.org/ns#"
   xmlns:rdf="http://www.w3.org/1999/02/22-rdf-syntax-ns#"
   xmlns:svg="http://www.w3.org/2000/svg"
   xmlns="http://www.w3.org/2000/svg"
   viewBox="0 0 645.81335 269.70667"
   height="269.70667"
   width="645.81335"
   xml:space="preserve"
   id="svg2"
   version="1.1"><metadata
     id="metadata8"><rdf:RDF><cc:Work
         rdf:about=""><dc:format>image/svg+xml</dc:format><dc:type
           rdf:resource="http://purl.org/dc/dcmitype/StillImage" /></cc:Work></rdf:RDF></metadata><defs
     id="defs6"><clipPath
       id="clipPath20"
       clipPathUnits="userSpaceOnUse"><path
         id="path18"
         d="M 0,2022.82 V 0 h 4843.61 v 2022.82 z" /></clipPath></defs><g
     transform="matrix(1.3333333,0,0,-1.3333333,0,269.70667)"
     id="g10"><g
       transform="scale(0.1)"
       id="g12"><g
         id="g14"><g
           clip-path="url(#clipPath20)"
           id="g16"><path
             id="path22"
             style="fill:#39b781;fill-opacity:1;fill-rule:nonzero;stroke:none"
             d="M 1657.47,2022.82 H 0 V 1546.83 H 1657.47 Z M 1553.86,1650.37 H 103.605 v 268.86 H 1553.86 v -268.86" /><path
             id="path24"
             style="fill:#211c1d;fill-opacity:1;fill-rule:nonzero;stroke:none"
             d="M 103.605,760.129 H 0 v 475.991 h 103.605 v -188.1 h 185.106 v 188.1 H 392.316 V 760.129 H 288.711 V 957.391 H 103.605 V 760.129" /><path
             id="path26"
             style="fill:#211c1d;fill-opacity:1;fill-rule:nonzero;stroke:none"
             d="m 627.668,752.512 c -105.117,0 -176.703,66.269 -176.703,175.129 0,105.899 70.078,178.999 163.008,178.999 101.304,0 151.582,-67.78 151.582,-169.081 v -38.098 h -216.34 c 12.219,-52.5 53.332,-66.199 94.476,-66.199 35.793,0 61.668,7.59 93.657,27.418 h 3.84 V 782.23 C 713.77,762.398 674.887,752.512 627.668,752.512 M 549.215,968.82 h 123.406 c -2.297,35 -16.746,59.4 -57.137,59.4 -30.472,0 -57.14,-12.97 -66.269,-59.4" /><path
             id="path28"
             style="fill:#211c1d;fill-opacity:1;fill-rule:nonzero;stroke:none"
             d="M 1035.94,959.66 982.613,760.129 H 891.98 L 788.375,1095.24 v 3.81 h 99.039 l 56.352,-200.312 53.328,200.312 h 80.746 l 54.09,-200.312 57.14,200.312 h 95.23 v -3.81 L 1180.69,760.129 h -90.66 l -54.09,199.531" /><path
             id="path30"
             style="fill:#211c1d;fill-opacity:1;fill-rule:nonzero;stroke:none"
             d="m 1452.59,752.512 c -82.26,0 -115.79,32.738 -115.79,109.648 v 373.93 h 100.55 V 869.02 c 0,-23.61 9.13,-31.981 28.93,-31.981 6.87,0 16.79,2.262 22.86,4.563 h 1.54 V 758.59 c -8.37,-3.02 -22.85,-6.078 -38.09,-6.078" /><path
             id="path32"
             style="fill:#211c1d;fill-opacity:1;fill-rule:nonzero;stroke:none"
             d="m 1695.59,752.512 c -105.11,0 -176.7,66.269 -176.7,175.129 0,105.899 70.08,178.999 163.01,178.999 101.3,0 151.58,-67.78 151.58,-169.081 v -38.098 h -216.34 c 12.19,-52.5 53.33,-66.199 94.44,-66.199 35.83,0 61.71,7.59 93.72,27.418 h 3.81 v -78.45 c -27.42,-19.832 -66.26,-29.718 -113.52,-29.718 m -78.45,216.308 h 123.41 c -2.3,35 -16.75,59.4 -57.14,59.4 -30.44,0 -57.14,-12.97 -66.27,-59.4" /><path
             id="path34"
             style="fill:#211c1d;fill-opacity:1;fill-rule:nonzero;stroke:none"
             d="m 2246.32,1099.05 h 74.64 v -80.71 h -74.64 V 880.48 c 0,-29.718 11.43,-43.441 41.9,-43.441 8.37,0 19.05,0.789 30.47,4.602 h 2.27 V 762.43 c -12.94,-4.602 -32.74,-9.879 -61.67,-9.879 -81.54,0 -113.52,37.301 -113.52,123.371 V 1018.34 H 2017.04 V 880.48 c 0,-29.718 11.43,-43.441 41.87,-43.441 8.41,0 19.08,0.789 30.51,4.602 h 2.27 V 762.43 c -12.94,-4.602 -32.78,-9.879 -61.67,-9.879 -81.54,0 -113.53,37.301 -113.53,123.371 v 142.418 h -51.81 v 80.71 h 51.81 v 92.9 h 100.55 v -92.9 h 128.73 v 92.9 h 100.55 v -92.9" /><path
             id="path36"
             style="fill:#211c1d;fill-opacity:1;fill-rule:nonzero;stroke:none"
             d="m 2842.59,1074.66 c 0,-103.609 -69.32,-159.93 -174.47,-159.93 h -73.88 V 760.129 H 2490.7 v 475.991 h 177.42 c 105.15,0 174.47,-56.35 174.47,-161.46 m -182.84,-72.35 c 52.61,0 77.7,29.69 77.7,72.35 0,44.2 -25.09,73.88 -77.7,73.88 h -65.51 v -146.23 h 65.51" /><path
             id="path38"
             style="fill:#211c1d;fill-opacity:1;fill-rule:nonzero;stroke:none"
             d="m 3066.52,793.629 c -22.1,-26.668 -54.81,-39.609 -89.91,-39.609 -66.24,0 -120.36,40.332 -120.36,111.98 0,66.238 54.12,110.398 131.78,110.398 24.37,0 49.56,-3.808 75.43,-11.386 v 6.039 c 0,36.579 -20.55,52.539 -74.61,52.539 -34.31,0 -67.05,-9.85 -95.26,-25.871 h -3.78 v 80.741 c 25.88,15.21 71.62,28.18 116.51,28.18 102.1,0 157.69,-48.73 157.69,-134.05 V 760.129 h -97.49 v 33.5 m -3.06,73.133 v 28.929 c -15.23,8.34 -35,11.387 -55.59,11.387 -32.74,0 -52.54,-12.148 -52.54,-39.566 0,-28.211 19.8,-40.391 49.48,-40.391 28.18,0 49.52,14.481 58.65,39.641" /><path
             id="path40"
             style="fill:#211c1d;fill-opacity:1;fill-rule:nonzero;stroke:none"
             d="m 3215.04,929.18 c 0,108.93 76.97,177.46 177.52,177.46 35.8,0 69.29,-7.62 94.45,-25.88 v -86.069 h -3.85 c -22.1,16.749 -47.97,26.669 -77.66,26.669 -50.27,0 -88.36,-34.321 -88.36,-92.18 0,-57.86 38.09,-91.391 88.36,-91.391 29.69,0 55.56,9.922 77.66,26.699 h 3.85 v -86.066 c -25.16,-18.293 -58.65,-25.91 -94.45,-25.91 -100.55,0 -177.52,67.75 -177.52,176.668" /><path
             id="path42"
             style="fill:#211c1d;fill-opacity:1;fill-rule:nonzero;stroke:none"
             d="M 3650.74,913.941 V 760.129 h -100.52 v 475.991 h 100.52 V 965.012 l 101.34,134.038 h 114.24 v -3.81 L 3744.46,941.398 3866.32,763.941 v -3.812 h -115.03 l -100.55,153.812" /><path
             id="path44"
             style="fill:#211c1d;fill-opacity:1;fill-rule:nonzero;stroke:none"
             d="m 4094.84,793.629 c -22.1,-26.668 -54.87,-39.609 -89.88,-39.609 -66.3,0 -120.35,40.332 -120.35,111.98 0,66.238 54.05,110.398 131.81,110.398 24.37,0 49.46,-3.808 75.37,-11.386 v 6.039 c 0,36.579 -20.56,52.539 -74.65,52.539 -34.25,0 -67.05,-9.85 -95.23,-25.871 h -3.81 v 80.741 c 25.91,15.21 71.62,28.18 116.55,28.18 102.12,0 157.72,-48.73 157.72,-134.05 V 760.129 h -97.53 v 33.5 m -3.05,73.133 v 28.929 c -15.21,8.34 -35.04,11.387 -55.6,11.387 -32.74,0 -52.54,-12.148 -52.54,-39.566 0,-28.211 19.8,-40.391 49.45,-40.391 28.24,0 49.56,14.481 58.69,39.641" /><path
             id="path46"
             style="fill:#211c1d;fill-opacity:1;fill-rule:nonzero;stroke:none"
             d="m 4361.45,1044.21 c 18.26,37.34 44.96,58.65 82.29,58.65 13.7,0 27.39,-3.05 32.68,-6.11 v -95.95 h -3.78 c -11.43,4.6 -25.12,7.62 -44.17,7.62 -31.22,0 -55.59,-18.291 -64,-53.299 V 760.129 h -100.51 v 338.921 h 97.49 v -54.84" /><path
             id="path48"
             style="fill:#211c1d;fill-opacity:1;fill-rule:nonzero;stroke:none"
             d="m 4746.08,795.141 c -21.31,-27.422 -54.84,-42.629 -100.51,-42.629 -86.86,0 -142.46,79.179 -142.46,176.668 0,97.5 55.6,177.46 142.46,177.46 44.16,0 76.15,-13.73 97.49,-38.85 v 168.3 h 100.55 V 760.129 h -97.53 v 35.012 m -3.02,79.988 v 108.922 c -16.75,24.369 -38.81,35.009 -64,35.009 -44.13,0 -73.85,-32.021 -73.85,-89.88 0,-57.86 29.72,-89.09 73.85,-89.09 25.19,0 47.25,10.68 64,35.039" /><path
             id="path50"
             style="fill:#211c1d;fill-opacity:1;fill-rule:nonzero;stroke:none"
             d="M 0,604.68 H 294.031 V 546.82 H 66.2656 V 401.379 H 272.688 V 344.988 H 66.2656 V 186.578 H 294.031 V 128.719 H 0 V 604.68" /><path
             id="path52"
             style="fill:#211c1d;fill-opacity:1;fill-rule:nonzero;stroke:none"
             d="m 537,470.66 c 75.398,0 117.297,-49.519 117.297,-130.949 V 128.719 H 591.086 V 338.16 c 0,43.41 -22.102,74.641 -70.078,74.641 -39.602,0 -73.129,-25.153 -84.559,-60.91 V 128.719 h -63.211 v 335.082 h 63.211 V 415.07 c 19.805,31.231 53.332,55.59 100.551,55.59" /><path
             id="path54"
             style="fill:#211c1d;fill-opacity:1;fill-rule:nonzero;stroke:none"
             d="M 824.203,463.801 H 910.27 V 409.719 H 824.203 V 229.238 c 0,-38.058 19.801,-51.027 55.594,-51.027 9.883,0 20.558,1.508 28.176,4.559 h 2.297 v -54.051 c -9.129,-3.809 -22.098,-6.86 -39.602,-6.86 -78.484,0 -109.68,35.832 -109.68,101.27 v 186.59 h -57.894 v 54.082 h 57.894 v 89.058 h 63.215 v -89.058" /><path
             id="path56"
             style="fill:#211c1d;fill-opacity:1;fill-rule:nonzero;stroke:none"
             d="m 1115.94,121.859 c -98.29,0 -165.311,65.512 -165.311,170.59 0,105.121 62.461,178.211 153.121,178.211 92.18,0 140.16,-66.262 140.16,-164.48 v -28.961 h -230.07 c 6.86,-67.778 50.31,-100.52 110.47,-100.52 37.34,0 63.97,8.371 93.69,30.473 h 2.29 v -55.633 c -27.42,-21.309 -63.24,-29.68 -104.35,-29.68 m -99.8,207.172 h 166.82 c -2.27,49.489 -26.67,87.547 -78.45,87.547 -47.98,0 -79.24,-35.789 -88.37,-87.547" /><path
             id="path58"
             style="fill:#211c1d;fill-opacity:1;fill-rule:nonzero;stroke:none"
             d="m 1381.76,412.02 c 14.48,35.789 46.5,57.101 83.01,57.101 14.52,0 27.46,-2.262 32.78,-5.32 v -62.422 h -2.27 c -9.16,4.531 -24.4,6.832 -39.63,6.832 -34.25,0 -63.22,-22.832 -73.89,-60.922 v -218.57 h -63.21 v 335.082 h 63.21 V 412.02" /><path
             id="path60"
             style="fill:#211c1d;fill-opacity:1;fill-rule:nonzero;stroke:none"
             d="m 1712.34,470.66 c 99.76,0 153.09,-81.5 153.09,-174.371 0,-92.961 -53.33,-174.43 -153.09,-174.43 -41.15,0 -76.18,21.313 -93.69,44.2 V 0 h -63.24 v 463.801 h 63.24 v -38.063 c 17.51,23.614 52.54,44.922 93.69,44.922 M 1701.67,179 c 62.46,0 99.04,49.48 99.04,117.289 0,66.992 -36.58,117.242 -99.04,117.242 -34.29,0 -66.27,-20.562 -83.02,-53.269 V 231.512 C 1635.4,198.801 1667.38,179 1701.67,179" /><path
             id="path62"
             style="fill:#211c1d;fill-opacity:1;fill-rule:nonzero;stroke:none"
             d="m 2003.32,412.02 c 14.45,35.789 46.46,57.101 83.01,57.101 14.48,0 27.42,-2.262 32.74,-5.32 v -62.422 h -2.26 c -9.13,4.531 -24.37,6.832 -39.61,6.832 -34.28,0 -63.21,-22.832 -73.88,-60.922 v -218.57 h -63.22 v 335.082 h 63.22 V 412.02" /><path
             id="path64"
             style="fill:#211c1d;fill-opacity:1;fill-rule:nonzero;stroke:none"
             d="m 2210.49,599.359 c 22.1,0 40.36,-17.507 40.36,-39.609 0,-22.102 -18.26,-39.602 -40.36,-39.602 -21.31,0 -40.39,17.5 -40.39,39.602 0,22.102 19.08,39.609 40.39,39.609" /><path
             id="path66"
             style="fill:#211c1d;fill-opacity:1;fill-rule:nonzero;stroke:none"
             d="m 2179.26,128.719 h 63.25 v 335.082 h -63.25 z" /><path
             id="path68"
             style="fill:#211c1d;fill-opacity:1;fill-rule:nonzero;stroke:none"
             d="m 2467.98,324.441 c 47.97,-15.211 101.27,-35.011 101.27,-98.98 0,-68.563 -56.35,-103.602 -128.69,-103.602 -44.2,0 -88.37,10.672 -113.52,30.469 v 60.16 h 3.05 c 28.21,-25.867 70.08,-37.297 109.68,-37.297 35.79,0 67.81,13.719 67.81,42.649 0,29.691 -26.63,36.551 -79.24,54.058 -47.22,15.231 -99.76,32.774 -99.76,95.954 0,64.757 53.3,102.808 121.11,102.808 39.6,0 74.64,-8.371 102.81,-27.41 v -60.949 h -2.26 c -27.39,22.097 -59.44,35.07 -99.04,35.07 -39.61,0 -61.71,-17.543 -61.71,-41.152 0,-26.66 24.37,-34.25 78.49,-51.778" /><path
             id="path70"
             style="fill:#211c1d;fill-opacity:1;fill-rule:nonzero;stroke:none"
             d="m 2789.4,121.859 c -98.26,0 -165.28,65.512 -165.28,170.59 0,105.121 62.46,178.211 153.09,178.211 92.21,0 140.16,-66.262 140.16,-164.48 v -28.961 h -230.04 c 6.87,-67.778 50.28,-100.52 110.44,-100.52 37.37,0 64,8.371 93.69,30.473 h 2.29 v -55.633 c -27.38,-21.309 -63.21,-29.68 -104.35,-29.68 m -99.77,207.172 h 166.79 c -2.27,49.489 -26.63,87.547 -78.45,87.547 -47.98,0 -79.21,-35.789 -88.34,-87.547" /></g></g></g></g></svg>