<?xml version="1.0" encoding="UTF-8" standalone="no"?>
<svg width="196px" height="58px" viewBox="0 0 196 58" version="1.1" xmlns="http://www.w3.org/2000/svg" xmlns:xlink="http://www.w3.org/1999/xlink" xmlns:sketch="http://www.bohemiancoding.com/sketch/ns">
    <!-- Generator: Sketch 3.4.2 (15855) - http://www.bohemiancoding.com/sketch -->
    <title>Artboard 1</title>
    <desc>Created with Sketch.</desc>
    <defs></defs>
    <g id="Page-1" stroke="none" stroke-width="1" fill="none" fill-rule="evenodd" sketch:type="MSPage">
        <g id="Artboard-1" sketch:type="MSArtboardGroup">
            <g id="lockheed-martin" sketch:type="MSLayerGroup" transform="translate(1.000000, -70.000000)">
                <path d="M0.26,0.677 L193.016,0.677 L193.016,193.433 L0.26,193.433 L0.26,0.677 Z" id="Fill-1" fill="#FFFFFF" sketch:type="MSShapeGroup"></path>
                <path d="M190.181,93.574 L176.456,93.574 C178.258,86.798 179.887,81.051 179.887,81.051 C179.887,81.051 173.711,87.656 168.221,93.574 L113.837,93.574 C113.494,93.574 113.494,93.746 113.837,93.746 C114.008,93.746 167.192,94.69 167.192,94.69 C162.903,99.236 160.587,101.809 160.501,101.895 C160.33,102.067 160.501,102.153 160.673,101.981 C160.759,101.895 163.847,99.065 168.221,94.69 L174.998,94.776 C174.569,96.748 174.226,98.55 173.711,100.694 C165.391,105.155 151.837,112.446 151.837,112.446 C151.666,112.532 151.752,112.704 151.923,112.618 C152.009,112.532 164.619,106.184 173.454,101.724 C171.996,108.329 171.052,112.875 171.052,112.961 C170.966,113.047 171.138,113.132 171.224,112.961 C171.224,112.875 172.51,108.329 174.398,101.295 C182.289,97.263 190.181,93.574 190.181,93.574 L190.181,93.574 Z M169.337,93.574 C173.454,89.543 176.885,86.283 176.885,86.283 C176.885,86.283 176.285,89.114 175.255,93.574 L169.337,93.574 L169.337,93.574 Z M176.113,94.776 L184.348,94.947 C184.348,94.947 180.231,97.177 174.655,100.18 C175.17,98.292 175.599,96.663 176.113,94.776 L176.113,94.776 Z" id="Fill-2" fill="#15458A" sketch:type="MSShapeGroup"></path>
                <path d="M4.381,97.606 L6.783,97.606 L5.84,102.067 L8.07,102.067 L7.727,103.782 L3.094,103.782 L4.381,97.606" id="Fill-3" fill="#5F605E" sketch:type="MSShapeGroup"></path>
                <path d="M16.39,97.521 C18.535,97.521 19.307,98.807 18.878,100.694 C18.449,102.582 17.163,103.868 15.018,103.868 C12.959,103.868 12.187,102.582 12.616,100.694 C12.959,98.807 14.332,97.521 16.39,97.521 L16.39,97.521 Z M15.361,102.324 C15.79,102.324 16.047,102.067 16.39,100.694 C16.648,99.322 16.476,99.065 16.047,99.065 C15.704,99.065 15.361,99.322 15.104,100.694 C14.76,102.067 15.018,102.324 15.361,102.324 L15.361,102.324 Z" id="Fill-4" fill="#5F605E" sketch:type="MSShapeGroup"></path>
                <path d="M29,101.466 C28.657,103.182 27.199,103.868 25.655,103.868 C23.51,103.868 22.824,102.582 23.253,100.694 C23.596,98.721 24.968,97.521 27.027,97.521 C28.571,97.521 29.772,98.121 29.343,99.922 L27.113,99.922 C27.284,99.236 27.027,99.065 26.77,99.065 C26.083,99.065 25.912,99.751 25.74,100.694 C25.483,101.638 25.397,102.324 25.998,102.324 C26.341,102.324 26.598,102.153 26.77,101.466 L29,101.466" id="Fill-5" fill="#5F605E" sketch:type="MSShapeGroup"></path>
                <path d="M35.091,97.606 L37.406,97.606 L36.892,100.265 L38.693,97.606 L41.267,97.606 L39.036,100.523 L40.152,103.782 L37.578,103.782 L36.72,101.038 L36.12,103.782 L33.804,103.782 L35.091,97.606" id="Fill-6" fill="#5F605E" sketch:type="MSShapeGroup"></path>
                <path d="M48.815,101.466 L47.786,101.466 L47.357,103.782 L44.955,103.782 L46.242,97.606 L48.644,97.606 L48.215,99.665 L49.244,99.665 L49.673,97.606 L52.075,97.606 L50.788,103.782 L48.386,103.782 L48.815,101.466" id="Fill-7" fill="#5F605E" sketch:type="MSShapeGroup"></path>
                <path d="M57.565,97.606 L62.197,97.606 L61.854,99.236 L59.538,99.236 L59.366,99.922 L61.511,99.922 L61.168,101.466 L59.023,101.466 L58.852,102.153 L61.253,102.153 L60.91,103.782 L56.192,103.782 L57.565,97.606" id="Fill-8" fill="#5F605E" sketch:type="MSShapeGroup"></path>
                <path d="M67.773,97.606 L72.405,97.606 L72.062,99.236 L69.746,99.236 L69.574,99.922 L71.719,99.922 L71.461,101.466 L69.231,101.466 L69.145,102.153 L71.547,102.153 L71.204,103.782 L66.486,103.782 L67.773,97.606" id="Fill-9" fill="#5F605E" sketch:type="MSShapeGroup"></path>
                <path d="M77.981,97.606 L80.897,97.606 C83.299,97.606 83.814,98.979 83.471,100.78 C83.042,102.582 81.583,103.782 79.696,103.782 L76.694,103.782 L77.981,97.606 L77.981,97.606 Z M79.353,102.324 L79.61,102.324 C80.039,102.324 80.297,102.238 80.468,101.981 C80.726,101.724 80.811,101.295 80.983,100.694 C81.069,100.094 81.154,99.665 80.983,99.408 C80.897,99.15 80.726,99.065 80.297,99.065 L80.125,99.065 L79.353,102.324 L79.353,102.324 Z" id="Fill-10" fill="#5F605E" sketch:type="MSShapeGroup"></path>
                <path d="M99.254,99.408 L99.254,99.408 L97.453,103.782 L95.222,103.782 L95.308,99.408 L94.365,103.782 L92.306,103.782 L93.593,97.606 L96.938,97.606 L96.852,101.295 L98.311,97.606 L101.656,97.606 L100.369,103.782 L98.311,103.782 L99.254,99.408" id="Fill-11" fill="#5F605E" sketch:type="MSShapeGroup"></path>
                <path d="M108.347,97.606 L111.435,97.606 L112.121,103.782 L109.634,103.782 L109.548,102.753 L107.832,102.753 L107.403,103.782 L105.087,103.782 L108.347,97.606 L108.347,97.606 Z M109.548,101.295 L109.548,98.979 L108.518,101.295 L109.548,101.295 L109.548,101.295 Z" id="Fill-12" fill="#5F605E" sketch:type="MSShapeGroup"></path>
                <path d="M118.64,97.606 L122.243,97.606 C123.53,97.606 124.216,98.035 123.959,99.15 C123.787,99.922 123.444,100.437 122.415,100.609 L122.415,100.694 C123.015,100.694 123.273,100.952 123.273,101.466 C123.358,101.981 123.101,102.839 123.187,103.782 L120.871,103.782 C120.785,103.268 120.871,102.496 120.957,101.981 C120.957,101.724 120.785,101.552 120.442,101.552 L120.099,101.552 L119.67,103.782 L117.268,103.782 L118.64,97.606 L118.64,97.606 Z M120.613,100.18 C121.128,100.18 121.471,100.008 121.557,99.579 C121.643,99.15 121.385,99.065 120.871,99.065 L120.699,99.065 L120.442,100.18 L120.613,100.18 L120.613,100.18 Z" id="Fill-13" fill="#5F605E" sketch:type="MSShapeGroup"></path>
                <path d="M130.65,99.322 L129.191,99.322 L129.534,97.606 L134.939,97.606 L134.595,99.322 L133.137,99.322 L132.194,103.782 L129.706,103.782 L130.65,99.322" id="Fill-14" fill="#5F605E" sketch:type="MSShapeGroup"></path>
                <path d="M140.343,97.606 L142.745,97.606 L141.458,103.782 L139.056,103.782 L140.343,97.606" id="Fill-15" fill="#5F605E" sketch:type="MSShapeGroup"></path>
                <path d="M148.492,97.606 L151.409,97.606 L151.923,101.295 L152.781,97.606 L154.668,97.606 L153.381,103.782 L150.465,103.782 L150.036,100.008 L149.95,100.008 L149.178,103.782 L147.205,103.782 L148.492,97.606" id="Fill-16" fill="#5F605E" sketch:type="MSShapeGroup"></path>
            </g>
        </g>
    </g>
</svg>