<svg xmlns:svg="http://www.w3.org/2000/svg" xmlns="http://www.w3.org/2000/svg" viewBox="0 0 437 63" height="63" width="437" xml:space="preserve" version="1"><style>.s0{fill:#05a1e6;}.s1{fill:#7b7979;}</style><defs><clipPath clipPathUnits="userSpaceOnUse"><path d="M0 0H3280V476H0Z"/></clipPath></defs><g transform="matrix(1.3333333,0,0,-1.3333333,0,63.493333)"><g transform="scale(0.1)"><g clip-path="url(#clipPath20)"><path d="m1733 0h-26c-7 0-14 6-14 14V169c0 56-32 112-104 112-68 0-104-59-104-115 0-77 61-112 104-112 24 0 38 3 57 20 7 7 23 3 23-10V39c0-10-6-15-8-16-25-16-42-19-71-19-87 0-157 73-157 162 0 89 71 162 157 162 92 0 156-66 156-160V14c0-7-6-14-14-14M1237 5c-25 0-48 4-69 12-19 8-38 20-56 35-3 3-5 7-5 10 0 2 1 5 2 7l18 21c6 5 13 5 18 1 15-13 29-22 42-28 15-6 32-10 51-10 18 0 32 4 43 12 10 8 15 17 15 29 0 6-1 11-3 16-2 4-5 8-9 11-5 4-12 8-21 11-10 3-22 7-37 10-17 4-33 8-46 13-14 5-25 12-34 19-9 8-16 17-21 27-5 10-7 22-7 36 0 14 3 26 8 37 5 11 13 21 23 29 10 8 21 14 34 19 13 4 27 7 42 7 23 0 43-3 61-10 16-6 31-15 46-26l2-1c3-3 4-6 4-10 0-3-1-6-3-9l-15-20c-6-6-13-6-18-2-13 10-25 17-36 21-13 5-27 7-41 7-17 0-31-4-40-12-9-7-14-16-14-27 0-7 1-12 3-16 2-4 5-8 9-12 5-4 13-8 22-11 10-4 23-7 39-11 35-8 61-19 78-33 18-15 27-35 27-61 0-15-3-28-9-40-6-12-13-22-23-30-10-8-22-14-35-19-13-4-28-6-44-6M916 5c-25 0-48 4-69 12-19 8-38 19-56 35-3 3-5 7-5 10 0 2 1 5 2 7l1 1 17 20c6 5 14 5 19 0 14-12 27-21 41-27 15-6 32-10 51-10 18 0 32 4 43 12 10 8 15 17 15 29 0 6-1 11-3 16-2 4-5 8-9 11-5 4-12 8-21 11-10 3-22 7-37 10-18 4-33 8-46 13-14 5-25 12-34 19-9 8-16 17-21 27-5 10-7 22-7 36 0 14 3 26 8 37 5 11 13 21 23 29 10 8 21 14 34 19 13 4 27 7 42 7 23 0 43-3 61-10 16-6 31-15 46-26l2-1c3-3 4-6 4-10 0-3-1-6-3-8l-15-20c-6-6-13-6-18-2l-1 1c-12 9-24 16-35 20-13 5-27 7-41 7-17 0-31-4-40-12-9-7-14-16-14-27 0-7 1-12 3-16 2-4 5-8 9-12 5-4 13-8 22-11 10-4 23-7 39-11 35-8 61-19 78-33 18-15 27-35 27-61 0-15-3-28-9-40C1012 49 1004 39 995 30 985 22 973 16 959 12 946 7 931 5 916 5M157 5C64 5 0 71 0 166v297c0 8 6 14 14 14h26c7 0 14-6 14-14V166c0-56 32-112 104-112 68 0 104 59 104 115 0 77-61 112-104 112-26 0-41-3-59-19-7-7-23-3-23 10v23c0 8 4 13 8 16 25 16 45 19 73 19 87 0 158-73 158-163 0-90-71-163-158-163" fill="#05a1e6"/><path d="m3266 0h-26C3233 0 3227 6 3227 14V169c0 56-32 112-104 112-68 0-104-59-104-115 0-77 61-112 104-112 25 0 38 3 57 20 8 7 23 3 23-10v-24c0-10-6-14-8-16-25-16-42-19-71-19-87 0-157 73-157 162 0 89 71 162 157 162 92 0 156-66 156-160V14C3280 6 3274 0 3266 0M2126 9h-26c-7 0-13 6-14 13l0 2 0 159c0 33-9 60-26 76-20 20-50 22-62 22-12 0-41-2-62-22-17-16-26-43-26-76l0-161c-1-8-7-13-14-13h-26c-6 0-11 4-13 10l0 2 0 162c0 47 14 85 39 110 26 26 59 38 101 39 42 0 76-13 102-39 26-25 39-63 39-110V23c0-8-6-14-14-14M2779 9h-31c-5 0-10 3-12 8L2613 306c-1 2-1 4-1 5 0 8 6 14 14 14h28c7 0 11-4 13-9l97-232 98 233c2 4 6 8 13 8h28c8 0 14-6 14-14 0-2 0-3-1-5l0 0-123-290c-2-5-7-8-12-8M2399 5c-78 0-161 64-161 167 0 74 52 139 121 157 12 3 23-2 23-14V298c0-8-5-15-13-18-46-14-79-57-79-109 0-56 42-117 109-117 44 0 109 36 109 113 0 60-37 99-79 112-8 2-12 10-12 18v17c0 12 12 18 24 14 69-19 121-84 121-159 0-89-74-164-162-164" fill="#7b7979"/><path d="m560 330c78 0 161-64 161-167C721 89 669 24 600 6 588 3 577 8 577 20v17c0 8 5 15 13 18 46 14 79 57 79 109 0 56-42 117-109 117-44 0-109-36-109-113 0-59 37-99 79-112 8-2 12-10 12-18V21C543 8 531 3 519 6 450 25 398 90 398 165c0 89 74 164 162 164" fill="#05a1e6"/></g></g></g></svg>
