<?xml version="1.0" encoding="UTF-8" standalone="no"?>
<svg
   xmlns:dc="http://purl.org/dc/elements/1.1/"
   xmlns:cc="http://creativecommons.org/ns#"
   xmlns:rdf="http://www.w3.org/1999/02/22-rdf-syntax-ns#"
   xmlns:svg="http://www.w3.org/2000/svg"
   xmlns="http://www.w3.org/2000/svg"
   viewBox="0 0 437.30667 63.493332"
   height="63.493332"
   width="437.30667"
   xml:space="preserve"
   id="svg2"
   version="1.1"><metadata
     id="metadata8"><rdf:RDF><cc:Work
         rdf:about=""><dc:format>image/svg+xml</dc:format><dc:type
           rdf:resource="http://purl.org/dc/dcmitype/StillImage" /></cc:Work></rdf:RDF></metadata><defs
     id="defs6"><clipPath
       id="clipPath20"
       clipPathUnits="userSpaceOnUse"><path
         id="path18"
         d="M 0,0 H 3279.76 V 476 H 0 Z" /></clipPath></defs><g
     transform="matrix(1.3333333,0,0,-1.3333333,0,63.493333)"
     id="g10"><g
       transform="scale(0.1)"
       id="g12"><g
         id="g14"><g
           clip-path="url(#clipPath20)"
           id="g16"><path
             id="path22"
             style="fill:#05a1e6;fill-opacity:1;fill-rule:nonzero;stroke:none"
             d="m 1733.03,0.0234375 h -25.63 c -7.48,0 -13.56,6.0546825 -13.56,13.5273625 V 168.816 c 0,55.586 -32.16,111.707 -104.03,111.707 -67.55,0 -104.03,-59.23 -104.03,-114.918 0,-77.0347 60.84,-111.6909 104.03,-111.6909 24.19,0 38.14,2.8906 57.09,19.9297 7.32,6.6484 22.88,3.2265 22.88,-9.9063 V 39.3008 c 0,-9.6719 -6.41,-14.5039 -8.36,-15.7305 -24.75,-15.92968 -41.93,-18.6328 -71.07,-18.6328 -86.75,0 -157.28,72.8125 -157.28,162.3085 0,89.442 70.53,162.223 157.28,162.223 91.99,0 156.23,-65.832 156.23,-160.074 V 13.5508 c 0,-7.47268 -6.07,-13.5273625 -13.55,-13.5273625" /><path
             id="path24"
             style="fill:#05a1e6;fill-opacity:1;fill-rule:nonzero;stroke:none"
             d="m 1237.11,5.14844 c -24.91,0 -48.05,4.16015 -68.86,12.35546 -19.47,7.7578 -38.37,19.5352 -56.2,35.0508 -3.1,3.1406 -4.52,6.5312 -4.52,10.1797 0,2.3828 0.64,4.7304 1.87,6.8125 l 17.76,21.2226 c 6.27,5.3282 12.98,4.7383 17.76,1.0391 14.7,-12.7891 28.61,-21.9102 42.3,-27.918 14.61,-6.414 31.82,-9.6718 51.19,-9.6718 17.89,0 32.22,4.1289 42.56,12.2851 9.77,7.6875 14.51,17.1797 14.51,29.0469 0,6.3942 -0.91,11.4802 -2.71,15.8632 -1.65,3.973 -4.74,7.781 -9.11,11.285 -4.92,3.906 -12.01,7.578 -21.08,10.93 -9.61,3.48 -22.18,6.973 -37.43,10.277 -17.34,3.711 -32.83,8.141 -46,13.156 -13.64,5.239 -25.11,11.618 -34.07,19.051 -9.34,7.688 -16.43,16.903 -21,27.364 -4.52,10.226 -6.76,22.261 -6.76,35.711 0,13.91 2.74,26.23 8.18,37.382 5.39,11.094 13.12,20.836 22.98,28.942 9.59,7.894 21.03,14.187 33.98,18.656 12.87,4.469 27.1,6.727 42.33,6.727 22.88,0 43.29,-3.274 60.6,-9.77 15.79,-5.914 31.45,-14.711 46.48,-26.152 l 1.57,-1.285 c 2.67,-2.79 4.09,-6.141 4.09,-9.645 0,-3.027 -1.07,-5.984 -3.09,-8.512 l -14.89,-19.719 c -5.69,-5.578 -12.97,-6.117 -18.41,-2.011 -12.77,9.883 -24.66,16.652 -36.32,20.851 -12.98,4.762 -26.74,7.149 -40.93,7.149 -17.26,0 -30.89,-3.977 -40.48,-11.754 -9.13,-7.426 -13.61,-16.246 -13.61,-26.985 0,-6.726 0.91,-11.91 2.73,-16.285 1.61,-3.953 4.83,-7.855 9.48,-11.539 5.26,-4.074 12.7,-7.883 22.11,-11.3 9.98,-3.676 23.17,-7.18 39.17,-10.508 34.7,-7.711 60.83,-18.68 77.64,-32.649 18,-14.894 27.07,-35.394 27.07,-60.9607 0,-14.9844 -2.86,-28.0781 -8.53,-39.7109 -5.63,-11.5469 -13.47,-21.5469 -23.33,-29.7735 -9.78,-8.1406 -21.65,-14.4726 -35.24,-18.7734 -13.33,-4.26562 -28.07,-6.41406 -43.79,-6.41406" /><path
             id="path26"
             style="fill:#05a1e6;fill-opacity:1;fill-rule:nonzero;stroke:none"
             d="m 915.523,5.14844 c -24.906,0 -48.078,4.16015 -68.882,12.35546 -19.446,7.7109 -38.348,19.4883 -56.203,35.0508 -3.09,3.1172 -4.54,6.5156 -4.54,10.1797 0,2.3594 0.664,4.7617 1.942,6.9492 l 0.972,1.4336 16.762,19.6758 c 5.961,5.0117 14.09,4.6679 18.981,-0.0938 13.535,-11.7539 27.41,-20.8515 41.019,-26.8086 14.645,-6.414 31.852,-9.6718 51.219,-9.6718 17.91,0 32.238,4.1289 42.566,12.2851 9.77,7.7109 14.516,17.1992 14.516,29.0469 0,6.4412 -0.926,11.4962 -2.687,15.8162 -1.688,4.035 -4.762,7.852 -9.137,11.332 -4.891,3.906 -11.989,7.555 -21.117,10.93 -9.575,3.48 -22.153,6.973 -37.399,10.277 -17.523,3.782 -33.015,8.219 -46.019,13.156 -13.594,5.223 -25.067,11.618 -34.071,19.051 -9.359,7.758 -16.422,16.946 -20.976,27.364 -4.516,10.226 -6.754,22.261 -6.754,35.711 0,13.91 2.742,26.207 8.148,37.382 5.438,11.141 13.157,20.86 22.942,28.918 9.621,7.918 21.082,14.211 34.047,18.703 12.886,4.469 27.125,6.704 42.308,6.704 22.887,0 43.313,-3.274 60.645,-9.77 15.746,-5.867 31.379,-14.687 46.455,-26.152 l 1.56,-1.285 c 2.68,-2.813 4.08,-6.165 4.08,-9.645 0,-3.004 -1.04,-5.938 -3.06,-8.465 l -14.914,-19.766 c -5.871,-5.718 -12.844,-6.187 -18.328,-2.058 l -1.203,0.992 c -11.653,8.961 -23.571,15.723 -35.188,19.906 -12.949,4.762 -26.715,7.149 -40.902,7.149 -17.289,0 -30.907,-3.977 -40.481,-11.754 -9.152,-7.426 -13.621,-16.246 -13.621,-26.985 0,-6.71 0.926,-11.886 2.719,-16.238 1.656,-4.047 4.84,-7.926 9.461,-11.562 5.222,-4.071 12.656,-7.883 22.133,-11.324 9.996,-3.676 23.191,-7.18 39.168,-10.508 34.718,-7.711 60.828,-18.68 77.632,-32.649 17.964,-14.894 27.054,-35.426 27.054,-60.9607 0,-15.0312 -2.86,-28.125 -8.51,-39.7109 C 1012.28,48.6328 1004.44,38.6328 994.543,30.3672 984.82,22.2578 972.973,15.9062 959.316,11.5625 945.934,7.29688 931.199,5.14844 915.523,5.14844" /><path
             id="path28"
             style="fill:#05a1e6;fill-opacity:1;fill-rule:nonzero;stroke:none"
             d="M 156.508,5.21875 C 64.3594,5.21875 0,71.1875 0,165.629 v 297.008 c 0,7.504 6.07812,13.597 13.5742,13.597 h 25.7031 c 7.4649,0 13.5508,-6.093 13.5508,-13.597 V 166.16 c 0,-55.691 32.2227,-111.9178 104.2269,-111.9178 67.695,0 104.222,59.3358 104.222,115.1488 0,77.164 -60.929,111.867 -104.222,111.867 -26.43,0 -41.239,-2.668 -58.9222,-18.613 -7.3047,-6.707 -22.9414,-3.235 -22.9414,9.937 v 22.602 c 0,7.804 4.3516,13.265 8.418,15.808 25.4456,16.352 44.5356,19.332 72.8986,19.332 86.898,0 157.594,-72.894 157.594,-162.551 0,-89.6363 -70.696,-162.55425 -157.594,-162.55425" /><path
             id="path30"
             style="fill:#7b7979;fill-opacity:1;fill-rule:nonzero;stroke:none"
             d="m 3266.18,0 h -25.63 C 3233.07,0 3227,6.07812 3227,13.5586 V 168.816 c 0,55.594 -32.17,111.68 -104.03,111.68 -67.56,0 -104.04,-59.207 -104.04,-114.891 0,-77.0347 60.84,-111.6909 104.04,-111.6909 24.92,0 38.36,2.7031 57.06,19.6289 7.51,6.7187 22.91,3.1875 22.91,-9.9532 v -24.289 c 0,-9.6992 -6.4,-14.4961 -8.34,-15.7305 -24.75,-15.90624 -41.93,-18.60155 -71.1,-18.60155 -86.74,0 -157.29,72.78125 -157.29,162.27725 0,89.442 70.55,162.223 157.29,162.223 92.03,0 156.26,-65.832 156.26,-160.074 V 13.5586 C 3279.76,6.07812 3273.69,0 3266.18,0" /><path
             id="path32"
             style="fill:#7b7979;fill-opacity:1;fill-rule:nonzero;stroke:none"
             d="m 2125.61,9.39844 h -25.86 c -7.15,0 -13.13,5.56246 -13.58,12.74996 l -0.04,2.0078 0.03,158.9808 c 0,32.871 -9.22,59.847 -25.96,76.031 -20.34,19.828 -49.9,22.039 -61.65,22.094 -11.71,-0.055 -41.27,-2.266 -61.59,-22.047 -16.74,-16.207 -25.97,-43.207 -25.97,-76.078 l -0.03,-160.6448 c -0.57,-7.5703 -6.55,-13.09376 -13.59,-13.09376 h -25.85 c -6.09,0 -11.49,4.08206 -13.13,9.95316 l -0.42,2.2617 -0.07,161.5237 c 0,47.121 13.55,85.234 39.18,110.234 25.87,25.883 59.07,38.492 101.49,38.531 42.42,-0.039 75.65,-12.672 101.55,-38.609 25.59,-24.941 39.14,-63.059 39.14,-110.156 V 23.0391 c 0,-7.5235 -6.11,-13.64066 -13.65,-13.64066" /><path
             id="path34"
             style="fill:#7b7979;fill-opacity:1;fill-rule:nonzero;stroke:none"
             d="m 2778.55,8.61328 h -31.1 c -5.24,0 -9.9,2.93362 -12.2,7.64062 L 2612.81,306.219 c -0.81,1.988 -1.13,3.668 -1.13,5.457 0,7.531 6.09,13.625 13.62,13.625 h 27.5 c 6.52,0 11.08,-4.328 12.7,-8.613 l 97.49,-232.4302 98.06,232.7222 c 1.53,4.059 6.08,8.321 12.57,8.321 h 27.5 c 7.53,0 13.62,-6.094 13.62,-13.625 0,-1.719 -0.28,-3.321 -0.95,-4.961 l -0.06,-0.164 -122.77,-289.8362 c -2.43,-5.0976 -7.14,-8.10152 -12.41,-8.10152" /><path
             id="path36"
             style="fill:#7b7979;fill-opacity:1;fill-rule:nonzero;stroke:none"
             d="m 2398.76,5.14844 c -77.54,0 -161.2,63.73436 -161.2,166.67156 0,74.153 52.46,138.59 121.28,157 11.77,3.176 23.41,-2.121 23.41,-14.343 V 297.57 c 0,-8.035 -5.11,-15.367 -12.81,-17.664 -45.58,-13.519 -79.12,-56.941 -79.12,-108.617 0,-56.117 41.66,-116.6562 108.97,-116.6562 43.94,0 108.96,36.043 108.96,113.3752 0,59.5 -36.8,99.265 -79.43,111.992 -7.59,2.27 -12.49,9.695 -12.49,17.617 v 16.535 c 0,12.254 11.73,17.582 23.58,14.325 68.79,-19.012 121.11,-84.036 121.11,-158.879 0,-89.1292 -74.31,-164.44956 -162.26,-164.44956" /><path
             id="path38"
             style="fill:#05a1e6;fill-opacity:1;fill-rule:nonzero;stroke:none"
             d="m 560.148,329.602 c 77.536,0 161.192,-63.739 161.192,-166.676 C 721.34,88.7734 668.883,24.3359 600.07,5.92578 588.301,2.75391 576.66,8.04688 576.66,20.2695 v 16.9063 c 0,8.0351 5.106,15.3711 12.809,17.664 45.582,13.5196 79.113,56.9412 79.113,108.6172 0,56.117 -41.652,116.656 -108.965,116.656 -43.937,0 -108.961,-36.043 -108.961,-113.375 0,-59.5 36.797,-99.2653 79.43,-111.9919 7.594,-2.2695 12.484,-9.6953 12.484,-17.6133 V 20.5938 C 542.57,8.33984 530.848,3.01172 519,6.27344 450.211,25.2852 397.891,90.3086 397.891,165.152 c 0,89.125 74.304,164.45 162.257,164.45" /></g></g></g></g></svg>