<?xml version="1.0" encoding="utf-8"?>
<!-- Generator: Adobe Illustrator 15.1.0, SVG Export Plug-In . SVG Version: 6.00 Build 0)  -->
<!DOCTYPE svg PUBLIC "-//W3C//DTD SVG 1.1//EN" "http://www.w3.org/Graphics/SVG/1.1/DTD/svg11.dtd">
<svg version="1.1" id="Layer_1" xmlns="http://www.w3.org/2000/svg" xmlns:xlink="http://www.w3.org/1999/xlink" x="0px" y="0px"
	 width="525.276px" height="396.68px" viewBox="0 0 525.276 396.68" enable-background="new 0 0 525.276 396.68"
	 xml:space="preserve">
<g>
	<g id="_x34__16_">
		<path fill="#FF5000" d="M392.325,56.268c-10.606,0-19.84,5.867-24.649,14.526l-0.597,1.163l-22.16,43.625l-27.995,55.15
			l18.337,36.124l1.012,1.989c2.816,4.986,7.098,9.024,12.247,11.567c5.15-2.539,9.427-6.581,12.247-11.567l1.008-1.989
			l55.036-108.39l1.318-2.598c1.54-3.488,2.413-7.333,2.413-11.387C420.542,68.901,407.913,56.268,392.325,56.268z"/>
		<path fill="#FF5000" d="M222.569,108.744l-18.278-35.981l-1.007-1.994c-2.812-4.978-7.084-9.011-12.222-11.551
			c-5.137,2.54-9.397,6.569-12.205,11.542l-1.011,1.993l-55.033,108.395l-1.318,2.594c-1.544,3.484-2.413,7.328-2.413,11.383
			c0,15.584,12.629,28.213,28.213,28.213c10.606,0,19.84-5.867,24.654-14.518l0.592-1.167l22.156-43.629l27.965-55.083
			L222.569,108.744z"/>
		<linearGradient id="SVGID_1_" gradientUnits="userSpaceOnUse" x1="330.7158" y1="212.1338" x2="402.5306" y2="58.1265">
			<stop  offset="0" style="stop-color:#D4202C"/>
			<stop  offset="0.0417" style="stop-color:#D82D2B;stop-opacity:0.9583"/>
			<stop  offset="0.176" style="stop-color:#E25226;stop-opacity:0.824"/>
			<stop  offset="0.3167" style="stop-color:#EB7123;stop-opacity:0.6833"/>
			<stop  offset="0.4635" style="stop-color:#F28920;stop-opacity:0.5365"/>
			<stop  offset="0.6188" style="stop-color:#F69A1E;stop-opacity:0.3812"/>
			<stop  offset="0.7886" style="stop-color:#F9A41D;stop-opacity:0.2114"/>
			<stop  offset="1" style="stop-color:#FAA71D;stop-opacity:0"/>
		</linearGradient>
		<path fill="url(#SVGID_1_)" d="M392.278,56.268c-10.61,0-19.844,5.867-24.657,14.526l-0.592,1.163l-22.157,43.625l-27.998,55.15
			l18.337,36.124l1.012,1.989c2.815,4.986,7.097,9.024,12.247,11.567c5.149-2.539,9.427-6.581,12.247-11.567l1.012-1.989
			l55.032-108.39l1.317-2.598c1.541-3.488,2.405-7.333,2.405-11.387C420.483,68.901,407.858,56.268,392.278,56.268z"/>
		
			<linearGradient id="SVGID_2_" gradientUnits="userSpaceOnUse" x1="1939.9424" y1="1219.7959" x2="2011.7581" y2="1065.7866" gradientTransform="matrix(-1 0 0 -1 2148.7773 1287.2813)">
			<stop  offset="0" style="stop-color:#D4202C"/>
			<stop  offset="0.0417" style="stop-color:#D82D2B;stop-opacity:0.9583"/>
			<stop  offset="0.176" style="stop-color:#E25226;stop-opacity:0.824"/>
			<stop  offset="0.3167" style="stop-color:#EB7123;stop-opacity:0.6833"/>
			<stop  offset="0.4635" style="stop-color:#F28920;stop-opacity:0.5365"/>
			<stop  offset="0.6188" style="stop-color:#F69A1E;stop-opacity:0.3812"/>
			<stop  offset="0.7886" style="stop-color:#F9A41D;stop-opacity:0.2114"/>
			<stop  offset="1" style="stop-color:#FAA71D;stop-opacity:0"/>
		</linearGradient>
		<path fill="url(#SVGID_2_)" d="M147.273,223.354c10.61,0,19.848-5.867,24.662-14.526l0.587-1.162l22.157-43.625l27.999-55.158
			l-18.337-36.116l-1.007-1.994c-2.816-4.982-7.097-9.023-12.247-11.563c-5.15,2.535-9.431,6.577-12.251,11.563l-1.007,1.994
			L122.8,181.157l-1.327,2.598c-1.536,3.488-2.409,7.333-2.409,11.387C119.064,210.722,131.697,223.354,147.273,223.354z"/>
		<path fill="#FF8C44" d="M222.569,108.744l-18.278-35.981l-1.007-1.994c-2.816-4.986-7.097-9.028-12.247-11.567
			c1.695-0.827,3.488-1.511,5.355-1.998c2.275-0.592,4.663-0.924,7.123-0.928c0.013,0,0.025,0,0.038,0c0,0,0.025,0,0.029,0
			l37.913,0.004c0.063,0,0.13-0.004,0.193-0.004s0.13,0.004,0.193,0.004c10.56,0.076,19.743,5.893,24.595,14.489l1.016,1.994
			l49.534,98.107l18.266,35.986l1.008,1.989c2.82,4.986,7.102,9.028,12.256,11.567c-1.7,0.827-3.492,1.507-5.352,1.994
			c-2.287,0.596-4.663,0.928-7.131,0.928c-0.009,0-0.029,0.004-0.038,0.004c0,0-0.021-0.004-0.033-0.004l-37.917-0.005
			c-0.063,0-0.121,0.009-0.185,0.009c-0.071,0-0.13-0.009-0.201-0.009c-10.552-0.071-19.727-5.893-24.587-14.484l-1.016-1.989
			L222.569,108.744z"/>
	</g>
	<g id="wht_20_">
		<path fill="#6D6E71" d="M11.799,271.311c0-1.67,0.936-2.619,2.606-2.619h1.884c1.565,0,2.501,0.949,2.501,2.619v6.057
			c0,2.086-0.419,3.756-0.419,3.756h0.214c1.981-4.806,8.869-13.682,21.191-13.682c13.053,0,17.648,7.42,17.648,20.364v30.798
			c0,1.671-0.94,2.61-2.61,2.61H52.83c-1.67,0-2.501-0.939-2.501-2.61v-28.918c0-8.252-1.36-15.563-11.492-15.563
			c-11.168,0-19.94,9.191-19.94,21.409v23.071c0,1.671-0.835,2.61-2.505,2.61h-1.985c-1.67,0-2.606-0.939-2.606-2.61V271.311z"/>
		<path fill="#6D6E71" d="M95.64,289.052h3.022v-1.666c0-10.128-5.532-13.573-12.944-13.573c-5.847,0-10.333,2.19-12.734,3.655
			c-1.469,0.73-2.611,0.521-3.555-0.835l-0.625-1.045c-0.835-1.356-0.625-2.712,0.73-3.547c2.715-1.671,8.562-4.6,16.708-4.6
			c12.528,0,19.525,6.996,19.525,20.154v31.008c0,1.671-0.843,2.61-2.505,2.61h-1.67c-1.675,0-2.611-0.839-2.611-2.61v-4.176
			c0-2.396,0.315-3.967,0.315-3.967h-0.21c0.101,0-4.697,12.008-17.754,12.008c-8.873,0-17.745-5.221-17.745-15.344
			C63.587,290,85.517,289.052,95.64,289.052z M82.587,316.514c10.128,0,16.075-10.438,16.075-19.626v-2.506h-2.921
			c-8.251,0-24.851,0.315-24.851,12.113C70.89,311.401,74.755,316.514,82.587,316.514z"/>
		<path fill="#6D6E71" d="M115.891,271.311c0-1.67,0.94-2.619,2.611-2.619h1.88c1.566,0,2.51,0.949,2.51,2.619v6.057
			c0,2.086-0.42,3.756-0.42,3.756h0.21c2.61-7.101,11.063-13.682,19.315-13.682c9.708,0,14.719,4.486,16.184,13.153h0.206
			c2.925-6.682,10.547-13.153,19.319-13.153c12.738,0,17.435,7.42,17.435,20.364v30.798c0,1.671-0.94,2.61-2.606,2.61h-1.884
			c-1.666,0-2.615-0.939-2.615-2.61v-29.027c0-8.558-1.767-15.663-11.269-15.663c-10.552,0-17.645,11.071-17.645,21.934v22.757
			c0,1.671-0.835,2.61-2.51,2.61h-1.985c-1.666,0-2.606-0.939-2.606-2.61v-29.027c0-7.928-1.15-15.663-11.068-15.663
			c-10.652,0-17.959,11.281-17.959,21.934v22.757c0,1.671-0.839,2.61-2.506,2.61h-1.985c-1.671,0-2.611-0.939-2.611-2.61V271.311z"
			/>
		<path fill="#6D6E71" d="M227.719,267.441c13.989,0,21.921,10.131,21.921,25.061c0,1.456-1.142,2.606-2.715,2.606H209.13
			c0.314,13.372,9.502,20.989,20.36,20.989c6.577,0,11.378-2.917,13.784-4.806c1.46-0.932,2.61-0.73,3.446,0.63l0.835,1.259
			c0.73,1.247,0.521,2.502-0.734,3.442c-2.816,2.09-9.079,5.846-17.54,5.846c-15.66,0-27.462-11.277-27.462-27.461
			C201.818,277.782,213.516,267.441,227.719,267.441z M242.438,289.782c-0.42-11.067-7.097-16.499-14.933-16.499
			c-8.772,0-16.398,5.855-18.061,16.499H242.438z"/>
		<path fill="#6D6E71" d="M283.469,267.441c8.981,0,14.828,3.869,17.435,5.951c1.255,0.944,1.356,2.195,0.315,3.551l-0.73,1.154
			c-0.937,1.456-2.086,1.456-3.551,0.524c-2.296-1.779-6.892-4.81-13.263-4.81c-11.479,0-20.465,8.667-20.465,21.195
			c0,12.423,8.986,21.09,20.57,21.09c7.315,0,12.327-3.449,14.828-5.536c1.36-1.04,2.506-0.831,3.45,0.63l0.727,1.05
			c0.831,1.355,0.524,2.501-0.626,3.542c-2.715,2.203-8.978,6.686-18.689,6.686c-15.663,0-27.563-11.177-27.563-27.461
			C255.906,278.823,267.91,267.441,283.469,267.441z"/>
		<path fill="#6D6E71" d="M309.886,250.426c0-1.67,0.831-2.61,2.501-2.61h1.985c1.675,0,2.615,0.94,2.615,2.61v26.207
			c0,2.396-0.42,4.285-0.42,4.285h0.205c1.985-4.915,9.083-13.477,20.99-13.477c13.049,0,17.645,7.42,17.645,20.364v30.798
			c0,1.671-0.835,2.61-2.506,2.61h-1.98c-1.675,0-2.611-0.939-2.611-2.61v-28.918c0-8.252-1.255-15.563-11.487-15.563
			c-11.067,0-19.835,9.091-19.835,21.724v22.757c0,1.671-0.94,2.61-2.615,2.61h-1.985c-1.67,0-2.501-0.939-2.501-2.61V250.426z"/>
		<path fill="#6D6E71" d="M388.09,267.441c13.989,0,21.926,10.131,21.926,25.061c0,1.456-1.154,2.606-2.716,2.606h-37.799
			c0.311,13.372,9.502,20.989,20.36,20.989c6.577,0,11.383-2.917,13.783-4.806c1.456-0.932,2.61-0.73,3.445,0.63l0.836,1.259
			c0.726,1.247,0.521,2.502-0.73,3.442c-2.824,2.09-9.087,5.846-17.544,5.846c-15.659,0-27.457-11.277-27.457-27.461
			C362.194,277.782,373.883,267.441,388.09,267.441z M402.805,289.782c-0.411-11.067-7.097-16.499-14.929-16.499
			c-8.771,0-16.394,5.855-18.064,16.499H402.805z"/>
		<path fill="#6D6E71" d="M445.301,289.052h3.03v-1.666c0-10.128-5.54-13.573-12.948-13.573c-5.847,0-10.337,2.19-12.738,3.655
			c-1.46,0.73-2.614,0.521-3.551-0.835l-0.625-1.045c-0.835-1.356-0.63-2.712,0.726-3.547c2.716-1.671,8.571-4.6,16.709-4.6
			c12.532,0,19.525,6.996,19.525,20.154v31.008c0,1.671-0.831,2.61-2.506,2.61h-1.671c-1.67,0-2.61-0.839-2.61-2.61v-4.176
			c0-2.396,0.314-3.967,0.314-3.967h-0.205c0.101,0-4.701,12.008-17.754,12.008c-8.873,0-17.754-5.221-17.754-15.344
			C413.243,290,435.173,289.052,445.301,289.052z M432.248,316.514c10.127,0,16.083-10.438,16.083-19.626v-2.506h-2.921
			c-8.252,0-24.859,0.315-24.859,12.113C420.551,311.401,424.412,316.514,432.248,316.514z"/>
		<path fill="#6D6E71" d="M465.661,271.311c0-1.67,0.839-2.619,2.506-2.619h1.67c1.671,0,2.506,0.949,2.506,2.405v3.765
			c0,2.082-0.311,3.551-0.311,3.551h0.206c0,0,4.49-10.971,18.374-10.971c14.099,0,22.866,11.273,22.866,27.566
			c0,16.6-9.918,27.461-23.596,27.461c-12.734,0-17.334-10.651-17.334-10.651h-0.206c0,0,0.415,1.88,0.415,4.591v21.393
			c0,1.671-0.936,2.611-2.61,2.611h-1.98c-1.667,0-2.506-0.94-2.506-2.611V271.311z M489.156,316.098
			c9.394,0,17.02-7.727,17.02-21.09c0-12.844-6.896-21.095-16.604-21.095c-8.772,0-17.023,6.271-17.023,21.195
			C472.549,305.66,478.399,316.098,489.156,316.098z"/>
	</g>
</g>
</svg>
