<?xml version="1.0" encoding="utf-8"?>
<!-- Generator: Adobe Illustrator 15.1.0, SVG Export Plug-In . SVG Version: 6.00 Build 0)  -->
<!DOCTYPE svg PUBLIC "-//W3C//DTD SVG 1.1//EN" "http://www.w3.org/Graphics/SVG/1.1/DTD/svg11.dtd">
<svg version="1.1" id="Layer_1" xmlns="http://www.w3.org/2000/svg" xmlns:xlink="http://www.w3.org/1999/xlink" x="0px" y="0px"
	 width="1500px" height="1500px" viewBox="-250 -250 1500 1500" enable-background="new -250 -250 1500 1500" xml:space="preserve">
<path fill="#B22E01" d="M0,0h1000v1000H0V0z"/>
<path fill="#FDFAFA" d="M337.16,140.38c11.25-7.22,27.64-5.13,36.39,5.09c5.73,6.28,7.11,15.64,4.5,23.59
	c-2.79,8.44-8.359,16.64-16.84,20.12c-7.87,3.32-17.32,1.35-23.46-4.51c-5.65,9.67-11.25,19.38-16.76,29.14
	c-3.25,0.31-6.51,0.38-9.771,0.33c11.98-21.22,24.28-42.25,36.55-63.3c3.08,0.02,6.171,0.02,9.25,0.04
	c-5.26,10.02-11.21,19.67-16.779,29.52c2.55,2.06,5.43,4.01,8.83,4.13c6.97,0.63,13.51-3.771,17.05-9.55
	c3.66-5.8,6.29-13.04,4.31-19.89c-1.529-5.67-6.39-10.1-12-11.6c-7.39-2.29-15.71,0.44-21,5.89c-4.54,4.45-7,10.52-8.64,16.55
	c-2.22-0.18-4.42-0.4-6.62-0.65C323.43,155.39,328.62,145.78,337.16,140.38z"/>
<path fill="#FDFAFA" d="M419.98,149.24c3.18-0.021,6.369-0.01,9.56,0.01c-2.91,5.08-5.86,10.13-8.7,15.25
	c4.771,0.06,9.55,0.04,14.32,0.03c3.03-4.94,5.6-10.15,8.77-15.01c3.12-0.66,6.391-0.17,9.58-0.26c-2.87,5.09-5.84,10.13-8.67,15.24
	c2.53,0.03,5.061,0.04,7.601,0.06c-0.83,1.42-1.66,2.84-2.48,4.26c-2.59,0.37-5.82-0.71-8.04,0.79
	c-6.24,10.28-11.939,20.9-18.06,31.26c-1.29,2.37-3.21,4.78-2.7,7.65c1.77,1.39,3.89,0.24,5.62-0.63
	c6.41-3.82,10.7-10.13,16.27-14.95c7.07-8.22,13.271-17.16,19.58-25.97c2.47,1.1,4.851,2.37,7.22,3.69
	c-5.01,10.8-5.17,22.88-7.72,34.33c5.55-4.32,11.14-9.04,14.45-15.37c7.74-13.48,15.57-26.92,23.35-40.38
	c3.24-0.021,6.49-0.021,9.74,0.02c-3.8,6.56-7.53,13.16-11.38,19.69c3.79-1.36,8.55-2.14,11.7,1.02c3.63,3.64,2.46,9.38,0.54,13.58
	c-3.09,6.33-7.04,12.21-10.36,18.42c4.9-0.52,10.11-2.42,13.09-6.54c5.2-8.55,9.851-17.43,15.13-25.92
	c2.92-1.39,6.471-0.39,9.63-0.34c-4.659,8.25-9.43,16.45-14.109,24.7c-2.33,4.16-5,8.17-6.73,12.64c0.73,0.21,2.19,0.63,2.91,0.83
	c4.87-2.2,9.13-5.71,12.84-9.51c5.29-8.72,10.17-17.7,15.261-26.55c1.8-4.21,7.319-1.91,10.819-2.11
	c-6.529,11.42-12.99,22.88-19.56,34.27c-0.91,1.53-1.62,3.27-1.24,5.08c1.771,1.42,3.92,0.21,5.65-0.65
	c4.699-2.81,8.34-7.02,12.06-10.97c6.16-7.45,12.12-15.09,17.48-23.13c-1.08-2.8-3.271-5.55-2.45-8.72c0.5-2.94,2.439-5.3,4.6-7.23
	c1.51,1.71,3.021,3.42,4.521,5.15c-0.45,1.59-1.57,3.35-0.59,4.98c2.52,3.92,6.42,6.9,8.26,11.27c1.27,2.76,0.12,5.811-1.21,8.311
	c-3.07,5.58-6.37,11.02-9.46,16.58c-0.811,1.31-1.11,2.87-0.9,4.39c2.75,1.8,5.811-0.75,8.1-2.26
	c5.69-4.69,11.12-10.021,14.461-16.69c4.02-6.4,6.81-14.08,13.39-18.39c4.18-2.99,10.43-4.42,14.83-1.09
	c2.39,1.61,3.39,4.44,4.25,7.07c1.71,0.03,3.43,0.07,5.17,0.11c-6.98,11.84-13.94,23.7-20.83,35.59
	c9.17-4.31,16.51-11.63,22.78-19.43c8.689-14.63,16.989-29.49,25.59-44.18c3.17-0.01,6.359,0,9.55,0.03
	c-4.87,8.43-9.71,16.87-14.5,25.34c3.49-3.43,7.84-6.85,13.05-6.46c3.221-0.08,6.021,2.71,6.29,5.86c0.29,3.09-1.399,5.86-2.83,8.46
	c-3.819,6.55-7.479,13.18-11.3,19.71c-1.1,1.94-2.46,4.02-1.97,6.36c2.05,1.52,4.479-0.04,6.37-1.08
	c5.33-3.57,9.529-8.52,13.739-13.29c1.24,1.15,2.45,2.32,3.65,3.53c-5.88,6.3-11.79,13.23-20.02,16.48
	c-4.07,1.28-9.921,1.34-12.171-3.02c-1.22-3.08-0.64-6.66,1-9.48c4.141-7.45,8.641-14.71,12.66-22.23c1.03-1.5,1.37-4.88-1.46-3.97
	c-6.439,2.46-10.87,8.29-15.16,13.42c-5.159,8.28-9.739,16.9-14.689,25.29c-3.15,0-6.28,0.01-9.41-0.03
	c0.63-1.36,1.28-2.71,1.95-4.06c-5.08,4.15-10.92,7.25-17.09,9.43c-2.91,4.79-5.33,9.9-8.601,14.46c-3,3.87-8,6.49-12.96,5.52
	c-3.899-0.58-6.87-4.67-6.02-8.55c0.479-2.96,2.29-5.54,4.63-7.34c4.6-3.62,10.17-5.67,15.689-7.43c0.811-1.31,1.62-2.62,2.45-3.92
	c-3.83,2.19-8.55,3.59-12.85,1.93c-2.57-0.94-3.5-3.65-4.17-6.04c-4.34,3.18-8.98,7-14.7,6.74c-3.06,0.19-6.47-1.27-7.521-4.31
	c-0.689-2.66-0.479-5.62,0.811-8.06c3.45-6.6,7.7-12.78,10.93-19.49c0.271-1.62-0.62-4.97-2.66-4.64
	c-8.72,11.2-16.54,23.55-28.069,32.15c-4.49,3.45-10.851,5.97-16.271,3.24c-2.779-1.38-3.08-4.66-3.26-7.39
	c-4.86,4.4-10.75,9.95-17.9,8.17c-4.02-1.46-3.88-6.45-2.779-9.85c-3.551,1.45-7.351,2.07-11.181,2.06
	c-4.62,5.49-11.779,9.95-19.21,8.28c-4.68-0.84-7.87-5.3-7.88-9.95c-6.689,5.52-14.85,10.71-23.92,9.68
	c-4.149-0.24-7.25-3.76-8.27-7.57c1.92-0.91,3.83-1.85,5.76-2.75c1.3,1.19,2.32,3.27,4.36,3.19c3.51,0.4,5.63-3.11,6.479-6.02
	c1.74-6.49,2.29-13.22,3.47-19.82c-4.55,6.09-8.71,12.6-14.54,17.57c-5.659,5.89-11.409,12.4-19.38,15.07
	c-3.479,0.73-7.87,0.94-10.41-2.01c-1.359-1.41-1.29-3.51-1.76-5.28c-5.04,4.03-10.83,8.76-17.75,7.6c-3.92-0.2-6.2-3.979-6.25-7.58
	c-4.85,3.8-10.2,8.38-16.81,7.67c-3.29,0.09-6.641-2.41-6.84-5.82c-0.381-2.78,0.399-5.57,1.859-7.93
	c6.28-10.76,12.37-21.62,18.72-32.34c3.101,0.01,6.2,0.01,9.311,0.05c-6.53,12.16-13.71,23.96-20.39,36.04
	c-1.2,1.72-0.65,5.37,2.069,4.24c6.87-2.14,11.2-8.42,16.17-13.21c3.36-2.86,5.07-7.02,7.311-10.71c3.02-5.42,6.39-10.65,9.09-16.25
	c-2.74,0.13-5.48,0.2-8.21,0.21c0.83-1.54,1.689-3.07,2.56-4.6c2.83,0.01,5.66,0.01,8.49,0
	C414.14,159.46,417.01,154.32,419.98,149.24z"/>
<path fill="#FDFAFA" d="M393.38,153.49c3.53-1.29,7.79,1.69,7.36,5.53c0.27,4.68-6.38,7.02-9.4,3.68
	C388.45,160.09,389.62,154.59,393.38,153.49z"/>
<path fill="#B22E01" d="M416.6,171.63c0.79-1.24,1.521-3.12,3.391-2.66c4.109,0.15,8.229,0.09,12.34-0.1
	c-2.54,5.42-5.83,10.44-8.73,15.67c-2.399,3.89-4.13,8.33-7.689,11.35c-5.15,4.94-9.641,11.61-16.94,13.38
	c-2.89-0.12-1.88-3.5-0.939-5.14C404.22,193.29,410.44,182.48,416.6,171.63z"/>
<path fill="#B22E01" d="M492.43,179.41c2.141-3.36,5.82-6.86,10.101-5.06c0.819,2.38,1.17,4.98-0.19,7.25
	c-3.09,5.75-6.46,11.37-9.84,16.94c-1.87,1.41-2.6-1.48-3.45-2.66C486.71,190.29,489.31,184.14,492.43,179.41z"/>
<path fill="#B22E01" d="M617.5,176.75c2.21-1.42,5.51-1.4,6.86,1.17c0.75,3.45-1.75,6.35-3.24,9.21c-4.22,7.19-8,15.15-15,20.08
	c-2,1.21-4.59,2.75-6.89,1.46c-0.57-2.14,0.46-4.17,1.529-5.95c3.82-6.5,7.53-13.07,11.271-19.63
	C613.4,180.65,615.02,178.18,617.5,176.75z"/>
<path fill="#FDFAFA" d="M70.62,188.5c2.13-0.2,4.26-0.32,6.4-0.31c70.21,0.04,140.43-0.03,210.64,0.04
	c-0.01,2.7-0.01,5.41-0.01,8.12c-71.59-0.01-143.18,0.08-214.77-0.04C68.95,195.99,70.35,191.12,70.62,188.5z"/>
<path fill="#FDFAFA" d="M720.56,188.29c56.83-0.21,113.66-0.03,170.501-0.09c16.689,0.08,33.39-0.18,50.079,0.14
	c0.311,0.61,0.95,1.84,1.261,2.45c-0.011,0.81-0.04,2.43-0.051,3.25c-0.33,0.56-0.979,1.69-1.31,2.25
	c-73.49,0.14-146.97,0.07-220.45,0.04C720.58,193.65,720.58,190.97,720.56,188.29z"/>
<path fill="#B22E01" d="M478.54,206.13c-0.19-4.21,2.9-7.52,4.58-11.15c1.05,3.7,3.07,7.02,6,9.54
	C487.04,207.93,480.69,210.96,478.54,206.13z"/>
<path fill="#B22E01" d="M591.64,229.87c1.25-4,5.591-5.55,9.03-7.19c-1.87,3.18-3.24,6.75-5.81,9.45
	C593.24,233.32,591,231.81,591.64,229.87z"/>
<path fill="#FDFAFA" d="M140.94,307c16.47-5.08,34.48-5.8,51.1-0.94c7.19,2,13.98,5.2,20.5,8.8c0.05,9.99,0.05,19.98-0.01,29.97
	c-10.61-9.1-23.49-16.06-37.5-17.86c-14.31-1.86-29.47,1.4-41.26,9.87c-14.11,10.01-24.24,25.82-26.23,43.13
	c-1.99,14.42,0.45,29.7,8.13,42.2c8.8,14.38,23.55,25.37,40.32,28.23c11.83,1.949,24.5,1.369,35.45-3.9
	c7.75-3.55,14.62-8.7,21.11-14.17c0.04,10.17,0.01,20.34,0.02,30.51c-16.71,9.641-36.49,14.021-55.68,11.67
	c-35.56-3.33-66.92-32.06-73.65-67.08c-3.67-18.8-1.46-38.899,7.2-56.07C100.82,330.93,118.85,313.91,140.94,307z"/>
<path fill="#FDFAFA" d="M309.44,303.82c14.989-1.99,30.569-0.73,44.71,4.83c15.739,6.16,29.14,17.45,39.14,30.96
	c21.52,29.16,21.13,72.76-1.521,101.19c-11.369,14.4-26.92,25.76-44.67,30.79c-15.67,4.43-32.55,4.78-48.3,0.53
	c-17.94-4.93-33.94-16-45.7-30.33c-12.19-15.021-17.83-34.62-17.52-53.81c-0.23-19.49,6.9-38.92,19.76-53.57
	C268.95,318.19,288.31,306.59,309.44,303.82z"/>
<path fill="#FDFAFA" d="M815.87,314.86c5.58-5.84,13.2-9.49,21.13-10.75c11.4-1.89,23.87-0.22,33.42,6.63
	c4.68,3.54,8.87,7.95,11.391,13.3c5.27,11.07,4.43,25.01-2.851,34.99c-5.899,8.2-13.899,14.54-21.72,20.79
	c9.99,11.89,19.82,23.92,29.76,35.86c6.33-6.96,12.57-14.01,18.27-21.5c5.61,5.51,11.03,11.2,16.57,16.79
	c-5.91,8.19-12.779,15.63-19.58,23.08c10.141,12.72,20.61,25.19,30.62,38.021c-10.34,0.22-20.69,0.02-31.04,0.109
	c-5.71-6.66-11.06-13.609-16.72-20.31c-10,10.38-22.32,19.27-36.64,22.33c-15.381,3.13-32.271-0.21-44.69-10.01
	c-11.47-8.641-18.7-22.71-18.49-37.131c-0.43-10.689,3.271-21.39,10.01-29.659c7.091-9.21,17.5-14.791,26.771-21.46
	c-6.69-7.71-13.07-16.2-15.36-26.35C803.96,337.5,806.94,323.74,815.87,314.86z"/>
<path fill="#FDFAFA" d="M439.75,306.15c14.1,0.04,28.2-0.09,42.3,0.07c15.83,0.3,32.07,2.85,46.021,10.75
	c17.51,9.88,31.239,26.61,36.66,46.061c4.59,16.51,4.699,34.279,0.25,50.83c-8.24,29.97-35.95,53.56-66.87,56.87
	c-19.36,2.31-38.9,1.149-58.341,1.43C439.71,416.83,439.75,361.49,439.75,306.15z"/>
<path fill="#FDFAFA" d="M599.68,306.17c30.59-0.05,61.17-0.01,91.75-0.02c0.021,7.84,0,15.68,0.011,23.53
	c-22.091,0-44.181,0.04-66.261-0.02c-0.76,13.22-0.149,26.48-0.33,39.72c21.551,0.09,43.101,0.01,64.66,0.05
	c-0.02,7.91,0.04,15.82-0.04,23.73c-21.54,0.04-43.09-0.08-64.63,0.06c0,18.379,0,36.75,0,55.129c22.2,0.08,44.4,0,66.601,0.04
	c-0.021,7.92,0.04,15.851-0.04,23.771c-28.471,0.01-56.931-0.01-85.4,0.02c-2.11-0.01-4.23-0.109-6.33-0.26
	C599.7,416.67,599.67,361.42,599.68,306.17z"/>
<path fill="#B22E01" d="M838.45,325.63c6.56-2.55,15.1-1.53,19.83,4.06c4.989,5.96,3.989,15.64-1.66,20.84
	c-4.33,4.14-8.931,8.17-14.08,11.24c-5.521-6.72-13.07-13.38-13.18-22.75C828.85,333.08,833.21,327.85,838.45,325.63z"/>
<path fill="#B22E01" d="M314.15,327.11c14.819-1.91,30.56,1.21,42.859,9.91c11.38,8.11,20.45,19.84,24.181,33.43
	c4.229,15.45,3.229,32.58-3.94,47.02c-7.58,14.891-21.2,26.84-37.35,31.49c-13.53,3.771-28.42,3.37-41.38-2.26
	c-11.04-4.83-20.54-12.98-27.45-22.811c-9.43-13.85-11.97-31.59-9.04-47.88C266.52,350.85,288.65,329.83,314.15,327.11z"/>
<path fill="#B22E01" d="M464.86,329.72c16.67-0.31,34.25-0.06,49.37,7.9c14.88,7.78,25.079,23.17,27.659,39.63
	c2.15,14.29,0.73,29.61-6.659,42.27c-8.131,13.86-22.28,24.28-38.181,27.131c-10.52,2.149-21.28,1.699-31.939,1.75
	c-0.57-15.11-0.101-30.261-0.25-45.391C464.86,378.58,464.85,354.15,464.86,329.72z"/>
<path fill="#B22E01" d="M815.87,410.86c6.31-6.53,13.82-11.73,21.25-16.89c10.89,13.26,21.91,26.43,32.649,39.83
	c-8.3,7.771-17.289,15.96-28.76,18.351c-15.52,3.149-31.26-10.69-31.62-26.181C809.21,420.27,811.97,414.87,815.87,410.86z"/>
<path fill="#FDFAFA" d="M104.72,584.76c13.47-11.05,32.62-13.93,49.16-9.17c13.11,3.83,23.15,14.141,29.88,25.66
	c-6.78,4.16-13.66,8.16-20.51,12.19c-3.34-5.58-7.13-11.54-13.34-14.221c-10.77-4.39-25.08-2.26-32.14,7.63
	c-4.37,6.04-4.57,15.131,0.54,20.811c6.47,7.5,16.43,10.03,25.17,13.859c13.05,5.091,26.48,11.25,35.4,22.5
	c9.1,11.41,10.8,27.11,7.94,41.051c-2.75,14.29-12.44,26.71-24.97,33.87c-11.66,6.609-25.73,8.02-38.78,5.72
	c-12.14-2.101-23.43-8.95-30.57-19.04c-6.16-8.46-9.32-18.68-11-28.91c8.53-1.93,17.06-3.86,25.62-5.59
	c1.01,8.42,2.54,17.66,9.04,23.75c6.7,6.62,16.83,8.06,25.79,6.479c8.93-1.81,16.5-8.79,19.32-17.409
	c2.52-8.21,2.03-17.94-3.41-24.9c-7.22-9.01-18.65-12.64-28.89-17c-11.71-4.61-23.65-10.34-31.69-20.38
	c-6.97-8.46-9.68-20.01-7.92-30.76C90.66,600.55,96.63,591.18,104.72,584.76z"/>
<path fill="#FDFAFA" d="M236.43,670.97c0.02-31.439-0.02-62.89,0.03-94.33c8.39,0.011,16.78,0.011,25.17,0
	c0.05,29.12,0,58.24,0.02,87.37c0.07,11.66-0.73,23.63,2.81,34.92c2.83,9.83,10.85,17.83,20.5,21.051
	c5.79,2.09,12.07,2.119,18.13,1.689c11.95-1,23.18-9,27.55-20.229c3.351-9.07,3.69-18.9,3.65-28.46
	c-0.021-32.101,0-64.2-0.01-96.311c8.39-0.05,16.79-0.02,25.189-0.02c0.03,30.79,0,61.569,0.011,92.359
	c-0.11,11.08,0.77,22.4-2.381,33.181c-4.35,16.63-16.84,30.5-32.25,37.79c-12.38,5.77-26.609,6.96-39.95,4.489
	c-22.35-4.149-41.69-22.14-46.66-44.439C235.83,690.53,236.53,680.67,236.43,670.97z"/>
<path fill="#FDFAFA" d="M417.22,576.65c12.62,0.05,25.25-0.131,37.88,0.1c9.92,0.67,20.221,1.13,29.341,5.53
	c13.29,6.58,23.06,19.89,25.17,34.6c2.109,13.4-0.2,28.09-8.721,38.97c-8.569,11.03-22.12,17.25-35.8,18.79
	c-7.51,1.12-15.109,0.65-22.67,0.75c0,22.42,0,44.851,0,67.28c-8.41,0.03-16.81,0.01-25.22,0.01
	C417.2,687.34,417.18,631.99,417.22,576.65z"/>
<path fill="#FDFAFA" d="M553.8,576.67c18.72,0.34,37.63-1.25,56.181,2.01c18.359,3.11,33.229,19.07,36.189,37.28
	c1.72,12.01,0.771,24.99-5.63,35.59c-6.88,11.69-19.36,19.24-32.43,22.021c-9.48,2.21-19.261,1.819-28.91,1.819
	c0.01,22.41-0.021,44.82,0.01,67.23c-8.479,0.11-16.95,0.09-25.43,0.01C553.8,687.31,553.78,631.99,553.8,576.67z"/>
<path fill="#FDFAFA" d="M690.58,576.65c8.4-0.011,16.8-0.011,25.2,0c0.01,47.38,0.05,94.76-0.021,142.14
	c16.23,0.78,32.521,0.11,48.771,0.35c0,7.851,0,15.69,0,23.54c-24.66,0-49.311,0.021-73.971-0.01
	C690.58,687.33,690.55,631.99,690.58,576.65z"/>
<path fill="#FDFAFA" d="M786.72,576.67c9.601-0.07,19.21,0.021,28.83-0.05c12.48,21.56,24.74,43.25,37.19,64.83
	c0.57,1.64,1.84-0.72,2.279-1.271c12.221-21.17,24.261-42.449,36.57-63.56c9.63,0.07,19.25-0.01,28.88,0.05
	c-17.76,30.85-35.55,61.68-53.37,92.5c-0.97,1.43-1,3.18-0.97,4.85c0.06,22.86-0.01,45.721,0.04,68.591
	c-8.47,0.14-16.939,0.08-25.41,0.029c-0.09-23.859,0.2-47.729-0.14-71.569c-3.89-7.851-8.7-15.25-12.93-22.931
	C814.06,624.3,800.23,600.57,786.72,576.67z"/>
<path fill="#B22E01" d="M442.46,599.78c11.59-0.03,24.29-0.44,34.35,6.279c7.761,5.11,10.32,15.261,8.91,24.03
	c-0.67,7.11-4.83,13.84-11.2,17.21c-9.75,5.32-21.25,4.79-32.01,4.88C442.32,634.72,442.43,617.25,442.46,599.78z"/>
<path fill="#B22E01" d="M579.25,599.78c11.43-0.05,23.88-0.41,33.89,6.01c6.49,4.01,9.66,11.81,9.57,19.229
	c0.34,8.19-2.86,17.101-10.16,21.471c-9.87,6.189-22.05,5.58-33.24,5.689C579.09,634.72,579.2,617.25,579.25,599.78z"/>
<path fill="#FDFAFA" d="M457.55,804.59c10.16-9.01,26.181-10.2,37.681-3.05c-0.061,3.68-0.051,7.36-0.04,11.04
	c-5.671-4.43-12.86-7.88-20.221-6.55c-8.91,1.189-16.41,8.45-18.489,17.1c-2.131,7.811,0.039,16.771,5.88,22.46
	c5.76,6.141,15.189,8.23,23.1,5.561c3.59-1.32,6.66-3.69,9.72-5.931c0.011,3.74-0.01,7.48,0.051,11.221
	c-6.86,4.119-15.24,5.75-23.11,4.199c-10.44-1.739-19.51-9.39-23.57-19.069C443.32,828.94,447.12,813.41,457.55,804.59z"/>
<path fill="#FDFAFA" d="M521.69,819.99c7.279-1.101,15.05,1.88,19.579,7.72c6.681,8.29,5.511,21.88-2.89,28.6
	c-7.1,5.99-18.29,6.641-25.88,1.21c-5.98-4.13-9.34-11.47-8.75-18.68C504.2,829.32,512.29,821.04,521.69,819.99z"/>
<path fill="#FDFAFA" d="M70.57,828.48c14.79-0.7,29.63-0.12,44.43-0.311c57.56,0.03,115.12-0.06,172.67,0.05
	c-0.02,2.681-0.02,5.38-0.03,8.08c-71.66,0.021-143.31-0.02-214.97,0.021c-0.58-0.28-1.72-0.83-2.29-1.101
	C70.21,832.96,70.29,830.71,70.57,828.48z"/>
<path fill="#B22E01" d="M520.58,828.77c3.88-1.13,8.51-0.789,11.61,2.03c4.77,4.2,5.18,11.97,1.97,17.22
	c-3.061,4.891-9.97,5.99-14.95,3.631C510.54,847.23,511.16,831.98,520.58,828.77z"/>
<path fill="#FDFAFA" d="M720.56,828.27c57.811-0.22,115.62-0.039,173.431-0.1c15.81,0.08,31.62-0.17,47.42,0.14
	c1.08,2.631,1.79,6.061-0.79,8.101c-73.34-0.26-146.69,0-220.03-0.13C720.58,833.6,720.58,830.93,720.56,828.27z"/>
<path fill="#FDFAFA" d="M559.59,850.71c3.351-2.479,8.49,0.25,8.76,4.26c0.62,4.181-4.47,7.761-8.18,5.67
	C556.31,859.02,556.03,852.79,559.59,850.71z"/>
</svg>
