<?xml version="1.0" encoding="utf-8"?>
<!-- Generator: Adobe Illustrator 15.1.0, SVG Export Plug-In . SVG Version: 6.00 Build 0)  -->
<!DOCTYPE svg PUBLIC "-//W3C//DTD SVG 1.1//EN" "http://www.w3.org/Graphics/SVG/1.1/DTD/svg11.dtd">
<svg version="1.1" id="Layer_1" xmlns="http://www.w3.org/2000/svg" xmlns:xlink="http://www.w3.org/1999/xlink" x="0px" y="0px"
	 width="815px" height="133px" viewBox="0 0 815 133" enable-background="new 0 0 815 133" xml:space="preserve">
<g>
	<g>
		<g>
			<path fill="#BAA769" d="M43.922,103.227l7.316,1.85c-1.533,6.01-4.294,10.584-8.279,13.744c-3.985,3.15-8.856,4.726-14.613,4.726
				c-5.957,0-10.804-1.207-14.537-3.635c-3.731-2.425-6.573-5.939-8.521-10.543c-1.948-4.594-2.921-9.538-2.921-14.815
				c0-5.759,1.099-10.778,3.299-15.062c2.198-4.293,5.328-7.547,9.389-9.773c4.061-2.225,8.528-3.335,13.406-3.335
				c5.53,0,10.181,1.411,13.951,4.222c3.772,2.815,6.399,6.773,7.882,11.879l-7.203,1.697c-1.283-4.019-3.144-6.948-5.58-8.782
				c-2.439-1.84-5.507-2.756-9.203-2.756c-4.248,0-7.799,1.02-10.654,3.057c-2.854,2.037-4.858,4.77-6.014,8.198
				c-1.155,3.434-1.733,6.972-1.733,10.617c0,4.702,0.684,8.806,2.055,12.311c1.37,3.505,3.499,6.127,6.391,7.863
				c2.891,1.736,6.021,2.604,9.392,2.604c4.096,0,7.566-1.185,10.407-3.547C40.993,111.387,42.916,107.878,43.922,103.227z"/>
			<path fill="#BAA769" d="M58.025,95.686c0-9.176,2.464-16.362,7.392-21.553c4.926-5.193,11.287-7.786,19.079-7.786
				c5.104,0,9.706,1.221,13.802,3.654c4.099,2.443,7.221,5.84,9.372,10.203c2.148,4.362,3.225,9.307,3.225,14.839
				c0,5.607-1.133,10.617-3.394,15.042c-2.264,4.426-5.47,7.779-9.618,10.052c-4.149,2.279-8.623,3.409-13.425,3.409
				c-5.202,0-9.853-1.253-13.952-3.764c-4.097-2.518-7.2-5.952-9.313-10.301C59.083,105.137,58.025,100.538,58.025,95.686z
				 M65.567,95.798c0,6.666,1.79,11.909,5.373,15.74c3.583,3.841,8.075,5.755,13.481,5.755c5.507,0,10.037-1.934,13.594-5.813
				c3.559-3.867,5.336-9.361,5.336-16.476c0-4.5-0.759-8.429-2.282-11.786c-1.521-3.354-3.746-5.954-6.675-7.802
				c-2.926-1.85-6.216-2.774-9.86-2.774c-5.179,0-9.634,1.784-13.368,5.335C67.433,81.538,65.567,87.474,65.567,95.798z"/>
			<path fill="#BAA769" d="M120.095,122.609V67.322h11.012l13.084,39.145c1.207,3.647,2.087,6.372,2.641,8.184
				c0.626-2.009,1.607-4.962,2.942-8.858l13.235-38.47h9.842v55.287h-7.052V76.341l-16.063,46.269h-6.601l-15.988-47.062v47.062
				H120.095z"/>
			<path fill="#BAA769" d="M184.652,122.609V67.322h20.855c3.669,0,6.471,0.18,8.407,0.528c2.717,0.457,4.991,1.321,6.826,2.584
				c1.835,1.274,3.313,3.047,4.432,5.341c1.117,2.282,1.679,4.801,1.679,7.537c0,4.703-1.498,8.678-4.488,11.938
				c-2.993,3.26-8.398,4.883-16.216,4.883h-14.18v22.477H184.652z M191.967,93.609h14.292c4.726,0,8.083-0.883,10.07-2.637
				c1.983-1.765,2.977-4.235,2.977-7.434c0-2.312-0.583-4.293-1.752-5.934c-1.168-1.651-2.71-2.736-4.621-3.266
				c-1.231-0.323-3.507-0.49-6.823-0.49h-14.144V93.609z"/>
			<path fill="#BAA769" d="M272.442,67.322h7.314v31.942c0,5.557-0.627,9.972-1.885,13.235c-1.257,3.273-3.526,5.93-6.806,7.977
				c-3.283,2.052-7.585,3.069-12.915,3.069c-5.182,0-9.415-0.885-12.709-2.669c-3.294-1.792-5.644-4.368-7.052-7.754
				c-1.408-3.377-2.111-7.999-2.111-13.858V67.322h7.313v31.904c0,4.803,0.449,8.341,1.34,10.617
				c0.892,2.274,2.427,4.028,4.601,5.261c2.175,1.236,4.833,1.85,7.977,1.85c5.377,0,9.212-1.218,11.5-3.661
				c2.287-2.434,3.433-7.123,3.433-14.066V67.322z"/>
			<path fill="#BAA769" d="M306.002,122.609V73.85h-18.214v-6.527h43.817v6.527h-18.288v48.76H306.002z"/>
			<path fill="#BAA769" d="M339.261,122.609V67.322h39.971v6.527h-32.655v16.934h30.584v6.481h-30.584v18.821h33.938v6.523H339.261z
				"/>
			<path fill="#BAA769" d="M390.736,122.609V67.322h24.508c4.93,0,8.675,0.5,11.236,1.491c2.566,1,4.617,2.75,6.15,5.264
				c1.533,2.513,2.297,5.292,2.297,8.335c0,3.919-1.264,7.225-3.806,9.919c-2.542,2.689-6.462,4.396-11.769,5.123
				c1.938,0.934,3.41,1.848,4.415,2.754c2.136,1.962,4.159,4.415,6.07,7.354l9.617,15.048h-9.202l-7.316-11.505
				c-2.137-3.317-3.896-5.854-5.277-7.613c-1.382-1.764-2.623-2.99-3.712-3.699c-1.095-0.701-2.208-1.191-3.34-1.47
				c-0.831-0.177-2.188-0.265-4.075-0.265h-8.481v24.552H390.736z M398.052,91.728h15.721c3.344,0,5.962-0.349,7.844-1.038
				c1.887-0.694,3.32-1.802,4.302-3.321c0.981-1.518,1.472-3.174,1.472-4.956c0-2.618-0.952-4.771-2.849-6.449
				c-1.901-1.688-4.896-2.527-8.995-2.527h-17.495V91.728z"/>
		</g>
	</g>
	<g>
		<g>
			<path fill="#BAA769" d="M477.943,104.826l6.9-0.6c0.326,2.764,1.09,5.032,2.283,6.802c1.193,1.774,3.047,3.208,5.562,4.302
				c2.514,1.095,5.344,1.641,8.485,1.641c2.792,0,5.255-0.414,7.391-1.243c2.137-0.832,3.727-1.969,4.77-3.415
				c1.042-1.443,1.565-3.021,1.565-4.732c0-1.73-0.504-3.25-1.505-4.542c-1.009-1.297-2.669-2.388-4.98-3.264
				c-1.486-0.576-4.764-1.478-9.844-2.698c-5.08-1.217-8.633-2.368-10.67-3.447c-2.642-1.384-4.608-3.101-5.9-5.147
				c-1.297-2.047-1.943-4.345-1.943-6.886c0-2.788,0.793-5.396,2.378-7.821c1.585-2.424,3.896-4.268,6.938-5.528
				c3.042-1.254,6.419-1.886,10.141-1.886c4.099,0,7.711,0.659,10.844,1.981c3.128,1.32,5.533,3.264,7.222,5.83
				c1.684,2.565,2.585,5.465,2.712,8.706l-7.014,0.528c-0.378-3.489-1.651-6.132-3.825-7.914c-2.175-1.788-5.388-2.68-9.637-2.68
				c-4.424,0-7.65,0.811-9.675,2.434c-2.023,1.618-3.032,3.576-3.032,5.859c0,1.991,0.717,3.622,2.15,4.905
				c1.405,1.282,5.08,2.594,11.028,3.942c5.943,1.34,10.023,2.521,12.236,3.524c3.217,1.485,5.594,3.363,7.126,5.636
				c1.538,2.273,2.303,4.896,2.303,7.863c0,2.938-0.841,5.713-2.529,8.315c-1.684,2.604-4.103,4.623-7.254,6.071
				c-3.16,1.443-6.708,2.166-10.655,2.166c-5.005,0-9.193-0.727-12.575-2.185c-3.383-1.459-6.033-3.651-7.958-6.579
				C479.057,111.835,478.048,108.52,477.943,104.826z"/>
			<path fill="#BAA769" d="M571.389,103.207l7.316,1.85c-1.538,6.004-4.293,10.59-8.278,13.744
				c-3.986,3.153-8.854,4.729-14.612,4.729c-5.957,0-10.803-1.21-14.538-3.634c-3.73-2.428-6.57-5.943-8.523-10.542
				c-1.948-4.598-2.92-9.542-2.92-14.82c0-5.759,1.1-10.777,3.302-15.064c2.198-4.289,5.326-7.543,9.387-9.771
				c4.062-2.225,8.528-3.338,13.405-3.338c5.533,0,10.185,1.414,13.953,4.226c3.769,2.821,6.396,6.778,7.881,11.878l-7.201,1.698
				c-1.283-4.02-3.143-6.953-5.581-8.783c-2.438-1.836-5.504-2.756-9.203-2.756c-4.249,0-7.797,1.02-10.65,3.057
				c-2.854,2.039-4.857,4.765-6.014,8.198c-1.16,3.435-1.736,6.972-1.736,10.613c0,4.707,0.685,8.812,2.058,12.315
				c1.367,3.505,3.499,6.128,6.392,7.862c2.891,1.736,6.019,2.604,9.387,2.604c4.098,0,7.564-1.184,10.409-3.547
				C568.46,111.367,570.385,107.858,571.389,103.207z"/>
			<path fill="#BAA769" d="M588.959,122.59V67.309h7.32v55.281H588.959z"/>
			<path fill="#BAA769" d="M609.321,122.59V67.309h39.976v6.523h-32.654v16.934h30.579v6.479h-30.579v18.821h33.938v6.523H609.321z"
				/>
			<path fill="#BAA769" d="M660.608,122.59V67.309h7.505l29.036,43.399V67.309h7.015v55.281h-7.505l-29.037-43.443v43.443H660.608z"
				/>
			<path fill="#BAA769" d="M755.898,103.207l7.32,1.85c-1.537,6.004-4.297,10.59-8.278,13.744
				c-3.985,3.153-8.857,4.729-14.613,4.729c-5.962,0-10.806-1.21-14.536-3.634c-3.736-2.428-6.576-5.943-8.523-10.542
				c-1.948-4.598-2.925-9.542-2.925-14.82c0-5.759,1.104-10.777,3.302-15.064c2.202-4.289,5.33-7.543,9.391-9.771
				c4.058-2.225,8.528-3.338,13.405-3.338c5.529,0,10.18,1.414,13.953,4.226c3.769,2.821,6.396,6.778,7.882,11.878l-7.203,1.698
				c-1.283-4.02-3.146-6.953-5.584-8.783c-2.434-1.836-5.505-2.756-9.198-2.756c-4.249,0-7.802,1.02-10.655,3.057
				c-2.849,2.039-4.858,4.765-6.014,8.198c-1.156,3.435-1.731,6.972-1.731,10.613c0,4.707,0.685,8.812,2.052,12.315
				c1.373,3.505,3.505,6.128,6.391,7.862c2.893,1.736,6.019,2.604,9.392,2.604c4.095,0,7.566-1.184,10.405-3.547
				C752.975,111.367,754.898,107.858,755.898,103.207z"/>
			<path fill="#BAA769" d="M772.379,122.59V67.309h39.976v6.523h-32.659v16.934h30.584v6.479h-30.584v18.821h33.938v6.523H772.379z"
				/>
		</g>
	</g>
</g>
<g>
	<g>
		<path fill="#BAA769" d="M41.568,15.904c-4.367,0.452-5.332,1.305-5.332,7.264v14.801c0,4.545,0,15.208-14.693,15.208
			c-14.069,0-14.069-11.061-14.069-14.465v-17.7c0-4.199-0.794-4.824-5.106-5.108v-1.077h16.055v1.077
			c-4.481,0.341-5.162,1.08-5.162,5.108v18.152c0,3.634,0,11.516,9.87,11.516c4.426,0,7.661-1.817,9.303-4.483
			c0.738-1.243,1.305-3.117,1.305-7.71V23.168c0-6.069-1.361-7.033-5.333-7.264v-1.077h13.162V15.904z"/>
		<path fill="#BAA769" d="M83.729,15.904c-3.574,0.399-5.39,0.625-5.39,7.264v29.841h-0.964l-24.962-31.09h-0.114v22.125
			c0,5.845,1.192,7.095,5.333,7.264v1.074H44.301v-1.074c4.311-0.284,5.502-1.137,5.502-7.264V19.027
			c-2.326-2.839-3.233-3.123-5.502-3.123v-1.077H54l21.729,27.288h0.113V23.168c0-6.528-1.588-6.98-5.447-7.264v-1.077h13.334
			V15.904z"/>
		<path fill="#BAA769" d="M86.687,51.307c4.823-0.116,5.504-1.08,5.504-5.11V21.012c0-4.199-0.794-4.877-5.504-5.108v-1.077h16.851
			v1.077c-4.142,0.168-5.56,0.567-5.56,5.108v25.185c0,4.425,1.361,4.995,5.56,5.11v1.074H86.687V51.307z"/>
		<path fill="#BAA769" d="M145.183,15.904c-2.723,0.168-3.518,0.964-5.22,5.276l-12.594,31.829h-0.852L112.562,21.86
			c-2.325-5.163-3.346-5.84-6.014-5.956v-1.077h15.091v1.077c-3.177,0.168-4.254,0.284-4.254,2.101c0,0.848,1.02,3.175,2.325,6.069
			l8.566,19.173l8.339-20.817c0.114-0.344,1.078-2.723,1.078-3.916c0-2.327-1.985-2.495-4.14-2.61v-1.077h11.629V15.904z"/>
		<path fill="#BAA769" d="M179.003,52.381h-30.634v-1.074c3.631-0.231,4.936-0.738,4.936-5.11V21.012
			c0-4.483-1.363-4.824-4.936-5.108v-1.077h30.123l0.171,8.112h-1.418c-0.852-5.05-2.327-5.956-8.624-5.956h-7.658
			c-1.192,0-1.871,0-1.871,1.927v12.595h8.736c5.049,0,5.616-1.361,6.24-5.389h1.305v13.165h-1.305
			c-0.68-4.543-1.531-5.336-6.24-5.394l-8.736-0.113v14.065c0,2.329,0,2.387,8.452,2.387c7.092,0,9.927-1.702,12.423-7.429h1.59
			L179.003,52.381z"/>
		<path fill="#BAA769" d="M220.824,52.381h-9.135L198.188,34.91l-3.178,0.11v11.177c0,3.805,0.568,4.879,5.105,5.11v1.074h-15.713
			v-1.074c4.596-0.284,4.822-1.481,4.822-5.73V21.012c0-4.199-0.851-4.709-4.822-5.108v-1.077h15.658
			c5.05,0,14.41,1.192,14.41,9.929c0,7.598-7.375,8.96-10.27,9.53l11.688,14.354c1.248,1.528,2.609,2.55,4.937,2.666V52.381z
			 M195.01,32.922c4.766-0.058,13.275-0.168,13.275-8.28c0-7.542-7.431-7.716-9.756-7.716c-3.008,0-3.519,0.395-3.519,2.043V32.922z
			"/>
		<path fill="#BAA769" d="M248.972,26.117h-1.419c-0.964-4.656-4.595-9.761-10.552-9.761c-2.836,0-5.73,1.759-5.73,5.278
			c0,8.511,18.948,9.646,18.948,21.276c0,4.819-3.857,10.266-11.971,10.266c-4.311,0-7.089-1.928-8.792-1.928
			c-1.191,0-1.758,0.964-1.758,1.875h-1.248l-1.703-12.03h1.304c1.079,2.666,3.972,10.044,11.631,10.044
			c4.538,0,6.807-3.235,6.807-6.3c0-3.235-0.907-5.163-9.245-10.04c-5.221-3.009-8.852-5.506-8.852-11.121
			c0-6.468,5.163-9.646,10.268-9.646c3.402,0,6.467,1.93,7.884,1.93c1.591,0,1.876-1.307,1.988-1.93h1.192L248.972,26.117z"/>
		<path fill="#BAA769" d="M256.013,51.307c4.823-0.116,5.503-1.08,5.503-5.11V21.012c0-4.199-0.793-4.877-5.503-5.108v-1.077h16.851
			v1.077c-4.142,0.168-5.561,0.567-5.561,5.108v25.185c0,4.425,1.361,4.995,5.561,5.11v1.074h-16.851V51.307z"/>
		<path fill="#BAA769" d="M300.608,52.381h-16.564v-1.074c5.162-0.231,5.333-1.534,5.333-5.73V17.209h-3.063
			c-6.242,0-7.774,1.079-9.021,7.264h-1.363l0.341-9.646h31.997l0.339,9.646h-1.36c-1.192-6.242-2.78-7.264-9.022-7.264h-3.063
			v28.987c0,3.863,0.681,4.942,5.447,5.11V52.381z"/>
		<path fill="#BAA769" d="M350.597,15.904c-2.042,0.231-3.916,0.452-7.827,6.468l-8.395,12.821v11.003
			c0,4.089,0.734,5.052,5.843,5.11v1.074h-17.362v-1.074c5.56-0.116,5.731-1.418,5.731-5.73v-9.872l-7.435-10.896
			c-5.785-8.506-6.635-8.674-9.188-8.905v-1.077h15.884v1.077c-2.609,0.116-4.027,0.168-4.027,1.762
			c0,0.622,0.455,1.697,0.963,2.435l8.397,12.595l8.113-12.821c0.398-0.623,0.794-1.303,0.794-2.096
			c0-1.759-2.155-1.875-3.916-1.875v-1.077h12.424V15.904z"/>
		<path fill="#BAA769" d="M367.684,33.66c0-13.042,9.249-19.627,18.551-19.627c9.307,0,18.555,6.585,18.555,19.627
			c0,12.09-8.285,19.517-18.555,19.517C375.969,53.177,367.684,45.75,367.684,33.66z M398.32,33.602
			c0-12.931-6.297-17.529-12.085-17.529c-5.784,0-12.082,4.598-12.082,17.529c0,12.484,5.784,17.537,12.082,17.537
			C392.533,51.139,398.32,46.086,398.32,33.602z"/>
		<path fill="#BAA769" d="M433.673,39.282c-0.625-4.769-1.987-5.336-6.239-5.394l-8.228-0.113v12.421
			c0,4.257,1.137,4.942,5.163,5.11v1.074h-15.886v-1.074c4.255-0.231,4.938-1.08,4.938-5.73V21.012c0-4.483-1.361-4.824-4.938-5.108
			v-1.077h30.124l0.169,8.112h-1.416c-0.854-5.05-2.327-5.956-8.624-5.956h-7.713c-1.419,0-1.817,0.226-1.817,1.927v12.595h8.228
			c4.65,0,5.672-1.132,6.239-5.389h1.303v13.165H433.673z"/>
		<path fill="#BAA769" d="M456.604,14.828h14.979c7.828,0,14.861,3.004,14.861,10.21c0,4.425-2.493,6.751-3.457,7.658
			c-2.441,2.324-6.073,3.351-12.027,3.351c-1.362,0-2.442-0.063-3.803-0.173v10.323c0,4.146,0.964,4.995,5.331,5.11v1.074h-15.885
			v-1.074c4.767-0.341,4.767-1.649,4.767-5.73V21.012c0-4.028-0.623-4.709-4.767-5.108V14.828z M467.157,33.602
			c1.077,0.115,2.209,0.173,3.406,0.173c2.099,0,9.698,0,9.698-8.622c0-8.112-8.285-8.228-10.777-8.228
			c-1.704,0-2.327,0.058-2.327,1.928V33.602z"/>
		<path fill="#BAA769" d="M489.35,51.307c4.819-0.116,5.5-1.08,5.5-5.11V21.012c0-4.199-0.794-4.877-5.5-5.108v-1.077h16.847v1.077
			c-4.141,0.168-5.56,0.567-5.56,5.108v25.185c0,4.425,1.363,4.995,5.56,5.11v1.074H489.35V51.307z"/>
		<path fill="#BAA769" d="M533.941,52.381h-16.565v-1.074c5.165-0.231,5.333-1.534,5.333-5.73V17.209h-3.062
			c-6.24,0-7.773,1.079-9.023,7.264h-1.36l0.341-9.646h31.997l0.339,9.646h-1.36c-1.194-6.242-2.778-7.264-9.023-7.264h-3.064
			v28.987c0,3.863,0.683,4.942,5.449,5.11V52.381z"/>
		<path fill="#BAA769" d="M569.688,52.381h-16.561v-1.074c5.163-0.231,5.333-1.534,5.333-5.73V17.209h-3.064
			c-6.244,0-7.772,1.079-9.022,7.264h-1.36l0.343-9.646h31.995l0.339,9.646h-1.358c-1.194-6.242-2.781-7.264-9.023-7.264h-3.064
			v28.987c0,3.863,0.683,4.942,5.444,5.11V52.381z"/>
		<path fill="#BAA769" d="M606.402,26.117h-1.413c-0.964-4.656-4.596-9.761-10.555-9.761c-2.836,0-5.728,1.759-5.728,5.278
			c0,8.511,18.947,9.646,18.947,21.276c0,4.819-3.859,10.266-11.972,10.266c-4.313,0-7.091-1.928-8.795-1.928
			c-1.189,0-1.757,0.964-1.757,1.875h-1.248l-1.704-12.03h1.311c1.076,2.666,3.968,10.044,11.626,10.044
			c4.54,0,6.807-3.235,6.807-6.3c0-3.235-0.908-5.163-9.246-10.04c-5.219-3.009-8.851-5.506-8.851-11.121
			c0-6.468,5.163-9.646,10.271-9.646c3.401,0,6.466,1.93,7.884,1.93c1.589,0,1.873-1.307,1.985-1.93h1.19L606.402,26.117z"/>
		<path fill="#BAA769" d="M613.39,14.828h15.886c4.935,0,14.861,0.791,14.861,9.583c0,6.3-4.99,7.547-7.545,8.175v0.11
			c4.937,1.021,9.475,3.745,9.475,9.704c0,2.153-1.137,9.982-13.731,9.982H613.39v-1.074c4.764-0.116,5.444-1.08,5.444-5.11V21.012
			c0-4.199-0.793-4.877-5.444-5.108V14.828z M624.621,31.674l5.39-0.053c1.589,0,8.34-0.115,8.34-6.865
			c0-6.751-5.9-7.831-9.929-7.831c-1.192,0-1.983,0.058-2.551,0.058c-1.134,0-1.25,0.795-1.25,1.644V31.674z M624.621,47.957
			c0,2.103,1.022,2.329,4.311,2.329c3.747,0,10.609-0.512,10.609-8.112c0-4.656-2.779-6.526-5.729-7.435
			c-1.928-0.567-3.742-0.851-9.191-0.851V47.957z"/>
		<path fill="#BAA769" d="M690.78,15.904c-4.369,0.452-5.331,1.305-5.331,7.264v14.801c0,4.545,0,15.208-14.695,15.208
			c-14.068,0-14.068-11.061-14.068-14.465v-17.7c0-4.199-0.796-4.824-5.105-5.108v-1.077h16.052v1.077
			c-4.48,0.341-5.158,1.08-5.158,5.108v18.152c0,3.634,0,11.516,9.871,11.516c4.423,0,7.655-1.817,9.302-4.483
			c0.738-1.243,1.308-3.117,1.308-7.71V23.168c0-6.069-1.365-7.033-5.333-7.264v-1.077h13.159V15.904z"/>
		<path fill="#BAA769" d="M730.216,52.381h-9.131L707.582,34.91l-3.176,0.11v11.177c0,3.805,0.565,4.879,5.105,5.11v1.074h-15.715
			v-1.074c4.594-0.284,4.821-1.481,4.821-5.73V21.012c0-4.199-0.851-4.709-4.821-5.108v-1.077h15.657
			c5.05,0,14.409,1.192,14.409,9.929c0,7.598-7.374,8.96-10.268,9.53l11.688,14.354c1.247,1.528,2.607,2.55,4.932,2.666V52.381z
			 M704.406,32.922c4.764-0.058,13.272-0.168,13.272-8.28c0-7.542-7.432-7.716-9.758-7.716c-3.005,0-3.515,0.395-3.515,2.043V32.922
			z"/>
		<path fill="#BAA769" d="M771.983,33.318c-2.497,0.231-3.974,0.341-3.974,4.372v11.403c0,0.795-7.544,4.083-13.786,4.083
			c-5.615,0-11.913-1.702-15.941-6.069c-3.004-3.291-4.706-6.636-4.706-14.068c0-9.53,7.372-19.007,19.402-19.007
			c5.728,0,8.338,1.872,10.152,1.872c0.457,0,2.329-0.286,2.666-1.872h1.25l0.454,11.975h-1.308
			c-1.529-4.088-4.479-9.704-12.422-9.704c-5.387,0-13.729,3.572-13.729,17.926c0,10.266,5.901,16.678,14.695,16.678
			c3.858,0,7.771-1.303,7.771-3.346v-9.191c0-4.711-1.135-4.769-4.99-5.052v-1.017h14.465V33.318z"/>
		<path fill="#BAA769" d="M774.882,51.307c4.767-0.231,4.997-1.481,4.997-5.73V21.012c0-4.199-0.798-4.767-4.997-5.108v-1.077
			h15.775v1.077c-4.313,0.341-4.995,1.08-4.995,5.108v11.003h17.19V21.012c0-4.199-0.796-4.767-4.992-5.108v-1.077h15.772v1.077
			c-4.31,0.341-4.992,1.08-4.992,5.108v25.185c0,3.745,0.567,4.827,4.992,5.11v1.074H797.86v-1.074
			c4.767-0.231,4.992-1.481,4.992-5.73V34.513h-17.19v11.684c0,3.745,0.569,4.827,4.995,5.11v1.074h-15.775V51.307z"/>
	</g>
</g>
</svg>
