<?xml version="1.0" encoding="utf-8"?>
<!-- Generator: Adobe Illustrator 15.1.0, SVG Export Plug-In . SVG Version: 6.00 Build 0)  -->
<!DOCTYPE svg PUBLIC "-//W3C//DTD SVG 1.1//EN" "http://www.w3.org/Graphics/SVG/1.1/DTD/svg11.dtd">
<svg version="1.1" id="Layer_1" xmlns="http://www.w3.org/2000/svg" xmlns:xlink="http://www.w3.org/1999/xlink" x="0px" y="0px"
	 width="234px" height="72px" viewBox="0 0 234 72" enable-background="new 0 0 234 72" xml:space="preserve">
<g id="pitt_1_" enable-background="new    ">
	<g id="pitt">
		<g>
			<path fill="#253671" d="M13.687,21.823H0.068v28.684H7.54v-9.563h6.146c6.308,0,10.364-2.773,10.364-9.881
				C24.05,24.272,19.029,21.823,13.687,21.823z M12.563,35.16H7.541v-7.352h5.021c2.29,0,4.017,1.084,4.017,3.775
				C16.579,34.195,14.891,35.16,12.563,35.16z M26.583,50.506h7.472V21.823h-7.472V50.506z M36.186,28.25h8.557v22.256h7.471V28.25
				h8.557v-6.428H36.186V28.25z M63.022,21.823v6.428h8.557v22.256h7.471V28.25h8.557v-6.428L63.022,21.823L63.022,21.823z"/>
		</g>
	</g>
</g>
<g id="engineering_1_" enable-background="new    ">
	<g id="engineering_2_">
		<g>
			<path fill="#253671" d="M110.075,47.631h4.772V46.68h-4.772V42.11h5.107v-0.95h-6.233v12.553h6.392v-0.948h-5.266V47.631z
				 M127.024,52.097h-0.033l-4.808-10.937h-1.515v12.553h1.126V42.777h0.035l4.809,10.936h1.515V41.16h-1.129V52.097z
				 M137.146,48.264h2.976v0.265c0,2.934-0.934,4.447-2.623,4.447c-1.798,0-2.889-1.476-2.889-5.538
				c0-4.061,1.091-5.537,2.889-5.537c1.654,0,2.481,1.265,2.481,2.779h1.128c-0.142-2.164-1.215-3.727-3.609-3.727
				c-2.573,0-4.017,1.985-4.017,6.485c0,4.503,1.443,6.488,4.017,6.488c1.25,0,2.376-0.896,2.763-2.286h0.036v2.074h0.881v-6.397
				h-4.032V48.264z M147.528,53.713h1.128V41.16h-1.128V53.713z M161.469,52.097h-0.034l-4.811-10.937h-1.513v12.553h1.126V42.777
				h0.035l4.809,10.936h1.513V41.16h-1.125V52.097z M169.861,47.631h4.773V46.68h-4.773V42.11h5.107v-0.95h-6.233v12.553h6.392
				v-0.948h-5.266V47.631L169.861,47.631z M182.095,47.631h4.773V46.68h-4.773V42.11h5.107v-0.95h-6.236v12.553h6.394v-0.948h-5.265
				V47.631L182.095,47.631z M199.838,50.496c-0.052-1.934-0.58-2.83-2.148-2.972v-0.035c1.674-0.316,2.273-1.67,2.273-3.182
				c0-1.952-1.161-3.147-3.257-3.147h-3.753v12.553h1.127v-5.73h2.13c2.026,0,2.432,0.703,2.503,2.918l0.033,1.055
				c0.02,0.666,0.07,1.318,0.335,1.758h1.321c-0.439-0.493-0.512-1.158-0.528-1.845L199.838,50.496z M196.018,47.033h-1.938V42.11
				h2.061c2.043,0,2.695,0.931,2.695,2.462C198.836,46.225,197.796,47.033,196.018,47.033z M206.241,53.713h1.129V41.16h-1.129
				V53.713z M220.183,52.097h-0.036l-4.809-10.937h-1.513v12.553h1.125V42.777h0.036l4.809,10.936h1.515V41.16h-1.127V52.097z
				 M229.861,47.314v0.949h2.976v0.265c0,2.934-0.933,4.447-2.622,4.447c-1.797,0-2.89-1.476-2.89-5.538
				c0-4.061,1.093-5.537,2.89-5.537c1.654,0,2.48,1.265,2.48,2.779h1.128c-0.142-2.164-1.215-3.727-3.608-3.727
				c-2.572,0-4.016,1.985-4.016,6.485c0,4.503,1.443,6.488,4.016,6.488c1.249,0,2.374-0.896,2.765-2.286h0.034v2.074h0.879v-6.397
				h-4.031V47.314z"/>
		</g>
	</g>
</g>
<g id="swanson_1_" enable-background="new    ">
	<g id="swanson">
		<g>
			<path fill="#CBB778" d="M117.471,26.482c-2.985-0.675-5.945-1.014-5.945-3.297c0-2.415,2.077-3.167,4.154-3.167
				c2.543,0,4.309,1.143,4.595,3.791h2.337c-0.156-4.076-3.037-5.867-6.829-5.867c-3.374,0-6.723,1.661-6.723,5.426
				c0,3.401,2.986,4.258,5.945,4.905c2.959,0.65,5.919,1.09,5.919,3.635c0,2.674-2.466,3.375-4.698,3.375
				c-2.804,0-5.4-1.35-5.4-4.465h-2.336c0,4.517,3.504,6.542,7.658,6.542c3.376,0,7.243-1.584,7.243-5.529
				C123.39,28.195,120.43,27.157,117.471,26.482z M145.093,18.382l-3.765,15.421h-0.052l-4.101-15.421h-2.674l-4.154,15.421h-0.054
				l-3.632-15.421h-2.52l4.751,18.536h2.57l4.283-15.576h0.053l4.23,15.576h2.57l4.958-18.536H145.093z M153.53,18.382
				l-7.241,18.536h2.543l2.077-5.583h7.841l2.023,5.583h2.728l-7.243-18.536H153.53z M151.688,29.259l3.142-8.645h0.052l3.09,8.645
				H151.688z M177.727,33.413h-0.052l-9.762-15.032h-2.621v18.535h2.337V22.042h0.05l9.685,14.876h2.701V18.382h-2.338V33.413z
				 M191.719,26.482c-2.985-0.675-5.944-1.014-5.944-3.297c0-2.415,2.077-3.167,4.153-3.167c2.544,0,4.312,1.143,4.593,3.791h2.338
				c-0.156-4.076-3.038-5.867-6.828-5.867c-3.374,0-6.725,1.661-6.725,5.426c0,3.401,2.986,4.258,5.945,4.905
				c2.96,0.65,5.921,1.09,5.921,3.635c0,2.674-2.468,3.375-4.701,3.375c-2.804,0-5.399-1.35-5.399-4.465h-2.336
				c0,4.517,3.506,6.542,7.659,6.542c3.373,0,7.241-1.584,7.241-5.529C197.639,28.195,194.679,27.157,191.719,26.482z
				 M207.946,17.939c-5.895,0-8.881,4.674-8.881,9.709s2.986,9.709,8.881,9.709c5.893,0,8.878-4.673,8.878-9.709
				S213.839,17.939,207.946,17.939z M207.946,35.282c-4.519,0-6.415-3.894-6.415-7.632s1.896-7.632,6.415-7.632
				c4.517,0,6.413,3.894,6.413,7.632S212.463,35.282,207.946,35.282z M231.596,18.382v15.032h-0.052l-9.761-15.032h-2.622v18.536
				h2.336V22.042h0.051l9.685,14.876h2.698V18.382H231.596z"/>
		</g>
	</g>
</g>
<g id="Shape_4_1_" enable-background="new    ">
	<g id="Shape_4_2_">
		<g>
			<rect x="97.377" y="13.92" fill="#CBB778" width="1.407" height="44.158"/>
		</g>
	</g>
</g>
</svg>
