<?xml version="1.0" encoding="utf-8"?>
<!-- Generator: Adobe Illustrator 15.1.0, SVG Export Plug-In . SVG Version: 6.00 Build 0)  -->
<!DOCTYPE svg PUBLIC "-//W3C//DTD SVG 1.1//EN" "http://www.w3.org/Graphics/SVG/1.1/DTD/svg11.dtd">
<svg version="1.1" xmlns="http://www.w3.org/2000/svg" xmlns:xlink="http://www.w3.org/1999/xlink" x="0px" y="0px" width="234px"
	 height="72px" viewBox="0 0 234 72" enable-background="new 0 0 234 72" xml:space="preserve">
<g id="pitt_1_" enable-background="new    ">
	<g id="pitt">
		<g>
			<path fill="#253671" d="M21.786,22.934H9.235v26.435h6.886v-8.813h5.664c5.813,0,9.552-2.555,9.552-9.106
				C31.337,25.192,26.71,22.934,21.786,22.934z M20.75,35.226h-4.628V28.45h4.628c2.11,0,3.702,0.999,3.702,3.479
				C24.451,34.337,22.896,35.226,20.75,35.226z M33.672,49.368h6.886V22.934h-6.886V49.368z M42.521,28.857h7.886v20.511h6.886
				V28.857h7.886v-5.924H42.521V28.857z M67.254,22.934v5.924h7.886v20.511h6.886V28.857h7.886v-5.924H67.254z"/>
		</g>
	</g>
</g>
<g id="engineering_1_" enable-background="new    ">
	<g id="engineering_2_">
		<g>
			<path fill-rule="evenodd" clip-rule="evenodd" fill="#253671" d="M110.618,46.719h4.398v-0.876h-4.398v-4.212h4.707v-0.875
				h-5.745v11.568h5.891V51.45h-4.853V46.719z M126.239,50.835h-0.031l-4.431-10.079h-1.396v11.568h1.038V42.246h0.032l4.432,10.078
				h1.396V40.756h-1.04V50.835z M135.566,47.302h2.743v0.244c0,2.704-0.861,4.099-2.418,4.099c-1.656,0-2.662-1.36-2.662-5.104
				c0-3.742,1.006-5.104,2.662-5.104c1.525,0,2.287,1.167,2.287,2.562h1.04c-0.131-1.994-1.12-3.435-3.327-3.435
				c-2.371,0-3.702,1.83-3.702,5.978c0,4.149,1.331,5.98,3.702,5.98c1.152,0,2.19-0.827,2.547-2.108h0.033v1.912h0.811v-5.896
				h-3.716V47.302z M145.135,52.324h1.04V40.756h-1.04V52.324z M157.982,50.835h-0.031l-4.433-10.079h-1.395v11.568h1.038V42.246
				h0.033l4.431,10.078h1.395V40.756h-1.038V50.835z M165.717,46.719h4.399v-0.876h-4.399v-4.212h4.707v-0.875h-5.745v11.568h5.891
				V51.45h-4.853V46.719z M176.991,46.719h4.399v-0.876h-4.399v-4.212h4.707v-0.875h-5.747v11.568h5.893V51.45h-4.853V46.719z
				 M193.344,49.359c-0.048-1.782-0.535-2.608-1.98-2.738v-0.032c1.542-0.292,2.095-1.539,2.095-2.933c0-1.799-1.071-2.9-3.002-2.9
				h-3.458v11.568h1.038v-5.281H190c1.867,0,2.241,0.648,2.307,2.69l0.031,0.971c0.017,0.615,0.065,1.215,0.308,1.62h1.218
				c-0.405-0.454-0.471-1.067-0.487-1.7L193.344,49.359z M189.823,46.168h-1.787v-4.537h1.9c1.883,0,2.483,0.858,2.483,2.269
				C192.42,45.423,191.462,46.168,189.823,46.168z M199.245,52.324h1.04V40.756h-1.04V52.324z M212.094,50.835h-0.034l-4.431-10.079
				h-1.395v11.568h1.038V42.246h0.032l4.433,10.078h1.395V40.756h-1.038V50.835z M221.014,46.428v0.874h2.742v0.244
				c0,2.704-0.86,4.099-2.417,4.099c-1.656,0-2.663-1.36-2.663-5.104c0-3.742,1.007-5.104,2.663-5.104
				c1.524,0,2.286,1.167,2.286,2.562h1.04c-0.131-1.994-1.12-3.435-3.326-3.435c-2.37,0-3.701,1.83-3.701,5.978
				c0,4.149,1.331,5.98,3.701,5.98c1.151,0,2.189-0.827,2.548-2.108h0.032v1.912h0.81v-5.896H221.014z"/>
		</g>
	</g>
</g>
<g id="swanson_1_" enable-background="new    ">
	<g id="swanson">
		<g>
			<path fill-rule="evenodd" clip-rule="evenodd" fill="#CBB778" d="M117.434,27.228c-2.751-0.622-5.479-0.934-5.479-3.039
				c0-2.225,1.914-2.919,3.828-2.919c2.344,0,3.971,1.053,4.235,3.493h2.153c-0.144-3.756-2.799-5.407-6.293-5.407
				c-3.109,0-6.196,1.531-6.196,5.001c0,3.134,2.752,3.924,5.479,4.521c2.727,0.599,5.455,1.005,5.455,3.35
				c0,2.465-2.272,3.11-4.33,3.11c-2.584,0-4.977-1.244-4.977-4.115h-2.153c0,4.163,3.23,6.029,7.058,6.029
				c3.111,0,6.675-1.46,6.675-5.096C122.889,28.807,120.161,27.85,117.434,27.228z M142.89,19.763l-3.469,14.212h-0.048
				l-3.779-14.212h-2.464l-3.829,14.212h-0.049l-3.348-14.212h-2.321l4.378,17.082h2.369l3.947-14.354h0.049l3.898,14.354h2.37
				l4.569-17.082H142.89z M150.666,19.763l-6.673,17.082h2.344l1.914-5.144h7.226l1.865,5.144h2.513l-6.676-17.082H150.666z
				 M148.968,29.787l2.896-7.967h0.047l2.848,7.967H148.968z M172.966,33.615h-0.048l-8.996-13.853h-2.416v17.082h2.154V23.136
				h0.046l8.925,13.709h2.489V19.763h-2.154V33.615z M185.861,27.228c-2.752-0.622-5.478-0.934-5.478-3.039
				c0-2.225,1.914-2.919,3.827-2.919c2.344,0,3.973,1.053,4.234,3.493h2.154c-0.144-3.756-2.8-5.407-6.294-5.407
				c-3.109,0-6.196,1.531-6.196,5.001c0,3.134,2.751,3.924,5.479,4.521c2.728,0.599,5.456,1.005,5.456,3.35
				c0,2.465-2.274,3.11-4.332,3.11c-2.584,0-4.977-1.244-4.977-4.115h-2.152c0,4.163,3.23,6.029,7.058,6.029
				c3.109,0,6.675-1.46,6.675-5.096C191.316,28.807,188.589,27.85,185.861,27.228z M200.817,19.355
				c-5.433,0-8.185,4.307-8.185,8.948s2.752,8.948,8.185,8.948c5.43,0,8.181-4.307,8.181-8.948S206.247,19.355,200.817,19.355z
				 M200.817,35.338c-4.165,0-5.912-3.589-5.912-7.034s1.747-7.034,5.912-7.034c4.162,0,5.909,3.589,5.909,7.034
				S204.979,35.338,200.817,35.338z M222.612,19.763v13.853h-0.048l-8.996-13.853h-2.416v17.082h2.152V23.136h0.048l8.925,13.709
				h2.487V19.763H222.612z"/>
		</g>
	</g>
</g>
<g id="Shape_4_1_" enable-background="new    ">
	<g id="Shape_4_2_">
		<g>
			<rect x="98.915" y="15.651" fill="#CBB778" width="1.297" height="40.696"/>
		</g>
	</g>
</g>
</svg>
