<?xml version="1.0" encoding="utf-8"?>
<!-- Generator: Adobe Illustrator 15.1.0, SVG Export Plug-In . SVG Version: 6.00 Build 0)  -->
<!DOCTYPE svg PUBLIC "-//W3C//DTD SVG 1.1//EN" "http://www.w3.org/Graphics/SVG/1.1/DTD/svg11.dtd">
<svg version="1.1" id="Layer_1" xmlns="http://www.w3.org/2000/svg" xmlns:xlink="http://www.w3.org/1999/xlink" x="0px" y="0px"
	 width="815px" height="315px" viewBox="0 0 815 315" enable-background="new 0 0 815 315" xml:space="preserve">
<path fill="#231F20" d="M189.791,151.127c-6.827-1.228-22.713-4.88-22.713-12.289v-1.464c0-10.051,13.354-12.731,21.245-12.731
	h1.157c10.136,0,17.079,4.217,21.398,7.375c0.889,0.677,1.965,1.035,3.106,1.035c2.165,0,4.118-1.306,4.747-3.173
	c0.622-1.831-0.025-3.762-1.712-5.055c-5.459-4.006-14.254-9.329-27.539-9.329h-1.16c-14.85,0-30.833,6.848-30.833,21.881v1.461
	c0,16.034,23.152,19.793,30.761,21.028c13.126,2.123,25.943,5.184,25.943,16.993c0,11.422-12.367,15.492-23.942,15.492h-1.736
	c-8.539,0-20.855-5.127-24.872-12.485c-0.863-1.575-2.509-2.515-4.399-2.515c-1.955,0-3.764,0.995-4.601,2.534
	c-0.739,1.341-0.68,2.973,0.097,4.169c5.732,10.776,21.994,17.446,33.775,17.446h1.736c15.557,0,33.726-6.453,33.729-24.642
	C223.978,157.029,204.218,153.618,189.791,151.127"/>
<path fill="#231F20" d="M273.369,115.496h-2.124c-17.535,0-31.8,12.219-31.8,27.24v31.524c0,15.021,14.265,27.24,31.8,27.24h2.124
	c17.531,0,31.795-12.219,31.795-27.24v-31.524C305.164,127.715,290.9,115.496,273.369,115.496 M249.231,174.197v-31.461
	c0-9.977,9.876-18.094,22.014-18.094h2.124c12.134,0,22.008,8.117,22.008,18.094v31.524c0,9.977-9.874,18.095-22.008,18.095h-2.124
	c-11.651,0-21.211-7.48-21.961-16.903C249.265,175.035,249.231,174.628,249.231,174.197"/>
<path fill="#231F20" d="M385.707,115.496c-2.688,0-4.795,2.043-4.795,4.653v55.259l0.029,2.006
	c-1.172,8.376-10.871,14.938-22.082,14.938h-2.121c-12.14,0-22.015-8.188-22.015-18.255v-53.948c0-2.651-2.143-4.653-4.985-4.653
	c-2.691,0-4.801,2.043-4.801,4.653v53.948c0,15.109,14.268,27.4,31.801,27.4h2.121c8.223,0,16.405-2.651,22.055-7.039v13.925
	c0,9.977-9.875,18.091-22.016,18.091h-2.121c-11.414,0-21.564-5.101-24.14-12.156c-0.76-1.924-2.522-3.117-4.596-3.117
	c-2.41,0-4.99,1.807-4.99,4.495c0,0.406,0,1.228,0.519,2.05c4.471,11.736,20.061,17.878,33.207,17.878h2.121
	c8.444,0,16.399-2.813,22.401-7.919c6.058-5.154,9.396-12.019,9.394-19.323v-88.232
	C390.693,117.276,388.105,115.496,385.707,115.496"/>
<path fill="#231F20" d="M442.234,194.607l-0.186,0.046c-0.84-1.397-2.434-2.301-4.346-2.301c-8.521,0-15.457-5.71-15.457-12.729
	V86.189c0-2.741-2.053-4.655-4.992-4.655c-2.688,0-4.791,2.046-4.791,4.655v93.434c0,12.267,11.086,21.879,25.24,21.879
	c3.236,0,4.986-2.314,4.988-4.491c0-0.835-0.211-1.604-0.588-2.267L442.234,194.607z"/>
<path fill="#231F20" d="M485.283,115.496h-1.539c-17.639,0-31.988,12.219-31.988,27.24v31.524c0,15.021,14.264,27.24,31.797,27.24
	h2.121c13.553,0,25.627-7.383,30.074-18.45l0.105-0.328c0.094-0.254,0.266-0.726,0.266-1.311c0-2.52-2.275-4.492-5.184-4.492
	c-2.225,0-4.051,1.283-4.375,2.897c-3.141,7.5-11.535,12.538-20.887,12.538h-2.121c-12.139,0-22.012-8.118-22.012-18.095v-11.432
	h50.941c2.748,0,4.986-2.089,4.986-4.654v-15.438C517.469,127.206,503.631,115.496,485.283,115.496 M507.686,142.736v10.944h-46.145
	v-10.944c0-9.977,9.961-18.094,22.207-18.094h1.926C497.813,124.643,507.686,132.76,507.686,142.736"/>
<path fill="#231F20" d="M571.787,115.499h-1.932c-8.328,0-16.563,2.687-22.207,7.135v-2.481c0-2.645-2.049-4.492-4.984-4.492
	c-2.734,0-4.797,1.931-4.797,4.492v76.692c0,2.61,2.107,4.656,4.797,4.656c2.842,0,4.984-2.002,4.984-4.656v-55.567
	c0-9.017,10.168-16.635,22.207-16.635h1.932c12.242,0,22.203,8.19,22.203,18.257v53.945c0,2.61,2.107,4.656,4.797,4.656
	c2.4,0,4.992-1.78,4.992-4.656v-53.943C603.779,127.793,589.428,115.499,571.787,115.499"/>
<path fill="#231F20" d="M655.781,192.353c-8.666,0-15.453-5.591-15.453-12.729v-54.654h14.297c3.18,0,4.895-2.357,4.895-4.575
	c0-2.216-1.715-4.573-4.895-4.573h-14.297V86.029c0-2.608-2.105-4.573-4.895-4.573s-4.891,1.965-4.891,4.573v29.791h-7.547
	c-3.273,0-5.039,2.357-5.039,4.573c0,2.218,1.766,4.575,5.039,4.575h7.547v54.654c0,12.267,11.088,21.877,25.238,21.877
	c3.064,0,4.895-2.325,4.895-4.574C660.676,194.678,658.846,192.353,655.781,192.353"/>
<path fill="#231F20" d="M96.934,302.234h622.394V13.271H96.934V302.234z M107.981,23.868h600.296v267.765H107.981V23.868z"/>
</svg>
