<svg xmlns="http://www.w3.org/2000/svg" width="197" height="75" viewBox="0 0 197 75" version="1.1"><title>Artboard 1</title><desc>Created with Sketch.</desc><g stroke="none" stroke-width="1" fill="none" fill-rule="evenodd"><g transform="translate(1.000000, -56.000000)"><path d="M0.3 0.7L193 0.7 193 193.4 0.3 193.4 0.3 0.7Z" fill="#FFFFFF"/><path d="M96.6 67C102.3 67 107.2 69.4 109.1 72.7 104.9 71.9 100.4 71.3 98.2 71.3 97.8 71.2 97.1 71.6 97.2 72.2L97.2 84.5 96.1 84.5 96.1 72.2C96.2 71.6 95.5 71.2 94.9 71.3 92.9 71.3 88.3 71.9 84.2 72.7 85.9 69.4 90.9 67 96.6 67L96.6 67ZM109.5 74.2C109.6 74.6 109.8 75.2 109.8 75.6 109.8 79.5 106 82.9 100.8 84L99.1 75.5C99 74.9 99 74.3 99 73.8 99.1 73.3 99.5 73 100 73 103.1 73.2 106.5 73.6 109.5 74.2L109.5 74.2ZM92.4 84C87.2 82.9 83.5 79.5 83.5 75.6 83.5 75.2 83.5 74.6 83.6 74.2 86.8 73.6 90 73.2 93.2 73 93.7 73 94.2 73.3 94.2 73.8 94.3 74.3 94.2 74.9 94.2 75.5L92.4 84 92.4 84Z" fill="#1B72A9"/><path d="M87.5 91.5L87.5 88.9 79.2 88.9 79.2 91.5 81.6 91.5 81.6 97.8 85.1 97.8 85.1 91.5 87.5 91.5 87.5 91.5ZM91.9 92.5L90.1 97.8 86.7 97.8 90 88.9 93.7 88.9 97.1 97.8 93.6 97.8 91.9 92.5 91.9 92.5ZM104.6 91.5L104.6 88.9 96.2 88.9 96.2 91.5 98.7 91.5 98.7 97.8 102.1 97.8 102.1 91.5 104.6 91.5 104.6 91.5ZM108.9 92.5L107.2 97.8 103.7 97.8 107 88.9 110.8 88.9 114.1 97.8 110.7 97.8 108.9 92.5 108.9 92.5Z" fill="#1B72A9"/><path d="M17.1 108.9L17.1 106.4 8.8 106.4 8.8 108.9 11.2 108.9 11.2 115.1 14.7 115.1 14.7 108.9 17.1 108.9 17.1 108.9ZM21.5 109.9L19.6 115.1 16.3 115.1 19.6 106.4 23.2 106.4 26.5 115.1 23.2 115.1 21.5 109.9 21.5 109.9ZM34.2 108.9L34.2 106.4 25.8 106.4 25.8 108.9 28.3 108.9 28.3 115.1 31.7 115.1 31.7 108.9 34.2 108.9 34.2 108.9ZM38.5 109.9L36.7 115.1 33.3 115.1 36.7 106.4 40.3 106.4 43.6 115.1 40.3 115.1 38.5 109.9 38.5 109.9Z" fill="#1B72A9"/><path d="M53.6 113.6C53.1 113.8 52.4 113.9 51.8 113.9 50 113.9 48.8 112.6 48.8 110.8 48.8 108.7 50.1 107.6 51.8 107.6 52.6 107.6 53.1 107.7 53.6 107.9L53.9 106.7C53.6 106.6 52.8 106.3 51.7 106.3 49.1 106.3 47.1 108 47.1 110.9 47.1 113.5 48.8 115.2 51.5 115.2 52.6 115.2 53.4 115.1 53.7 114.8L53.6 113.6 53.6 113.6ZM58.3 115.2C60.7 115.2 62.4 113.6 62.4 110.6 62.4 108.2 60.9 106.3 58.5 106.3 56 106.3 54.3 108.2 54.3 110.8 54.3 113.4 55.9 115.2 58.3 115.2L58.3 115.2ZM58.3 113.9C56.9 113.9 56 112.5 56 110.8 56 109 56.7 107.6 58.3 107.6 59.9 107.6 60.8 109 60.8 110.8 60.8 112.5 59.9 113.9 58.3 113.9L58.3 113.9ZM65.3 115.1L65.3 112.1C65.3 110.6 65.3 109.5 65.1 108.3L65.3 108.3C65.7 109.3 66.3 110.3 66.7 111.3L69 115.1 70.8 115.1 70.8 106.4 69.2 106.4 69.2 109.5C69.2 110.8 69.3 111.9 69.3 113.1 68.9 112.1 68.5 111 67.9 110.2L65.6 106.4 63.8 106.4 63.8 115.1 65.3 115.1 65.3 115.1ZM72.2 114.7C72.6 115 73.5 115.2 74.5 115.2 76.7 115.2 77.7 114.1 77.7 112.6 77.7 111.3 77 110.6 75.5 110 74.4 109.6 73.8 109.3 73.8 108.6 73.8 108.2 74.4 107.6 75.2 107.6 76.1 107.6 76.7 107.9 77 108L77.4 106.7C77 106.4 76.3 106.3 75.4 106.3 73.5 106.3 72.2 107.3 72.2 108.7 72.2 110 73.2 110.8 74.7 111.3 75.7 111.6 76.1 112.1 76.1 112.8 76.1 113.5 75.5 113.9 74.5 113.9 73.8 113.9 72.9 113.6 72.5 113.4L72.2 114.7 72.2 114.7ZM79.2 106.4L79.2 111.3C79.2 114.1 80.5 115.2 82.5 115.2 84.6 115.2 85.9 114.1 85.9 111.3L85.9 106.4 84.4 106.4 84.4 111.5C84.4 113.2 83.6 113.9 82.5 113.9 81.5 113.9 80.7 113.2 80.7 111.5L80.7 106.4 79.2 106.4 79.2 106.4ZM87.8 115.1L92.9 115.1 92.9 113.8 89.4 113.8 89.4 106.4 87.8 106.4 87.8 115.1 87.8 115.1ZM94.5 115.1L96.1 115.1 96.1 107.7 98.7 107.7 98.7 106.4 92 106.4 92 107.7 94.5 107.7 94.5 115.1 94.5 115.1ZM103.1 112.6L104 115.1 105.6 115.1 102.9 106.4 100.8 106.4 98.1 115.1 99.7 115.1 100.4 112.6 103.1 112.6 103.1 112.6ZM100.7 111.5L101.3 109.3C101.6 108.7 101.7 108.2 101.7 107.7L101.8 107.7C102 108.2 102 108.7 102.3 109.3L102.9 111.5 100.7 111.5 100.7 111.5ZM108.3 115.1L108.3 112.1C108.3 110.6 108.3 109.5 108.2 108.3L108.3 108.3C108.6 109.3 109.2 110.3 109.8 111.3L112.1 115.1 113.7 115.1 113.7 106.4 112.2 106.4 112.2 109.5C112.2 110.8 112.2 111.9 112.4 113.1 112 112.1 111.5 111 110.9 110.2L108.6 106.4 106.9 106.4 106.9 115.1 108.3 115.1 108.3 115.1ZM121.5 113.6C121.1 113.8 120.5 113.9 119.8 113.9 117.9 113.9 116.7 112.6 116.7 110.8 116.7 108.7 118 107.6 119.8 107.6 120.5 107.6 121.1 107.7 121.5 107.9L121.8 106.7C121.5 106.6 120.8 106.3 119.8 106.3 117.2 106.3 115.1 108 115.1 110.9 115.1 113.5 116.7 115.2 119.5 115.2 120.6 115.2 121.4 115.1 121.8 114.8L121.5 113.6 121.5 113.6ZM126.7 115.1L126.7 111.5 129.6 106.4 127.7 106.4 126.7 108.6C126.4 109.3 126.3 109.7 126 110.3 125.7 109.7 125.5 109.3 125.3 108.6L124.2 106.4 122.4 106.4 125.1 111.5 125.1 115.1 126.7 115.1 126.7 115.1ZM132.8 114.7C133.3 115 134.2 115.2 135.2 115.2 137.4 115.2 138.4 114.1 138.4 112.6 138.4 111.3 137.7 110.6 136.2 110 135.1 109.6 134.5 109.3 134.5 108.6 134.5 108.2 134.9 107.6 136 107.6 136.8 107.6 137.4 107.9 137.7 108L138.1 106.7C137.7 106.4 137 106.3 136 106.3 134.1 106.3 132.9 107.3 132.9 108.7 132.9 110 133.9 110.8 135.2 111.3 136.4 111.6 136.8 112.1 136.8 112.8 136.8 113.5 136.2 113.9 135.2 113.9 134.5 113.9 133.6 113.6 133.2 113.4L132.8 114.7 132.8 114.7ZM144.8 109.9L141.4 109.9 141.4 107.7 144.9 107.7 144.9 106.4 139.9 106.4 139.9 115.1 145.1 115.1 145.1 113.8 141.4 113.8 141.4 111.2 144.8 111.2 144.8 109.9 144.8 109.9ZM146.5 115.1L148.1 115.1 148.1 111.5 148.8 111.5C149.8 111.6 150.3 111.9 150.4 113.1 150.7 114.1 150.8 114.8 151 115.1L152.6 115.1C152.4 114.8 152.3 113.8 152 112.6 151.7 111.8 151.4 111.2 150.7 111L150.7 110.9C151.6 110.6 152.3 109.9 152.3 108.7 152.3 108 152 107.4 151.6 107 151 106.6 150.1 106.4 149 106.4 147.9 106.4 147.1 106.4 146.5 106.6L146.5 115.1 146.5 115.1ZM148.1 107.6L149.1 107.6C150.1 107.6 150.7 108 150.7 108.9 150.7 109.7 150.1 110.3 149 110.3L148.1 110.3 148.1 107.6 148.1 107.6ZM157.6 115.1L160.7 106.4 158.9 106.4 157.8 110.3C157.3 111.5 157.1 112.5 156.9 113.5L156.8 113.5C156.6 112.5 156.3 111.5 156 110.3L154.7 106.4 153 106.4 155.9 115.1 157.6 115.1 157.6 115.1ZM161.7 115.1L163.3 115.1 163.3 106.4 161.7 106.4 161.7 115.1ZM170.9 113.6C170.5 113.8 169.9 113.9 169.2 113.9 167.3 113.9 166.2 112.6 166.2 110.8 166.3 108.7 167.5 107.6 169.2 107.6 169.9 107.6 170.5 107.7 170.9 107.9L171.4 106.7C170.9 106.6 170.2 106.3 169.2 106.3 166.6 106.3 164.6 108 164.6 110.9 164.6 113.5 166.2 115.2 169 115.2 170.1 115.2 170.9 115.1 171.2 114.8L170.9 113.6 170.9 113.6ZM177.4 109.9L174.1 109.9 174.1 107.7 177.6 107.7 177.6 106.4 172.5 106.4 172.5 115.1 177.9 115.1 177.9 113.8 174.1 113.8 174.1 111.2 177.4 111.2 177.4 109.9 177.4 109.9ZM178.9 114.7C179.3 115 180.3 115.2 181.2 115.2 183.4 115.2 184.5 114.1 184.5 112.6 184.5 111.3 183.8 110.6 182.2 110 181 109.6 180.6 109.3 180.6 108.6 180.6 108.2 181 107.6 182.1 107.6 182.8 107.6 183.4 107.9 183.8 108L184.1 106.7C183.6 106.4 182.9 106.3 182.1 106.3 180.2 106.3 179 107.3 179 108.7 179 110 179.9 110.8 181.3 111.3 182.3 111.6 182.8 112.1 182.8 112.8 182.8 113.5 182.3 113.9 181.3 113.9 180.5 113.9 179.7 113.6 179.2 113.4L178.9 114.7 178.9 114.7Z" fill="#1B72A9"/></g></g></svg>
