<?xml version="1.0" encoding="UTF-8" standalone="no"?>
<svg width="197px" height="75px" viewBox="0 0 197 75" version="1.1" xmlns="http://www.w3.org/2000/svg" xmlns:xlink="http://www.w3.org/1999/xlink" xmlns:sketch="http://www.bohemiancoding.com/sketch/ns">
    <!-- Generator: Sketch 3.4.2 (15855) - http://www.bohemiancoding.com/sketch -->
    <title>Artboard 1</title>
    <desc>Created with Sketch.</desc>
    <defs></defs>
    <g id="Page-1" stroke="none" stroke-width="1" fill="none" fill-rule="evenodd" sketch:type="MSPage">
        <g id="Artboard-1" sketch:type="MSArtboardGroup">
            <g id="tata-consultancy-services" sketch:type="MSLayerGroup" transform="translate(1.000000, -56.000000)">
                <path d="M0.26,0.677 L193.016,0.677 L193.016,193.433 L0.26,193.433 L0.26,0.677 Z" id="Fill-1" fill="#FFFFFF" sketch:type="MSShapeGroup"></path>
                <path d="M96.638,66.966 C102.274,66.966 107.188,69.423 109.067,72.747 C104.876,71.88 100.396,71.302 98.228,71.302 C97.794,71.157 97.072,71.591 97.216,72.169 L97.216,84.454 L96.06,84.454 L96.06,72.169 C96.204,71.591 95.482,71.157 94.904,71.302 C92.88,71.302 88.255,71.88 84.208,72.747 C85.943,69.423 90.857,66.966 96.638,66.966 L96.638,66.966 Z M109.501,74.192 C109.645,74.626 109.79,75.204 109.79,75.638 C109.79,79.54 106.032,82.864 100.829,84.02 L99.095,75.493 C98.95,74.915 98.95,74.337 98.95,73.759 C99.095,73.325 99.528,73.036 99.962,73.036 C103.142,73.181 106.466,73.614 109.501,74.192 L109.501,74.192 Z M92.446,84.02 C87.243,82.864 83.486,79.54 83.486,75.638 C83.486,75.204 83.486,74.626 83.63,74.192 C86.81,73.614 89.989,73.181 93.169,73.036 C93.747,73.036 94.181,73.325 94.181,73.759 C94.325,74.337 94.181,74.915 94.181,75.493 L92.446,84.02 L92.446,84.02 Z" id="Fill-2" fill="#1B72A9" sketch:type="MSShapeGroup"></path>
                <path d="M87.532,91.536 L87.532,88.934 L79.15,88.934 L79.15,91.536 L81.607,91.536 L81.607,97.751 L85.076,97.751 L85.076,91.536 L87.532,91.536 L87.532,91.536 Z M91.868,92.548 L90.134,97.751 L86.665,97.751 L89.989,88.934 L93.747,88.934 L97.072,97.751 L93.603,97.751 L91.868,92.548 L91.868,92.548 Z M104.587,91.536 L104.587,88.934 L96.204,88.934 L96.204,91.536 L98.661,91.536 L98.661,97.751 L102.13,97.751 L102.13,91.536 L104.587,91.536 L104.587,91.536 Z M108.923,92.548 L107.188,97.751 L103.72,97.751 L107.044,88.934 L110.802,88.934 L114.126,97.751 L110.657,97.751 L108.923,92.548 L108.923,92.548 Z" id="Fill-3" fill="#1B72A9" sketch:type="MSShapeGroup"></path>
                <path d="M17.146,108.88 L17.146,106.423 L8.764,106.423 L8.764,108.88 L11.221,108.88 L11.221,115.094 L14.69,115.094 L14.69,108.88 L17.146,108.88 L17.146,108.88 Z M21.482,109.891 L19.603,115.094 L16.279,115.094 L19.603,106.423 L23.217,106.423 L26.541,115.094 L23.217,115.094 L21.482,109.891 L21.482,109.891 Z M34.201,108.88 L34.201,106.423 L25.818,106.423 L25.818,108.88 L28.275,108.88 L28.275,115.094 L31.744,115.094 L31.744,108.88 L34.201,108.88 L34.201,108.88 Z M38.537,109.891 L36.658,115.094 L33.334,115.094 L36.658,106.423 L40.271,106.423 L43.595,115.094 L40.271,115.094 L38.537,109.891 L38.537,109.891 Z" id="Fill-4" fill="#1B72A9" sketch:type="MSShapeGroup"></path>
                <path d="M53.568,113.649 C53.134,113.793 52.412,113.938 51.834,113.938 C49.955,113.938 48.799,112.637 48.799,110.758 C48.799,108.735 50.099,107.579 51.834,107.579 C52.556,107.579 53.134,107.723 53.568,107.868 L53.857,106.712 C53.568,106.567 52.845,106.278 51.689,106.278 C49.087,106.278 47.064,108.012 47.064,110.903 C47.064,113.505 48.799,115.239 51.545,115.239 C52.556,115.239 53.423,115.094 53.712,114.805 L53.568,113.649 L53.568,113.649 Z M58.337,115.239 C60.65,115.239 62.384,113.649 62.384,110.614 C62.384,108.157 60.939,106.278 58.482,106.278 C56.025,106.278 54.291,108.157 54.291,110.758 C54.291,113.36 55.88,115.239 58.337,115.239 L58.337,115.239 Z M58.337,113.938 C56.892,113.938 56.025,112.493 56.025,110.758 C56.025,109.024 56.748,107.579 58.337,107.579 C59.927,107.579 60.795,109.024 60.795,110.758 C60.795,112.493 59.927,113.938 58.337,113.938 L58.337,113.938 Z M65.275,115.094 L65.275,112.059 C65.275,110.614 65.275,109.458 65.13,108.301 L65.275,108.301 C65.708,109.313 66.287,110.325 66.72,111.337 L69.033,115.094 L70.767,115.094 L70.767,106.423 L69.177,106.423 L69.177,109.458 C69.177,110.758 69.322,111.915 69.322,113.071 C68.888,112.059 68.455,111.048 67.876,110.18 L65.564,106.423 L63.83,106.423 L63.83,115.094 L65.275,115.094 L65.275,115.094 Z M72.212,114.661 C72.646,114.95 73.513,115.239 74.525,115.239 C76.693,115.239 77.704,114.083 77.704,112.637 C77.704,111.337 76.982,110.614 75.536,110.036 C74.38,109.602 73.802,109.313 73.802,108.59 C73.802,108.157 74.38,107.579 75.247,107.579 C76.115,107.579 76.693,107.868 76.982,108.012 L77.415,106.712 C76.982,106.423 76.259,106.278 75.392,106.278 C73.513,106.278 72.212,107.29 72.212,108.735 C72.212,110.036 73.224,110.758 74.669,111.337 C75.681,111.626 76.115,112.059 76.115,112.782 C76.115,113.505 75.536,113.938 74.525,113.938 C73.802,113.938 72.935,113.649 72.501,113.36 L72.212,114.661 L72.212,114.661 Z M79.15,106.423 L79.15,111.337 C79.15,114.083 80.451,115.239 82.474,115.239 C84.642,115.239 85.943,114.083 85.943,111.337 L85.943,106.423 L84.353,106.423 L84.353,111.481 C84.353,113.215 83.63,113.938 82.474,113.938 C81.462,113.938 80.739,113.215 80.739,111.481 L80.739,106.423 L79.15,106.423 L79.15,106.423 Z M87.821,115.094 L92.88,115.094 L92.88,113.793 L89.411,113.793 L89.411,106.423 L87.821,106.423 L87.821,115.094 L87.821,115.094 Z M94.47,115.094 L96.06,115.094 L96.06,107.723 L98.661,107.723 L98.661,106.423 L92.013,106.423 L92.013,107.723 L94.47,107.723 L94.47,115.094 L94.47,115.094 Z M103.142,112.637 L104.009,115.094 L105.599,115.094 L102.852,106.423 L100.829,106.423 L98.083,115.094 L99.673,115.094 L100.396,112.637 L103.142,112.637 L103.142,112.637 Z M100.685,111.481 L101.263,109.313 C101.552,108.735 101.696,108.157 101.696,107.723 L101.841,107.723 C101.985,108.157 101.985,108.735 102.274,109.313 L102.852,111.481 L100.685,111.481 L100.685,111.481 Z M108.345,115.094 L108.345,112.059 C108.345,110.614 108.345,109.458 108.2,108.301 L108.345,108.301 C108.634,109.313 109.212,110.325 109.79,111.337 L112.102,115.094 L113.692,115.094 L113.692,106.423 L112.247,106.423 L112.247,109.458 C112.247,110.758 112.247,111.915 112.392,113.071 C111.958,112.059 111.524,111.048 110.946,110.18 L108.634,106.423 L106.899,106.423 L106.899,115.094 L108.345,115.094 L108.345,115.094 Z M121.497,113.649 C121.063,113.793 120.485,113.938 119.763,113.938 C117.884,113.938 116.728,112.637 116.728,110.758 C116.728,108.735 118.028,107.579 119.763,107.579 C120.485,107.579 121.063,107.723 121.497,107.868 L121.786,106.712 C121.497,106.567 120.774,106.278 119.763,106.278 C117.161,106.278 115.138,108.012 115.138,110.903 C115.138,113.505 116.728,115.239 119.473,115.239 C120.63,115.239 121.352,115.094 121.786,114.805 L121.497,113.649 L121.497,113.649 Z M126.7,115.094 L126.7,111.481 L129.591,106.423 L127.712,106.423 L126.7,108.59 C126.411,109.313 126.266,109.747 125.977,110.325 C125.688,109.747 125.544,109.313 125.255,108.59 L124.243,106.423 L122.364,106.423 L125.11,111.481 L125.11,115.094 L126.7,115.094 L126.7,115.094 Z M132.77,114.661 C133.348,114.95 134.216,115.239 135.227,115.239 C137.395,115.239 138.407,114.083 138.407,112.637 C138.407,111.337 137.684,110.614 136.239,110.036 C135.083,109.602 134.505,109.313 134.505,108.59 C134.505,108.157 134.938,107.579 135.95,107.579 C136.817,107.579 137.395,107.868 137.684,108.012 L138.118,106.712 C137.684,106.423 136.961,106.278 135.95,106.278 C134.071,106.278 132.915,107.29 132.915,108.735 C132.915,110.036 133.926,110.758 135.227,111.337 C136.384,111.626 136.817,112.059 136.817,112.782 C136.817,113.505 136.239,113.938 135.227,113.938 C134.505,113.938 133.637,113.649 133.204,113.36 L132.77,114.661 L132.77,114.661 Z M144.766,109.891 L141.442,109.891 L141.442,107.723 L144.911,107.723 L144.911,106.423 L139.852,106.423 L139.852,115.094 L145.055,115.094 L145.055,113.793 L141.442,113.793 L141.442,111.192 L144.766,111.192 L144.766,109.891 L144.766,109.891 Z M146.501,115.094 L148.09,115.094 L148.09,111.481 L148.813,111.481 C149.825,111.626 150.258,111.915 150.403,113.071 C150.692,114.083 150.836,114.805 150.981,115.094 L152.571,115.094 C152.426,114.805 152.282,113.793 151.993,112.637 C151.704,111.77 151.414,111.192 150.692,111.048 L150.692,110.903 C151.559,110.614 152.282,109.891 152.282,108.735 C152.282,108.012 151.993,107.434 151.559,107.001 C150.981,106.567 150.114,106.423 148.957,106.423 C147.946,106.423 147.079,106.423 146.501,106.567 L146.501,115.094 L146.501,115.094 Z M148.09,107.579 L149.102,107.579 C150.114,107.579 150.692,108.012 150.692,108.88 C150.692,109.747 150.114,110.325 148.957,110.325 L148.09,110.325 L148.09,107.579 L148.09,107.579 Z M157.629,115.094 L160.664,106.423 L158.93,106.423 L157.774,110.325 C157.34,111.481 157.051,112.493 156.907,113.505 L156.762,113.505 C156.617,112.493 156.329,111.481 156.039,110.325 L154.739,106.423 L153.004,106.423 L155.895,115.094 L157.629,115.094 L157.629,115.094 Z M161.676,115.094 L163.266,115.094 L163.266,106.422 L161.676,106.422 L161.676,115.094 Z M170.926,113.649 C170.492,113.793 169.914,113.938 169.192,113.938 C167.313,113.938 166.157,112.637 166.157,110.758 C166.301,108.735 167.457,107.579 169.192,107.579 C169.914,107.579 170.492,107.723 170.926,107.868 L171.36,106.712 C170.926,106.567 170.203,106.278 169.192,106.278 C166.59,106.278 164.567,108.012 164.567,110.903 C164.567,113.505 166.157,115.239 169.047,115.239 C170.059,115.239 170.926,115.094 171.215,114.805 L170.926,113.649 L170.926,113.649 Z M177.43,109.891 L174.106,109.891 L174.106,107.723 L177.574,107.723 L177.574,106.423 L172.516,106.423 L172.516,115.094 L177.863,115.094 L177.863,113.793 L174.106,113.793 L174.106,111.192 L177.43,111.192 L177.43,109.891 L177.43,109.891 Z M178.875,114.661 C179.309,114.95 180.32,115.239 181.188,115.239 C183.356,115.239 184.512,114.083 184.512,112.637 C184.512,111.337 183.789,110.614 182.199,110.036 C181.043,109.602 180.61,109.313 180.61,108.59 C180.61,108.157 181.043,107.579 182.055,107.579 C182.778,107.579 183.356,107.868 183.789,108.012 L184.078,106.712 C183.645,106.423 182.922,106.278 182.055,106.278 C180.176,106.278 179.02,107.29 179.02,108.735 C179.02,110.036 179.887,110.758 181.332,111.337 C182.344,111.626 182.778,112.059 182.778,112.782 C182.778,113.505 182.344,113.938 181.332,113.938 C180.465,113.938 179.742,113.649 179.164,113.36 L178.875,114.661 L178.875,114.661 Z" id="Fill-5" fill="#1B72A9" sketch:type="MSShapeGroup"></path>
            </g>
        </g>
    </g>
</svg>