<?xml version="1.0" encoding="utf-8"?>
<!-- Generator: Adobe Illustrator 15.1.0, SVG Export Plug-In . SVG Version: 6.00 Build 0)  -->
<!DOCTYPE svg PUBLIC "-//W3C//DTD SVG 1.1//EN" "http://www.w3.org/Graphics/SVG/1.1/DTD/svg11.dtd">
<svg version="1.1" id="Layer_1" xmlns="http://www.w3.org/2000/svg" xmlns:xlink="http://www.w3.org/1999/xlink" x="0px" y="0px"
	 width="815px" height="315px" viewBox="0 0 815 315" enable-background="new 0 0 815 315" xml:space="preserve">
<path fill="#20BEDB" d="M53.284,198.153c5.422,0,9.989-1.108,13.705-3.326c3.708-2.211,6.699-5.091,8.97-8.635
	c2.267-3.545,3.875-7.613,4.818-12.212c0.939-4.593,1.412-9.331,1.412-14.202v-60.14h22.759v60.14c0,8.081-0.972,15.67-2.91,22.759
	c-1.937,7.089-4.981,13.288-9.136,18.606c-4.153,5.312-9.494,9.525-16.029,12.624c-6.534,3.101-14.341,4.648-23.424,4.648
	c-9.414,0-17.416-1.631-24.006-4.898c-6.589-3.264-11.931-7.587-16.03-12.959c-4.099-5.372-7.058-11.602-8.886-18.69
	c-1.828-7.083-2.741-14.452-2.741-22.09v-60.14h22.924v60.14c0,4.982,0.47,9.774,1.413,14.368c0.939,4.597,2.545,8.666,4.817,12.211
	c2.266,3.543,5.232,6.394,8.886,8.557C43.479,197.069,47.968,198.153,53.284,198.153"/>
<path fill="#20BEDB" d="M124.886,96.317h22.26v93.359c0,3.214,0.774,5.706,2.327,7.479c1.548,1.771,3.759,2.655,6.644,2.655
	c1.328,0,2.795-0.219,4.398-0.663c1.608-0.441,3.13-0.994,4.573-1.659l2.989,16.943c-2.989,1.438-6.479,2.548-10.468,3.32
	c-3.984,0.775-7.588,1.164-10.798,1.164c-6.974,0-12.376-1.854-16.195-5.567c-3.823-3.708-5.731-8.996-5.731-15.86V96.317z"/>
<path fill="#20BEDB" d="M229.872,213.104c-2.991,1.327-6.644,2.655-10.963,3.984c-4.322,1.327-8.865,1.991-13.624,1.991
	c-3.104,0-6.01-0.39-8.721-1.159c-2.714-0.772-5.097-2.022-7.145-3.738c-2.05-1.718-3.683-3.929-4.9-6.646
	c-1.219-2.715-1.828-6.005-1.828-9.884v-50.005h-11.462v-17.109h11.462v-28.24h22.26v28.24h18.276v17.109h-18.276v42.528
	c0,3.104,0.803,5.291,2.41,6.563c1.604,1.273,3.57,1.909,5.897,1.909c2.325,0,4.592-0.386,6.808-1.16
	c2.216-0.773,3.989-1.438,5.317-1.996L229.872,213.104z"/>
<path fill="#20BEDB" d="M293.328,149.809c-6.755,0.11-12.791,1.413-18.107,3.904c-5.316,2.49-9.136,6.231-11.461,11.211v52.663
	h-22.262v-87.049h20.434v18.606c1.548-2.991,3.375-5.676,5.481-8.057c2.103-2.381,4.374-4.458,6.81-6.23
	c2.437-1.768,4.902-3.126,7.394-4.069c2.49-0.939,4.9-1.412,7.228-1.412h2.741c0.604,0,1.187,0.054,1.742,0.165V149.809z"/>
<path fill="#20BEDB" d="M328.377,219.25c-4.208,0-8.137-0.693-11.791-2.078c-3.653-1.383-6.813-3.324-9.469-5.815
	c-2.656-2.49-4.733-5.395-6.23-8.72c-1.494-3.321-2.242-6.979-2.242-10.964c0-4.099,0.914-7.892,2.74-11.381
	c1.828-3.485,4.374-6.45,7.643-8.887c3.265-2.436,7.169-4.345,11.712-5.731c4.538-1.383,9.521-2.075,14.95-2.075
	c3.875,0,7.668,0.333,11.377,0.996c3.71,0.665,7.005,1.609,9.885,2.822v-4.982c0-5.756-1.636-10.189-4.902-13.291
	c-3.265-3.1-8.111-4.652-14.533-4.652c-4.653,0-9.194,0.835-13.624,2.492c-4.432,1.663-8.969,4.099-13.622,7.313l-6.81-14.122
	c11.183-7.419,23.258-11.132,36.213-11.132c12.516,0,22.235,3.075,29.154,9.22c6.924,6.151,10.383,15.037,10.383,26.664v27.077
	c0,2.327,0.416,3.987,1.249,4.987c0.829,0.992,2.187,1.551,4.068,1.656v18.94c-3.764,0.775-7.033,1.164-9.8,1.164
	c-4.212,0-7.452-0.942-9.719-2.826c-2.271-1.883-3.683-4.373-4.238-7.475l-0.495-4.816c-3.877,5.093-8.585,8.972-14.122,11.628
	C340.615,217.921,334.692,219.25,328.377,219.25 M334.692,202.971c3.765,0,7.333-0.664,10.714-1.998
	c3.379-1.327,6.006-3.095,7.893-5.315c2.436-1.878,3.654-3.984,3.654-6.311v-9.969c-2.656-0.994-5.541-1.798-8.637-2.406
	c-3.104-0.611-6.095-0.913-8.971-0.913c-5.76,0-10.468,1.303-14.122,3.902c-3.654,2.603-5.482,5.896-5.482,9.885
	c0,3.764,1.438,6.896,4.319,9.387C326.94,201.724,330.484,202.971,334.692,202.971"/>
<path fill="#20BEDB" d="M402.137,217.588V99.638h50.006c5.421,0,10.438,1.137,15.03,3.409c4.599,2.271,8.559,5.262,11.882,8.971
	c3.319,3.708,5.921,7.919,7.808,12.625c1.881,4.708,2.821,9.441,2.821,14.204c0,4.98-0.885,9.829-2.656,14.532
	c-1.773,4.711-4.265,8.891-7.478,12.544c-3.211,3.654-7.089,6.591-11.628,8.807c-4.543,2.217-9.524,3.319-14.951,3.319h-27.907
	v39.539H402.137z M425.064,157.951h26.58c4.208,0,7.723-1.716,10.548-5.152c2.826-3.431,4.237-8.083,4.237-13.952
	c0-2.991-0.444-5.677-1.331-8.058c-0.885-2.381-2.047-4.403-3.485-6.066c-1.442-1.661-3.135-2.906-5.066-3.734
	c-1.941-0.833-3.905-1.249-5.901-1.249h-25.581V157.951z"/>
<path fill="#20BEDB" d="M555.298,149.809c-6.756,0.11-12.792,1.413-18.107,3.904c-5.316,2.49-9.137,6.231-11.462,11.211v52.663
	h-22.261v-87.049h20.435v18.606c1.548-2.991,3.375-5.676,5.48-8.057c2.102-2.381,4.374-4.458,6.81-6.23
	c2.437-1.768,4.903-3.126,7.395-4.069c2.49-0.939,4.901-1.412,7.228-1.412h2.741c0.603,0,1.188,0.054,1.742,0.165V149.809z"/>
<path fill="#20BEDB" d="M603.81,219.248c-6.974,0-13.288-1.191-18.936-3.571c-5.649-2.378-10.468-5.617-14.452-9.717
	c-3.988-4.099-7.063-8.86-9.221-14.287c-2.16-5.427-3.239-11.133-3.239-17.112c0-6.201,1.048-12.041,3.155-17.524
	c2.104-5.485,5.152-10.302,9.137-14.452c3.988-4.153,8.829-7.447,14.537-9.883c5.699-2.437,12.096-3.66,19.185-3.66
	s13.428,1.223,19.023,3.66c5.592,2.436,10.354,5.701,14.283,9.799c3.935,4.098,6.924,8.861,8.971,14.288
	c2.052,5.425,3.076,11.071,3.076,16.944c0,1.441-0.031,2.824-0.085,4.151c-0.056,1.329-0.194,2.438-0.415,3.321H581.55
	c0.335,3.435,1.164,6.479,2.491,9.139c1.328,2.657,3.045,4.928,5.152,6.812c2.102,1.881,4.482,3.319,7.144,4.317
	c2.656,0.999,5.422,1.497,8.307,1.497c4.43,0,8.607-1.083,12.54-3.239c3.931-2.162,6.616-5.011,8.058-8.557l19.104,5.317
	c-3.214,6.645-8.336,12.1-15.366,16.363C621.942,217.118,613.557,219.248,603.81,219.248 M626.405,166.753
	c-0.559-6.531-2.967-11.767-7.228-15.697c-4.265-3.933-9.441-5.9-15.533-5.9c-2.989,0-5.789,0.528-8.39,1.578
	c-2.603,1.057-4.898,2.52-6.895,4.402c-1.992,1.886-3.63,4.153-4.897,6.813c-1.279,2.657-2.022,5.591-2.241,8.803H626.405z"/>
<path fill="#20BEDB" d="M695.846,219.25c-7.31,0-14.452-1.164-21.432-3.489c-6.978-2.327-12.959-5.647-17.94-9.97l8.305-13.953
	c5.317,3.769,10.493,6.619,15.531,8.557c5.042,1.937,10.056,2.906,15.037,2.906c4.428,0,7.918-0.829,10.462-2.491
	c2.547-1.663,3.825-4.04,3.825-7.145c0-3.101-1.497-5.371-4.488-6.81c-2.989-1.438-7.861-3.101-14.617-4.986
	c-5.65-1.548-10.468-3.042-14.452-4.483c-3.988-1.438-7.203-3.074-9.634-4.902c-2.44-1.827-4.214-3.93-5.317-6.311
	c-1.107-2.38-1.662-5.231-1.662-8.557c0-4.428,0.857-8.417,2.576-11.96c1.717-3.544,4.122-6.559,7.223-9.05
	c3.101-2.496,6.729-4.404,10.883-5.735c4.154-1.33,8.668-1.994,13.54-1.994c6.533,0,12.649,0.943,18.354,2.827
	c5.702,1.881,10.938,4.927,15.7,9.135l-8.971,13.458c-4.433-3.325-8.722-5.761-12.874-7.313c-4.153-1.548-8.281-2.326-12.377-2.326
	c-3.768,0-6.922,0.777-9.469,2.326c-2.55,1.552-3.819,4.044-3.819,7.479c0,1.553,0.301,2.825,0.914,3.82
	c0.604,0.996,1.577,1.884,2.905,2.659c1.329,0.773,3.075,1.523,5.232,2.242c2.161,0.719,4.843,1.466,8.056,2.24
	c5.981,1.553,11.104,3.102,15.366,4.654c4.265,1.553,7.755,3.319,10.469,5.315c2.712,1.992,4.703,4.293,5.981,6.895
	c1.268,2.6,1.907,5.731,1.907,9.385c0,8.527-3.156,15.256-9.467,20.183C715.279,216.783,706.698,219.25,695.846,219.25"/>
<path fill="#20BEDB" d="M778.405,219.25c-7.308,0-14.452-1.164-21.432-3.489c-6.978-2.327-12.959-5.647-17.94-9.97l8.307-13.953
	c5.315,3.769,10.493,6.619,15.531,8.557c5.041,1.937,10.054,2.906,15.035,2.906c4.428,0,7.918-0.829,10.464-2.491
	c2.547-1.663,3.824-4.04,3.824-7.145c0-3.101-1.497-5.371-4.487-6.81c-2.99-1.438-7.863-3.101-14.617-4.986
	c-5.652-1.548-10.469-3.042-14.452-4.483c-3.988-1.438-7.204-3.074-9.636-4.902c-2.44-1.827-4.212-3.93-5.316-6.311
	c-1.108-2.38-1.663-5.231-1.663-8.557c0-4.428,0.858-8.417,2.577-11.96c1.717-3.544,4.123-6.559,7.224-9.05
	c3.099-2.496,6.729-4.404,10.882-5.735c4.154-1.33,8.667-1.994,13.54-1.994c6.532,0,12.65,0.943,18.354,2.827
	c5.703,1.881,10.938,4.927,15.701,9.135l-8.972,13.458c-4.432-3.325-8.722-5.761-12.873-7.313
	c-4.153-1.548-8.282-2.326-12.377-2.326c-3.77,0-6.923,0.777-9.47,2.326c-2.551,1.552-3.818,4.044-3.818,7.479
	c0,1.553,0.299,2.825,0.912,3.82c0.605,0.996,1.579,1.884,2.906,2.659c1.328,0.773,3.074,1.523,5.231,2.242
	c2.163,0.719,4.845,1.466,8.058,2.24c5.979,1.553,11.103,3.102,15.366,4.654c4.263,1.553,7.753,3.319,10.468,5.315
	c2.711,1.992,4.702,4.293,5.981,6.895c1.269,2.6,1.906,5.731,1.906,9.385c0,8.527-3.154,15.256-9.466,20.183
	C797.841,216.783,789.258,219.25,778.405,219.25"/>
</svg>
