<?xml version="1.0" standalone="yes"?>
<svg xmlns="http://www.w3.org/2000/svg" width="1800" height="1800">
<path style="fill:#ffffff; stroke:none;" d="M0 0L0 1800L1800 1800L1800 0L0 0z"/>
<path style="fill:#3e4c57; stroke:none;" d="M708 464L708 502L731 502L731 526L708 526L708 1121L676 1121L676 885L647 885C647 879.334 646.946 873.665 647.004 868C647.033 865.108 647.74 861.76 646.655 859C644.524 853.577 638.82 848.525 635.2 844C625.815 832.269 616.238 820.69 606.803 809C602.642 803.844 596.351 798.182 593.858 792C590.566 783.837 593 770.738 593 762L593 695L586 695L586 763C586 771.382 588.402 784.23 585.062 792C582.301 798.422 576.092 804.511 571.79 810C563.197 820.963 554.54 831.897 546.13 843C542.416 847.903 536.819 853.15 534.728 859C532.08 866.408 534 877.183 534 885L503 885L503 1121L449 1121C438.322 1121 426.607 1119.63 416.039 1121.14C413.189 1121.55 410.758 1123.26 408 1124L408 1173C418.946 1175.44 429.73 1175 441 1175L442 1275C430.633 1275 419.281 1274.57 408 1276L408 1328C433.142 1331.18 459.653 1329 485 1329L626 1329L1058 1329L1284 1329L1352 1329L1378 1329C1382.14 1329 1386.85 1329.61 1390.91 1328.7C1393.39 1328.15 1395.54 1326.66 1398 1326L1398 1277C1387.05 1274.56 1376.27 1275 1365 1275L1365 1175C1376.04 1175 1387.04 1175.38 1398 1174L1398 1122C1370.28 1118.5 1340.95 1121 1313 1121L1313 904L1313 842C1313 833.257 1315.1 821.331 1312.23 813.015C1309.66 805.541 1301.36 799.591 1297 793C1291.44 794.593 1288.52 799.583 1285.12 804C1282.51 807.389 1278.91 810.856 1277.56 815C1275.92 820.056 1277 826.733 1277 832L1277 866L1247 866L1247 838C1247 833.597 1247.85 828.133 1246.06 824C1243.43 817.91 1237.33 813.753 1234 808C1227.96 809.732 1220.64 818.028 1218.59 824C1217.15 828.182 1218 833.632 1218 838L1218 866L1183 866L1183 831C1183 825.373 1184.09 818.4 1182.23 813.015C1179.66 805.541 1171.36 799.591 1167 793C1161.1 794.691 1157.96 800.336 1154.35 805C1151.93 808.132 1148.88 811.227 1147.49 815C1145.54 820.278 1147 827.437 1147 833L1147 873L1147 1121L1114 1121L1114 708L1093 708L1093 691L1075 691C1075 687.031 1076.55 678.861 1073.97 675.603C1071.16 672.051 1060.7 673.905 1057 675L1057 658L1045 658L1045 646L1026 646L1026 658L1013 658L1013 674L997 674L997 691L977 691L977 708L954 708L954 1121L922 1121L922 525L900 525L900.001 508C900.017 505.582 899.732 502.474 901.603 500.603C905.356 496.851 917.027 499 922 499L922 464L708 464z"/>
<path style="fill:#cec5b4; stroke:none;" d="M685 483L685 521L708 521L708 526L731 526L731 502L708 502L708 483L685 483M685 545L685 1121L708 1121L708 545L685 545M1003 665L1003 674L1013 674L1013 665L1003 665M990 677L990 691L997 691L997 677L990 677M974 693L974 708L977 708L977 693L974 693M563 714L563 782C563 790.382 565.402 803.23 562.062 811C559.448 817.079 553.628 822.791 549.576 828C541.017 839.002 532.339 849.919 523.884 861C518.114 868.563 511.09 875.048 511 885L534 885C534 877.345 531.92 866.063 535.14 859C536.988 854.945 540.435 851.514 543.116 848C548.992 840.298 554.97 832.676 560.881 825C563.746 821.28 567.667 817.49 569.272 813C572.382 804.301 570 791.193 570 782L570 714L563 714M931 727L931 1121L954 1121L954 727L931 727M1280 793L1280 810C1285.63 805.682 1290.25 799.002 1294 793L1280 793M1124 1121L1147 1121L1147 901L1147 841C1147 831.443 1148.72 820.597 1144 812C1138.1 813.691 1134.96 819.336 1131.35 824C1128.93 827.132 1125.88 830.227 1124.49 834C1122.63 839.038 1124 845.701 1124 851L1124 887L1124 1121M1254 866L1277 866L1277 833C1277 825.484 1277.72 818.755 1274 812C1268.8 813.491 1266.08 817.843 1262.88 822C1260.05 825.671 1256.02 829.517 1254.56 834C1251.6 843.127 1254 856.422 1254 866M1195 866L1218 866C1218 857.442 1220.28 845.085 1217.4 837C1216.1 833.359 1212.93 830.345 1211 827C1207.31 828.059 1205.39 830.124 1202.87 833.005C1200.26 835.985 1196.91 839.171 1195.59 843C1193.32 849.594 1195 859.063 1195 866M480 904L480 1121L503 1121L503 904L480 904z"/>
<path style="fill:#ffffff; stroke:none;" d="M899 1136L899 1140L931 1140L931 1135L899 1136z"/>
<path style="fill:#cec5b4; stroke:none;" d="M931 1135L931 1140L899 1140L899 1136L685 1136L685 1140L653 1140L653 1136L480 1136L480 1140L421 1140L421 1155L1362 1154L1362 1161L1375 1161L1375 1141C1347.28 1137.5 1317.95 1140 1290 1140L1290 1135L1124 1135L1124 1140L1091 1140L1091 1135L931 1135z"/>
<path style="fill:#ffffff; stroke:none;" d="M1091 1135L1091 1140L1124 1140L1124 1135L1091 1135M1290 1135L1290 1140C1318.26 1140 1346.86 1138.78 1375 1141L1375 1161L1385 1161L1385 1135L1290 1135M421 1136L421 1140L480 1140L480 1136L421 1136M653 1136L653 1140L685 1140L685 1136L653 1136z"/>
<path style="fill:#cec5b4; stroke:none;" d="M385 1143L385 1192C395.946 1194.44 406.73 1194 418 1194L418 1245C418 1254.93 417.182 1265.21 419 1275L429 1275L429 1205L428.999 1188C428.984 1185.79 429.361 1182.58 427.397 1181.03C425.311 1179.38 421.469 1180 419 1180L398 1180L398 1155L408 1155L408 1140C402.92 1140 397.06 1139.19 392.09 1140.3C389.61 1140.85 387.46 1142.34 385 1143z"/>
<path style="fill:#ffffff; stroke:none;" d="M421 1155L421 1161L442 1161C444.659 1161.01 448.326 1160.53 450.397 1162.6C452.467 1164.67 451.995 1168.34 452 1171L452 1191L452 1260L452 1278C451.995 1280.73 452.423 1284.28 450.821 1286.68C447.666 1291.41 434.057 1289 429 1289C429 1296.91 431.528 1307.66 421 1308L421 1315L1362 1314L1362 1308L1341 1308C1338.34 1307.99 1334.67 1308.47 1332.6 1306.4C1330.53 1304.33 1331.01 1300.66 1331 1298L1331 1278L1331 1209L1331 1191C1331 1188.27 1330.58 1184.72 1332.18 1182.32C1335.33 1177.59 1348.94 1180 1354 1180C1354 1172.09 1351.47 1161.34 1362 1161L1362 1154L421 1155M398 1155L398 1180L419 1180C421.659 1180.01 425.326 1179.53 427.397 1181.6C429.268 1183.47 428.983 1186.58 428.999 1189L429 1206L429 1275L442 1275L441 1175C429.636 1175 419.102 1174.47 408 1173L408 1155L398 1155z"/>
<path style="fill:#cec5b4; stroke:none;" d="M1365 1175L1365 1194L1375 1193L1375 1175L1365 1175z"/>
<path style="fill:#3e4c57; stroke:none;" d="M510 1256C509.449 1260.09 506.377 1266.91 509.743 1270.4C513.566 1274.36 524.006 1273 529 1273C545.514 1273 566.819 1275.24 571.761 1255C575.313 1240.45 571.57 1223.61 557 1216.9C549.826 1213.6 540.706 1213.9 534.043 1209.77C530.558 1207.61 527.49 1203.35 528.477 1199.04C529.441 1194.83 534.182 1193 538 1192.33C546.913 1190.76 556.081 1192.98 565 1193C565.554 1188.89 568.612 1182.12 565.257 1178.6C562.027 1175.21 554.236 1176 550 1176C537.35 1176 518.66 1174.53 511.84 1188C509.913 1191.81 509.956 1195.84 510.004 1200C510.053 1204.24 510.356 1209.26 511.818 1213.29C517.985 1230.27 540.828 1224.02 550.566 1236.1C555.311 1241.99 553.429 1252.28 546.985 1256.06C542.41 1258.75 536.043 1258.24 531 1257.58C524.087 1256.67 516.975 1256 510 1256M1135 1193C1135.8 1189.11 1138.41 1183.01 1135.97 1179.32C1133.61 1175.74 1125.78 1176.05 1122 1176C1110.2 1175.86 1094.59 1173.73 1085.04 1182.21C1076.34 1189.94 1076.96 1201.43 1075.58 1212C1074.92 1217 1075 1221.96 1075 1227C1075 1240.68 1073.73 1260.11 1087.04 1268.52C1095.2 1273.68 1104.78 1273 1114 1273C1120.07 1273 1127.32 1274 1132.94 1271.2C1137.45 1268.94 1137.19 1259.91 1132.57 1257.6C1122.52 1252.59 1108.87 1262.95 1099.21 1254.57C1095.03 1250.93 1094.41 1245.16 1093.93 1240C1093.05 1230.58 1093.12 1221.46 1093.29 1212C1093.41 1205.63 1093.37 1198.87 1099.05 1194.65C1107.97 1188.04 1124.79 1192.79 1135 1193M1235 1256C1234.45 1260.09 1231.38 1266.91 1234.74 1270.4C1238.57 1274.36 1249.01 1273 1254 1273C1270.51 1273 1291.82 1275.24 1296.76 1255C1300.31 1240.45 1296.57 1223.61 1282 1216.9C1274.83 1213.6 1265.71 1213.9 1259.04 1209.77C1255.56 1207.61 1252.49 1203.35 1253.48 1199.04C1254.44 1194.83 1259.18 1193 1263 1192.33C1271.91 1190.76 1281.08 1192.98 1290 1193C1290.55 1188.89 1293.61 1182.12 1290.26 1178.6C1287.03 1175.21 1279.24 1176 1275 1176C1262.35 1176 1243.66 1174.53 1236.84 1188C1234.91 1191.81 1234.96 1195.84 1235 1200C1235.05 1204.24 1235.36 1209.26 1236.82 1213.29C1242.99 1230.27 1265.83 1224.02 1275.57 1236.1C1280.31 1241.99 1278.43 1252.28 1271.98 1256.06C1267.41 1258.75 1261.04 1258.24 1256 1257.58C1249.09 1256.67 1241.97 1256 1235 1256M611 1193C613.34 1211.52 611 1231.24 611 1250C611 1254.93 608.862 1266.66 612.603 1270.4C616.528 1274.32 628.872 1273.01 629.852 1266.98C631.142 1259.04 630 1250.04 630 1242L630 1193C635.822 1193 647.729 1195.28 652.682 1191.97C656.466 1189.45 656.13 1179.47 651.852 1177.6C648.029 1175.93 642.094 1177 638 1177L607 1177C602.281 1177 593.39 1175.31 589.318 1178.03C585.846 1180.34 585.846 1189.66 589.318 1191.97C594.1 1195.16 605.389 1193 611 1193M688 1256C687.926 1247.09 686.87 1238.94 688 1230L712 1230C715.246 1230 719.739 1230.76 722.772 1229.4C727.113 1227.44 727.357 1217.64 723.566 1215.03C721.494 1213.6 718.374 1214 716 1214L698 1214C694.848 1214 690.213 1214.73 688.179 1211.68C686.447 1209.09 686.943 1204.96 687.015 1202C687.088 1198.96 687.62 1196.01 688 1193L718 1193C721.829 1193 727.272 1193.96 730.852 1192.4C734.721 1190.71 734.879 1183.54 733.397 1180.15C731.683 1176.22 726.499 1177 723 1177L693 1177L678 1177C675.582 1177.02 672.474 1176.73 670.603 1178.6C666.862 1182.34 669 1194.07 669 1199L669 1252C669 1256.59 667.095 1266.89 670.603 1270.4C673.479 1273.27 680.306 1272 684 1272L719 1272C722.989 1272 730.405 1273.41 732.397 1268.85C735.853 1260.94 731.007 1257.13 724 1256.29C712.268 1254.88 699.813 1256 688 1256M767 1256C766.926 1247.09 765.87 1238.94 767 1230L791 1230C794.246 1230 798.739 1230.76 801.772 1229.4C806.113 1227.44 806.357 1217.64 802.566 1215.03C800.494 1213.6 797.374 1214 795 1214L777 1214C773.848 1214 769.213 1214.73 767.179 1211.68C765.447 1209.09 765.943 1204.96 766.015 1202C766.088 1198.96 766.62 1196.01 767 1193L797 1193C800.829 1193 806.272 1193.96 809.852 1192.4C813.721 1190.71 813.879 1183.54 812.397 1180.15C810.683 1176.22 805.499 1177 802 1177L772 1177L757 1177C754.582 1177.02 751.474 1176.73 749.603 1178.6C745.862 1182.34 748 1194.07 748 1199L748 1252C748 1256.59 746.095 1266.89 749.603 1270.4C752.479 1273.27 759.306 1272 763 1272L798 1272C801.989 1272 809.405 1273.41 811.397 1268.85C814.853 1260.94 810.007 1257.13 803 1256.29C791.268 1254.88 778.813 1256 767 1256M846 1256L846 1221L846 1194C846 1190.07 846.896 1184.77 845.397 1181.06C843.438 1176.21 832.203 1175 828.603 1178.6C824.862 1182.34 827 1194.07 827 1199L827 1252C827 1256.59 825.095 1266.89 828.603 1270.4C830.474 1272.27 833.582 1271.98 836 1272L853 1272L879 1272C881.946 1271.99 886.081 1272.52 887.972 1269.68C890.375 1266.08 889.493 1258.59 884.941 1257.32C872.988 1253.97 858.299 1256 846 1256M919 1230C929.525 1229.97 939.44 1229.17 950 1230L950 1257C950 1260.56 949.147 1265.52 950.603 1268.85C952.825 1273.94 965.363 1273.26 967.972 1268.85C971.279 1263.27 969 1251.36 969 1245L969 1203C969 1196.24 969.938 1188.7 968.852 1182.02C967.757 1175.28 954.182 1174.82 951.028 1180.15C949.261 1183.13 950 1187.68 950 1191L950 1214L919 1214L919 1191C919 1187.68 919.739 1183.13 917.972 1180.15C915.13 1175.35 901.952 1175.11 900.318 1181.06C897.905 1189.84 900 1201.89 900 1211L900 1248C900 1254.12 899.165 1260.93 900.148 1266.98C901.15 1273.14 914.708 1274.57 917.972 1269.68C919.953 1266.71 919.001 1261.39 919 1258C918.996 1248.44 917.79 1239.57 919 1230M1034 1241C1034.62 1248.11 1037.54 1255.2 1039.66 1262C1040.47 1264.6 1040.9 1268.36 1042.85 1270.4C1045.66 1273.31 1056.54 1272.75 1058.96 1269.41C1060.42 1267.39 1059.48 1264.19 1058.96 1262C1057.37 1255.3 1055.02 1248.64 1053.15 1242C1049.14 1227.67 1045.13 1213.32 1041 1199C1039.3 1193.11 1038.29 1184.34 1034.72 1179.32C1031.63 1174.96 1020.72 1176.97 1016 1177C1013.95 1177.01 1011.32 1176.73 1009.56 1178.03C1004.75 1181.57 1004.49 1193.61 1003.08 1199C998.692 1215.72 993.902 1232.48 988.809 1249C987.229 1254.13 982.2 1264.42 984.618 1269.68C986.262 1273.26 994.759 1272.39 997.945 1271.85C1002.03 1271.16 1002.77 1267.51 1003.68 1264C1005.39 1257.44 1005.66 1247.84 1009.93 1242.32C1014.03 1237.04 1028.11 1241 1034 1241M1171 1230C1177.46 1239.01 1183.93 1248.01 1190.42 1257C1193.49 1261.25 1196.56 1267.11 1200.67 1270.4C1204.21 1273.23 1219.82 1274.15 1218.88 1266.98C1218.37 1263.13 1214.44 1259.09 1212.28 1256C1206.66 1247.98 1200.89 1240.07 1195.34 1232C1193.14 1228.79 1189.17 1224.89 1188.39 1221C1187.58 1216.96 1191.95 1212.89 1194.21 1210L1208.21 1192C1210.41 1189.2 1214.03 1185.77 1214.34 1182.02C1214.9 1175.3 1201.26 1175.76 1197.44 1178.03C1193.82 1180.17 1191.17 1184.77 1188.6 1188C1182.68 1195.45 1175.35 1203.58 1171 1212C1168.92 1204.95 1171 1196.38 1171 1189C1171 1186.2 1171.47 1182.67 1169.97 1180.15C1167.13 1175.35 1153.95 1175.11 1152.32 1181.06C1150.61 1187.28 1152 1195.57 1152 1202L1152 1245C1152 1251.7 1149.9 1262.66 1152.6 1268.85C1154.97 1274.27 1167.32 1273.08 1169.4 1267.94C1170.92 1264.18 1169.92 1258.98 1170.01 1255C1170.22 1246.66 1171 1238.4 1171 1230z"/>
<path style="fill:#cec5b4; stroke:none;" d="M1362 1308L1362 1314L1375 1314L1375 1296C1364.05 1293.56 1353.27 1294 1342 1294L1342 1194L1354 1194L1354 1180C1348.67 1180 1343.33 1179.9 1338 1180C1336.03 1180.04 1333.54 1179.88 1332.18 1181.6C1330.65 1183.53 1331.01 1186.71 1331 1189L1331 1207L1331 1278L1331 1298C1331 1300.47 1330.38 1304.31 1332.03 1306.4C1333.74 1308.56 1337.58 1307.99 1340 1308L1362 1308z"/>
<path style="fill:#ffffff; stroke:none;" d="M1342 1194L1342 1294C1353.36 1294 1363.9 1294.53 1375 1296L1375 1314L1385 1314L1385 1289L1364 1289C1361.34 1288.99 1357.67 1289.47 1355.6 1287.4C1353.73 1285.53 1354.02 1282.42 1354 1280L1354 1263L1354 1194L1342 1194z"/>
<path style="fill:#a9a79c; stroke:none;" d="M509 1195L509 1204C510.256 1201.01 510.256 1197.99 509 1195z"/>
<path style="fill:#848784; stroke:none;" d="M529 1195L530 1196L529 1195z"/>
<path style="fill:#cdc5b3; stroke:none;" d="M542 1212C542.442 1208.72 543.733 1205.32 543.718 1202C543.692 1196.62 534.98 1192.65 530.603 1196.03C528.656 1197.54 528.931 1200.84 529.149 1203C529.29 1204.4 529.794 1205.75 530.603 1206.89C531.711 1208.46 533.297 1209.59 535.003 1210.43C537.237 1211.52 539.568 1211.79 542 1212M1076 1195C1071.01 1196.7 1066.13 1197.58 1062.04 1201.21C1051.92 1210.21 1049.88 1229.48 1053.16 1242C1055.07 1249.32 1065.91 1270.07 1054 1272C1058.87 1292.48 1077.82 1292 1095 1292C1099.53 1292 1109.66 1293.59 1112.82 1289.41C1115.57 1285.77 1112.54 1279.02 1112 1275C1105.04 1275.88 1098 1276.46 1091 1276.91C1085.87 1277.24 1079.13 1276.73 1075.39 1272.77C1071.61 1268.76 1071.39 1263.15 1070.83 1258C1069.62 1246.7 1069.58 1235.27 1071.3 1224C1071.84 1220.47 1073.43 1217.4 1074.37 1214C1075.76 1208.97 1077.76 1199.9 1076 1195z"/>
<path style="fill:#7c817f; stroke:none;" d="M1077.33 1195.67C1077.28 1195.72 1077.22 1196.78 1077.67 1196.33C1077.72 1196.28 1077.78 1195.22 1077.33 1195.67z"/>
<path style="fill:#cdc5b3; stroke:none;" d="M1094 1211L1112 1212C1112.79 1208.19 1115 1202.96 1113.39 1199.15C1111.58 1194.86 1099.95 1193.44 1096.73 1196.6C1093.33 1199.94 1094 1206.68 1094 1211z"/>
<path style="fill:#a9a79c; stroke:none;" d="M1234 1195L1234 1204C1235.26 1201.01 1235.26 1197.99 1234 1195z"/>
<path style="fill:#848784; stroke:none;" d="M1254 1195L1255 1196L1254 1195z"/>
<path style="fill:#cdc5b3; stroke:none;" d="M1267 1212C1267.44 1208.72 1268.73 1205.32 1268.72 1202C1268.69 1196.62 1259.98 1192.65 1255.6 1196.03C1253.66 1197.54 1253.93 1200.84 1254.15 1203C1254.29 1204.4 1254.79 1205.75 1255.6 1206.89C1256.71 1208.46 1258.3 1209.59 1260 1210.43C1262.24 1211.52 1264.57 1211.79 1267 1212M549 1256C547.178 1243.67 538.542 1236.74 527 1233.43C520.952 1231.69 512.786 1230.84 508.434 1225.79C502.818 1219.26 509.652 1215.98 510.394 1209.91C510.927 1205.55 509.037 1200.49 509 1196C502.646 1196.29 495.777 1198.28 491.39 1203.19C484.009 1211.43 484.534 1227.28 490.8 1235.98C496.8 1244.32 507.85 1245.99 517 1248.89C522.16 1250.52 525.513 1254.48 530.286 1256.4C535.351 1258.44 543.838 1257.23 549 1256M588 1212L588 1270C588 1274.74 585.81 1286.96 590.318 1289.97C594.199 1292.56 605.26 1292.12 606.682 1286.94C608.625 1279.87 607 1270.33 607 1263L607 1212L611 1212L611 1196L581 1196C576.906 1196 570.971 1194.93 567.148 1196.6C562.87 1198.47 562.534 1208.45 566.318 1210.97C571.1 1214.16 582.389 1212 588 1212z"/>
<path style="fill:#a9a79c; stroke:none;" d="M611 1196L611 1212C612.812 1207.68 612.812 1200.32 611 1196z"/>
<path style="fill:#cdc5b3; stroke:none;" d="M665 1275L665 1249L669 1249L669 1233L665 1233L665 1212L669 1212L669 1196C663.944 1196 650.185 1193.59 647.028 1198.32C644.077 1202.74 646 1212.85 646 1218L646 1269C646 1273.88 643.701 1286.89 648.318 1289.97C651.668 1292.21 658.157 1291 662 1291L695 1291C698.843 1291 705.332 1292.21 708.682 1289.97C712.466 1287.45 712.13 1277.47 707.852 1275.6C701.896 1273 691.445 1275 685 1275L665 1275z"/>
<path style="fill:#a9a79c; stroke:none;" d="M687 1196L687 1212C688.812 1207.68 688.812 1200.32 687 1196z"/>
<path style="fill:#cdc5b3; stroke:none;" d="M688 1196L688 1212C693.398 1212 704.073 1214.05 708.682 1210.97C712.154 1208.66 712.154 1199.34 708.682 1197.03C704.073 1193.95 693.398 1196 688 1196M725 1256C736.462 1256.86 736.462 1271.14 725 1272C725 1276.45 723.205 1286 726.603 1289.4C729.479 1292.27 736.306 1291 740 1291L775 1291C778.694 1291 785.521 1292.27 788.397 1289.4C791.345 1286.45 790.922 1277.38 786.852 1275.6C780.896 1273 770.445 1275 764 1275L744 1275L744 1249L748 1249L748 1233L744 1233L744 1212L748 1212L748 1196C742.858 1196 730.47 1193.74 726.603 1197.6C723.445 1200.76 724.809 1209.9 725.089 1214C726.041 1227.9 725 1241.97 725 1256z"/>
<path style="fill:#a9a79c; stroke:none;" d="M766 1196L766 1212C767.812 1207.68 767.812 1200.32 766 1196z"/>
<path style="fill:#cdc5b3; stroke:none;" d="M767 1196L767 1212C772.398 1212 783.073 1214.05 787.682 1210.97C791.154 1208.66 791.154 1199.34 787.682 1197.03C783.073 1193.95 772.398 1196 767 1196M804 1256C815.462 1256.86 815.462 1271.14 804 1272C804 1276.45 802.205 1286 805.603 1289.4C808.479 1292.27 815.306 1291 819 1291L853 1291C856.503 1291 862.663 1292.13 865.397 1289.4C868.469 1286.32 867.538 1278.21 863.852 1276.03C858.649 1272.95 847.903 1275 842 1275L823 1275L823 1219C823 1213.62 825.065 1202.67 821.397 1198.32C818.072 1194.37 805.864 1194.43 804.318 1200.06C802.413 1206.99 804.811 1215.01 804.946 1222C805.162 1233.2 804 1244.71 804 1256M877 1256C880.244 1256 884.091 1255.54 886.852 1257.6C891.27 1260.91 890.779 1268.32 885.941 1270.97C883.315 1272.41 879.884 1272 877 1272C877 1276.54 875.421 1284.78 878.028 1288.68C880.679 1292.65 893.416 1292.39 895.397 1287.85C896.853 1284.52 896 1279.56 896 1276L896 1249L900 1249L900 1233L896 1233L896 1211C896 1207.62 896.689 1203.26 895.397 1200.06C893.39 1195.09 881.069 1193.76 878.028 1198.32C875.429 1202.21 877 1210.5 877 1215L877 1256M927 1214L946 1214C946 1209.68 947.459 1202.04 944.972 1198.32C942.18 1194.13 930.484 1195 928.028 1199.15C925.756 1202.99 927 1209.69 927 1214M1003 1196C998.683 1196 990.178 1194.37 986.563 1197.03C982.554 1199.98 981.608 1210.42 980.291 1215C976.631 1227.74 971.461 1240.92 969.325 1254C968.676 1257.97 969.47 1262.04 968.852 1266C967.745 1273.07 957.369 1279.21 960.644 1287.85C962.346 1292.34 975.16 1292.5 978.146 1289.4C979.907 1287.57 980.322 1284.35 981 1282C983.114 1274.68 983.517 1267.27 985.579 1260L992.86 1234C996.326 1221.77 1001.96 1208.68 1003 1196z"/>
<path style="fill:#7c817f; stroke:none;" d="M1003.33 1196.67C1003.28 1196.72 1003.22 1197.78 1003.67 1197.33C1003.72 1197.28 1003.78 1196.22 1003.33 1196.67z"/>
<path style="fill:#cdc5b3; stroke:none;" d="M1129 1257L1134 1256C1135.95 1262.94 1138.91 1271.25 1129 1272C1129 1276.54 1127.42 1284.78 1130.03 1288.68C1132.82 1292.87 1144.52 1292 1146.97 1287.85C1148.87 1284.65 1148 1279.57 1148 1276L1148 1249C1149.33 1250.61 1150.38 1251.7 1152 1253L1152 1225C1150.39 1226.45 1149.94 1227.05 1149 1229C1146.32 1219.94 1150.89 1208.71 1147.4 1200.06C1145.12 1194.41 1131.06 1193.71 1129.32 1200.06C1127.84 1205.42 1129 1212.46 1129 1218L1129 1257M1171 1210C1175.84 1206.3 1179.65 1201.07 1183 1196C1172.68 1196.01 1171 1200.25 1171 1210M1274 1256C1272.18 1243.67 1263.54 1236.74 1252 1233.43C1245.95 1231.69 1237.79 1230.84 1233.43 1225.79C1227.82 1219.26 1234.65 1215.98 1235.39 1209.91C1235.93 1205.55 1234.04 1200.49 1234 1196C1227.65 1196.29 1220.78 1198.28 1216.39 1203.19C1209.01 1211.43 1209.53 1227.28 1215.8 1235.98C1221.8 1244.32 1232.85 1245.99 1242 1248.89C1247.16 1250.52 1250.51 1254.48 1255.29 1256.4C1260.35 1258.44 1268.84 1257.23 1274 1256z"/>
<path style="fill:#a9a79c; stroke:none;" d="M528 1197L528 1204C529.059 1201.47 529.059 1199.53 528 1197z"/>
<path style="fill:#cdc5b3; stroke:none;" d="M630 1197L630 1211C632.897 1207.18 632.897 1200.82 630 1197z"/>
<path style="fill:#737979; stroke:none;" d="M1095 1197L1096 1198L1095 1197z"/>
<path style="fill:#a9a79c; stroke:none;" d="M1253 1197L1253 1204C1254.06 1201.47 1254.06 1199.53 1253 1197z"/>
<path style="fill:#8e908b; stroke:none;" d="M1076 1199L1076 1202C1076.7 1200.45 1076.7 1200.55 1076 1199z"/>
<path style="fill:#737979; stroke:none;" d="M1180 1199L1181 1200L1180 1199z"/>
<path style="fill:#6a7174; stroke:none;" d="M1002.33 1200.67C1002.28 1200.72 1002.22 1201.78 1002.67 1201.33C1002.72 1201.28 1002.78 1200.22 1002.33 1200.67z"/>
<path style="fill:#979790; stroke:none;" d="M1094.33 1200.67C1094.28 1200.72 1094.22 1201.78 1094.67 1201.33C1094.72 1201.28 1094.78 1200.22 1094.33 1200.67z"/>
<path style="fill:#8e908b; stroke:none;" d="M1179 1200L1180 1201L1179 1200z"/>
<path style="fill:#ffffff; stroke:none;" d="M1021 1202C1020.18 1207.54 1013.83 1220.82 1021.3 1224.4C1023.25 1225.33 1025.91 1224.99 1028 1225C1027.37 1217.77 1024.88 1208.16 1021 1202z"/>
<path style="fill:#a9a79c; stroke:none;" d="M1170 1202L1170 1212C1171.76 1208.95 1171.37 1205.23 1170 1202z"/>
<path style="fill:#616a6e; stroke:none;" d="M1093.33 1204.67C1093.28 1204.72 1093.22 1205.78 1093.67 1205.33C1093.72 1205.28 1093.78 1204.22 1093.33 1204.67z"/>
<path style="fill:#737979; stroke:none;" d="M1176 1204L1177 1205L1176 1204z"/>
<path style="fill:#858885; stroke:none;" d="M1175 1205L1176 1206L1175 1205z"/>
<path style="fill:#7c817f; stroke:none;" d="M510 1206L510 1209C510.696 1207.45 510.696 1207.55 510 1206z"/>
<path style="fill:#a9a79c; stroke:none;" d="M1075.33 1206.67C1075.28 1206.72 1075.22 1207.78 1075.67 1207.33C1075.72 1207.28 1075.78 1206.22 1075.33 1206.67z"/>
<path style="fill:#858885; stroke:none;" d="M1093.33 1206.67C1093.28 1206.72 1093.22 1207.78 1093.67 1207.33C1093.72 1207.28 1093.78 1206.22 1093.33 1206.67z"/>
<path style="fill:#7c817f; stroke:none;" d="M1235 1206L1235 1209C1235.7 1207.45 1235.7 1207.55 1235 1206z"/>
<path style="fill:#858885; stroke:none;" d="M530 1207L531 1208L530 1207z"/>
<path style="fill:#6a7174; stroke:none;" d="M1000.33 1207.67C1000.28 1207.72 1000.22 1208.78 1000.67 1208.33C1000.72 1208.28 1000.78 1207.22 1000.33 1207.67z"/>
<path style="fill:#858885; stroke:none;" d="M1255 1207L1256 1208L1255 1207z"/>
<path style="fill:#7c817f; stroke:none;" d="M531 1208L532 1209L531 1208z"/>
<path style="fill:#858885; stroke:none;" d="M1075 1208L1075 1213C1075.83 1210.97 1075.83 1210.03 1075 1208z"/>
<path style="fill:#a9a79c; stroke:none;" d="M1093 1208L1093 1211C1093.7 1209.45 1093.7 1209.55 1093 1208z"/>
<path style="fill:#7c817f; stroke:none;" d="M1256 1208L1257 1209L1256 1208z"/>
<path style="fill:#737979; stroke:none;" d="M534 1210L535 1211L534 1210z"/>
<path style="fill:#7c817f; stroke:none;" d="M999.333 1210.67C999.278 1210.72 999.222 1211.78 999.667 1211.33C999.722 1211.28 999.778 1210.22 999.333 1210.67z"/>
<path style="fill:#737979; stroke:none;" d="M1259 1210L1260 1211L1259 1210z"/>
<path style="fill:#757b7a; stroke:none;" d="M511 1211L512 1212L511 1211z"/>
<path style="fill:#767b7b; stroke:none;" d="M537 1211L538 1212L537 1211z"/>
<path style="fill:#757b7a; stroke:none;" d="M1236 1211L1237 1212L1236 1211z"/>
<path style="fill:#767b7b; stroke:none;" d="M1262 1211L1263 1212L1262 1211z"/>
<path style="fill:#ffffff; stroke:none;" d="M549 1255C554.561 1250.09 554.982 1238.52 548.891 1233.64C543.147 1229.04 534.713 1228.48 528 1225.93C520.336 1223.02 515.572 1218.69 511 1212C505.451 1215.11 503.935 1222.83 509.228 1227.35C514.411 1231.78 522.746 1232.24 529 1234.36C539.335 1237.85 545.651 1244.8 549 1255M665 1212L665 1233L669 1233L669 1212L665 1212M744 1212L744 1233L748 1233L748 1212L744 1212M1274 1255C1279.56 1250.09 1279.98 1238.52 1273.89 1233.64C1268.15 1229.04 1259.71 1228.48 1253 1225.93C1245.34 1223.02 1240.57 1218.69 1236 1212C1230.45 1215.11 1228.93 1222.83 1234.23 1227.35C1239.41 1231.78 1247.75 1232.24 1254 1234.36C1264.34 1237.85 1270.65 1244.8 1274 1255z"/>
<path style="fill:#6a7174; stroke:none;" d="M998.333 1214.67C998.278 1214.72 998.222 1215.78 998.667 1215.33C998.722 1215.28 998.778 1214.22 998.333 1214.67z"/>
<path style="fill:#7c817f; stroke:none;" d="M997.333 1217.67C997.278 1217.72 997.222 1218.78 997.667 1218.33C997.722 1218.28 997.778 1217.22 997.333 1217.67z"/>
<path style="fill:#a09f96; stroke:none;" d="M1016.33 1217.67C1016.28 1217.72 1016.22 1218.78 1016.67 1218.33C1016.72 1218.28 1016.78 1217.22 1016.33 1217.67z"/>
<path style="fill:#cdc5b3; stroke:none;" d="M1017 1217C1016.01 1219.71 1015.29 1222.13 1015 1225L1020 1225C1019.2 1222.18 1018.53 1219.5 1017 1217z"/>
<path style="fill:#6a7174; stroke:none;" d="M996.333 1221.67C996.278 1221.72 996.222 1222.78 996.667 1222.33C996.722 1222.28 996.778 1221.22 996.333 1221.67z"/>
<path style="fill:#7c817f; stroke:none;" d="M995.333 1224.67C995.278 1224.72 995.222 1225.78 995.667 1225.33C995.722 1225.28 995.778 1224.22 995.333 1224.67z"/>
<path style="fill:#858885; stroke:none;" d="M1014 1224L1015 1225L1014 1224z"/>
<path style="fill:#979790; stroke:none;" d="M725 1227L726 1228L725 1227M804 1227L805 1228L804 1227z"/>
<path style="fill:#6a7174; stroke:none;" d="M994.333 1228.67C994.278 1228.72 994.222 1229.78 994.667 1229.33C994.722 1229.28 994.778 1228.22 994.333 1228.67z"/>
<path style="fill:#7a7f7e; stroke:none;" d="M1170 1228L1171 1229L1170 1228z"/>
<path style="fill:#ffffff; stroke:none;" d="M724 1229C713.194 1232.19 699.256 1230 688 1230L688 1233C691.581 1233 696.647 1232.13 699.852 1234.03C704.221 1236.61 704.221 1245.39 699.852 1247.97C696.647 1249.87 691.581 1249 688 1249L688 1256L725 1256C725 1247.98 727.109 1236.41 724 1229M803 1229C792.194 1232.19 778.256 1230 767 1230L767 1233C770.581 1233 775.647 1232.13 778.852 1234.03C783.221 1236.61 783.221 1245.39 778.852 1247.97C775.647 1249.87 770.581 1249 767 1249L767 1256L804 1256C804 1247.98 806.109 1236.41 803 1229z"/>
<path style="fill:#a9a79c; stroke:none;" d="M927 1229C932.469 1231.29 940.099 1230 946 1230C940.531 1227.71 932.901 1229 927 1229z"/>
<path style="fill:#ffffff; stroke:none;" d="M919 1230L919 1233L927 1233L927 1230L919 1230z"/>
<path style="fill:#cdc5b3; stroke:none;" d="M927 1230L927 1233L919 1233L919 1249L927 1249L927 1276C927 1279.56 926.147 1284.52 927.603 1287.85C929.584 1292.39 942.322 1292.65 944.972 1288.68C947.571 1284.79 946 1276.5 946 1272L946 1230L927 1230z"/>
<path style="fill:#7c817f; stroke:none;" d="M993.333 1231.67C993.278 1231.72 993.222 1232.78 993.667 1232.33C993.722 1232.28 993.778 1231.22 993.333 1231.67z"/>
<path style="fill:#a9a79c; stroke:none;" d="M687 1233L687 1249C688.812 1244.68 688.812 1237.32 687 1233z"/>
<path style="fill:#cdc5b3; stroke:none;" d="M688 1233L688 1249C691.641 1249 697.516 1250.09 700.682 1247.97C704.154 1245.66 704.154 1236.34 700.682 1234.03C697.516 1231.91 691.641 1233 688 1233z"/>
<path style="fill:#a9a79c; stroke:none;" d="M766 1233L766 1249C767.812 1244.68 767.812 1237.32 766 1233z"/>
<path style="fill:#cdc5b3; stroke:none;" d="M767 1233L767 1249C770.641 1249 776.516 1250.09 779.682 1247.97C783.154 1245.66 783.154 1236.34 779.682 1234.03C776.516 1231.91 770.641 1233 767 1233z"/>
<path style="fill:#a9a79c; stroke:none;" d="M918 1233L918 1249C919.812 1244.68 919.812 1237.32 918 1233z"/>
<path style="fill:#6a7174; stroke:none;" d="M992.333 1235.67C992.278 1235.72 992.222 1236.78 992.667 1236.33C992.722 1236.28 992.778 1235.22 992.333 1235.67z"/>
<path style="fill:#7c817f; stroke:none;" d="M991.333 1238.67C991.278 1238.72 991.222 1239.78 991.667 1239.33C991.722 1239.28 991.778 1238.22 991.333 1238.67z"/>
<path style="fill:#6a7174; stroke:none;" d="M1052.33 1239.67C1052.28 1239.72 1052.22 1240.78 1052.67 1240.33C1052.72 1240.28 1052.78 1239.22 1052.33 1239.67z"/>
<path style="fill:#a9a79c; stroke:none;" d="M1010 1240C1014.22 1241.77 1019.46 1241 1024 1241C1019.78 1239.23 1014.54 1240 1010 1240z"/>
<path style="fill:#979790; stroke:none;" d="M1009.33 1241.67C1009.28 1241.72 1009.22 1242.78 1009.67 1242.33C1009.72 1242.28 1009.78 1241.22 1009.33 1241.67z"/>
<path style="fill:#cdc5b3; stroke:none;" d="M1005 1260L1011 1260C1011.62 1267.11 1014.54 1274.2 1016.66 1281C1017.47 1283.6 1017.9 1287.36 1019.85 1289.4C1022.79 1292.45 1035.72 1292.39 1037.31 1287.85C1038.68 1283.94 1035.68 1277.77 1034.58 1274C1031.37 1263.04 1027.55 1252.13 1025 1241C1021.05 1241 1015.02 1239.87 1011.39 1241.6C1006.76 1243.82 1005.62 1255.41 1005 1260z"/>
<path style="fill:#6a7174; stroke:none;" d="M990.333 1242.67C990.278 1242.72 990.222 1243.78 990.667 1243.33C990.722 1243.28 990.778 1242.22 990.333 1242.67z"/>
<path style="fill:#7c817f; stroke:none;" d="M989.333 1245.67C989.278 1245.72 989.222 1246.78 989.667 1246.33C989.722 1246.28 989.778 1245.22 989.333 1245.67z"/>
<path style="fill:#6a7174; stroke:none;" d="M1054.33 1246.67C1054.28 1246.72 1054.22 1247.78 1054.67 1247.33C1054.72 1247.28 1054.78 1246.22 1054.33 1246.67z"/>
<path style="fill:#a09f96; stroke:none;" d="M1007.33 1248.67C1007.28 1248.72 1007.22 1249.78 1007.67 1249.33C1007.72 1249.28 1007.78 1248.22 1007.33 1248.67z"/>
<path style="fill:#6a7174; stroke:none;" d="M988.333 1249.67C988.278 1249.72 988.222 1250.78 988.667 1250.33C988.722 1250.28 988.778 1249.22 988.333 1249.67z"/>
<path style="fill:#7c817f; stroke:none;" d="M1055.33 1249.67C1055.28 1249.72 1055.22 1250.78 1055.67 1250.33C1055.72 1250.28 1055.78 1249.22 1055.33 1249.67z"/>
<path style="fill:#a9a79c; stroke:none;" d="M1170 1249L1170 1269C1172.09 1264.03 1172.09 1253.97 1170 1249z"/>
<path style="fill:#cdc5b3; stroke:none;" d="M1171 1250C1171 1257.86 1173.31 1268 1165 1272C1169.46 1279.83 1175.17 1290.93 1185 1291C1188.47 1291.02 1195.62 1292.1 1195.92 1286.94C1196.14 1283.11 1192.02 1278.95 1189.98 1276C1184.01 1267.38 1178.28 1257.54 1171 1250z"/>
<path style="fill:#8e908b; stroke:none;" d="M1006.33 1251.67C1006.28 1251.72 1006.22 1252.78 1006.67 1252.33C1006.72 1252.28 1006.78 1251.22 1006.33 1251.67z"/>
<path style="fill:#616a6e; stroke:none;" d="M1056.33 1253.67C1056.28 1253.72 1056.22 1254.78 1056.67 1254.33C1056.72 1254.28 1056.78 1253.22 1056.33 1253.67z"/>
<path style="fill:#a09f96; stroke:none;" d="M1005.33 1255.67C1005.28 1255.72 1005.22 1256.78 1005.67 1256.33C1005.72 1256.28 1005.78 1255.22 1005.33 1255.67z"/>
<path style="fill:#8e908b; stroke:none;" d="M547 1256L548 1257L547 1256z"/>
<path style="fill:#858885; stroke:none;" d="M725 1256C727.052 1256.87 728.747 1256.95 731 1257C728.948 1256.13 727.253 1256.05 725 1256M804 1256C806.052 1256.87 807.747 1256.95 810 1257C807.948 1256.13 806.253 1256.05 804 1256M877 1256C880.163 1257.33 883.586 1257 887 1257C883.837 1255.67 880.414 1256 877 1256z"/>
<path style="fill:#616a6e; stroke:none;" d="M986.333 1256.67C986.278 1256.72 986.222 1257.78 986.667 1257.33C986.722 1257.28 986.778 1256.22 986.333 1256.67z"/>
<path style="fill:#737979; stroke:none;" d="M1057.33 1256.67C1057.28 1256.72 1057.22 1257.78 1057.67 1257.33C1057.72 1257.28 1057.78 1256.22 1057.33 1256.67z"/>
<path style="fill:#a9a79c; stroke:none;" d="M1132.67 1256.33C1132.22 1256.78 1133.28 1256.72 1133.33 1256.67C1133.78 1256.22 1132.72 1256.28 1132.67 1256.33z"/>
<path style="fill:#8e908b; stroke:none;" d="M1272 1256L1273 1257L1272 1256z"/>
<path style="fill:#a9a79c; stroke:none;" d="M530 1257C533.432 1258.44 537.3 1258 541 1258C537.568 1256.56 533.7 1257 530 1257z"/>
<path style="fill:#858885; stroke:none;" d="M541 1257C542.248 1257.68 542.549 1257.75 544 1258C542.752 1257.32 542.452 1257.25 541 1257z"/>
<path style="fill:#979790; stroke:none;" d="M887 1257L888 1258L887 1257z"/>
<path style="fill:#616a6e; stroke:none;" d="M1134.33 1257.67C1134.28 1257.72 1134.22 1258.78 1134.67 1258.33C1134.72 1258.28 1134.78 1257.22 1134.33 1257.67z"/>
<path style="fill:#a9a79c; stroke:none;" d="M1255 1257C1258.43 1258.44 1262.3 1258 1266 1258C1262.57 1256.56 1258.7 1257 1255 1257z"/>
<path style="fill:#858885; stroke:none;" d="M1266 1257C1267.25 1257.68 1267.55 1257.75 1269 1258C1267.75 1257.32 1267.45 1257.25 1266 1257z"/>
<path style="fill:#979790; stroke:none;" d="M888 1258L889 1259L888 1258z"/>
<path style="fill:#687072; stroke:none;" d="M1004.33 1258.67C1004.28 1258.72 1004.22 1259.78 1004.67 1259.33C1004.72 1259.28 1004.78 1258.22 1004.33 1258.67z"/>
<path style="fill:#858885; stroke:none;" d="M733 1259L733 1269C734.346 1265.79 734.346 1262.21 733 1259M812 1259L812 1269C813.346 1265.79 813.346 1262.21 812 1259z"/>
<path style="fill:#a9a79c; stroke:none;" d="M889 1259L889 1269C890.346 1265.79 890.346 1262.21 889 1259z"/>
<path style="fill:#616a6e; stroke:none;" d="M1135.33 1261.67C1135.28 1261.72 1135.22 1262.78 1135.67 1262.33C1135.72 1262.28 1135.78 1261.22 1135.33 1261.67M984.333 1263.67C984.278 1263.72 984.222 1264.78 984.667 1264.33C984.722 1264.28 984.778 1263.22 984.333 1263.67z"/>
<path style="fill:#6a7174; stroke:none;" d="M1059.33 1263.67C1059.28 1263.72 1059.22 1264.78 1059.67 1264.33C1059.72 1264.28 1059.78 1263.22 1059.33 1263.67z"/>
<path style="fill:#616a6e; stroke:none;" d="M1136.33 1265.67C1136.28 1265.72 1136.22 1266.78 1136.67 1266.33C1136.72 1266.28 1136.78 1265.22 1136.33 1265.67z"/>
<path style="fill:#7c817f; stroke:none;" d="M983.333 1267.67C983.278 1267.72 983.222 1268.78 983.667 1268.33C983.722 1268.28 983.778 1267.22 983.333 1267.67M1060.33 1267.67C1060.28 1267.72 1060.22 1268.78 1060.67 1268.33C1060.72 1268.28 1060.78 1267.22 1060.33 1267.67z"/>
<path style="fill:#737979; stroke:none;" d="M968 1269L969 1270L968 1269M1169 1269L1170 1270L1169 1269M967 1270L968 1271L967 1270z"/>
<path style="fill:#7c817f; stroke:none;" d="M1135 1270L1136 1271L1135 1270z"/>
<path style="fill:#737979; stroke:none;" d="M1168 1270L1169 1271L1168 1270M966 1271L967 1272L966 1271z"/>
<path style="fill:#616a6e; stroke:none;" d="M1054 1271C1055.51 1271.68 1056.31 1271.83 1058 1272C1056.49 1271.32 1055.69 1271.17 1054 1271z"/>
<path style="fill:#979790; stroke:none;" d="M1058 1271L1059 1272L1058 1271z"/>
<path style="fill:#616a6e; stroke:none;" d="M1132 1271C1133.25 1271.68 1133.55 1271.75 1135 1272C1133.75 1271.32 1133.45 1271.25 1132 1271z"/>
<path style="fill:#737979; stroke:none;" d="M1167 1271L1168 1272L1167 1271z"/>
<path style="fill:#616a6e; stroke:none;" d="M545 1272C546.506 1272.68 547.315 1272.83 549 1273C547.494 1272.32 546.685 1272.17 545 1272M1270 1272C1271.51 1272.68 1272.31 1272.83 1274 1273C1272.49 1272.32 1271.69 1272.17 1270 1272z"/>
<path style="fill:#cdc5b3; stroke:none;" d="M487 1275C486.461 1279 483.759 1284.95 486.183 1288.68C489.146 1293.24 499.358 1291.77 504 1292.09C521.525 1293.28 544.02 1293.96 549 1273C542.406 1273 535.541 1272.83 529 1273.43C525.204 1273.78 521.892 1275.76 518 1275.96C507.584 1276.48 497.358 1275.01 487 1275z"/>
<path style="fill:#a9a79c; stroke:none;" d="M531 1273C532.769 1273.78 534.036 1273.91 536 1274C534.231 1273.22 532.964 1273.09 531 1273z"/>
<path style="fill:#cdc5b3; stroke:none;" d="M1212 1275C1211.46 1279 1208.76 1284.95 1211.18 1288.68C1214.15 1293.24 1224.36 1291.77 1229 1292.09C1246.52 1293.28 1269.02 1293.96 1274 1273C1267.41 1273 1260.54 1272.83 1254 1273.43C1250.2 1273.78 1246.89 1275.76 1243 1275.96C1232.58 1276.48 1222.36 1275.01 1212 1275z"/>
<path style="fill:#a9a79c; stroke:none;" d="M1256 1273C1257.77 1273.78 1259.04 1273.91 1261 1274C1259.23 1273.22 1257.96 1273.09 1256 1273z"/>
<path style="fill:#cec5b4; stroke:none;" d="M421 1289L421 1308C422.952 1307.98 425.624 1308.31 427.259 1306.97C430.925 1303.98 429 1293.29 429 1289L421 1289M385 1295L385 1347C410.142 1350.18 436.653 1348 462 1348L603 1348L1035 1348L1261 1348L1329 1348L1355 1348C1359.14 1348 1363.85 1348.61 1367.91 1347.7C1370.39 1347.15 1372.54 1345.66 1375 1345L1375 1329L1362 1329L1362 1333L398 1334L398 1308L408 1308L408 1294C400.237 1294 392.702 1294.03 385 1295z"/>
<path style="fill:#ffffff; stroke:none;" d="M398 1308L398 1334L1362 1333L1362 1329L733 1329L525 1329C486.186 1329 446.661 1331.05 408 1328L408 1308L398 1308z"/>
</svg>
